SplineFontDB: 3.0
FontName: KleiIta
FullName: Klei Italic
FamilyName: Klei
Weight: Regular
Copyright: Copyright (c) 2015, Joseph Steck, Rocketroom, LLC. All rights reserved.
UComments: "For my beloved Alisa +ACIA-Clay+ACIA Steck+AAoA-2015-02-14: Created with FontForge (http://fontforge.org)"
Version: 001.000
ItalicAngle: 0
UnderlinePosition: -100
UnderlineWidth: 50
Ascent: 768
Descent: 232
InvalidEm: 0
LayerCount: 2
Layer: 0 0 "Back" 1
Layer: 1 0 "Fore" 0
PreferredKerning: 4
XUID: [1021 610 -1734517455 9502657]
FSType: 0
OS2Version: 3
OS2_WeightWidthSlopeOnly: 0
OS2_UseTypoMetrics: 1
CreationTime: 1424325067
ModificationTime: 1538351445
PfmFamily: 17
TTFWeight: 400
TTFWidth: 5
LineGap: 90
VLineGap: 0
Panose: 2 0 5 3 0 0 0 0 0 0
OS2TypoAscent: 0
OS2TypoAOffset: 1
OS2TypoDescent: 0
OS2TypoDOffset: 1
OS2TypoLinegap: 90
OS2WinAscent: 0
OS2WinAOffset: 1
OS2WinDescent: 0
OS2WinDOffset: 1
HheadAscent: 0
HheadAOffset: 1
HheadDescent: 0
HheadDOffset: 1
OS2Vendor: 'PfEd'
OS2CodePages: 20000001.00000000
OS2UnicodeRanges: 00000005.00000000.00000000.00000000
Lookup: 4 0 1 "'liga' Standard Ligatures in Latin lookup 0" { "'liga' ffl"  "'liga' ffi"  "'liga' ff"  "'liga' fi"  "'liga' fl"  } ['liga' ('DFLT' <'dflt' > 'latn' <'dflt' > ) ]

StartChar: s
Encoding: 115 115 0
GlifName: s
Width: 390
VWidth: 0
Flags: W
HStem: -11.2754 30.3506<51.8208 181.3> 477.125 26.875<183.302 278.883>
VStem: -20.8848 54.7412<31.4223 112.789> 75.686 67.7369<346.477 434.336> 245.292 74.1955<76.6471 178.899>
LayerCount: 2
Fore
SplineSet
117.314453125 19.0751953125 m 4
 166.196289062 19.0751953125 245.291996527 46.9317119529 245.291996527 123.802963925 c 0
 245.291996527 171.114441318 193.337964903 212.9724959 162.615234375 241.775390625 c 0
 134.198208295 268.297419709 75.6859923778 313.067940986 75.6859923778 369.282857836 c 0
 75.6859923778 450.967929246 165.217517313 504 249.71484375 504 c 3
 303.264648438 504 345 468.0078125 345 454 c 3
 345 431.47265625 331.96484375 414.974609375 316.71484375 414.974609375 c 3
 287.415039062 414.974609375 303.564453125 477.125 241.615234375 477.125 c 3
 184.49609375 477.125 143.422901804 446.589906435 143.422901804 399.122759659 c 0
 143.422901804 351.197388644 202.592706402 310.084825162 227.615234375 286.025390625 c 0
 263.99834538 251.555961622 319.487472518 200.872119336 319.487472518 147.433895475 c 0
 319.487472518 36.2656217275 187.530900771 -11.275390625 112.21484375 -11.275390625 c 4
 10.365234375 -11.275390625 -20.884765625 52.8076171875 -20.884765625 80.8251953125 c 7
 -20.884765625 99.9052734375 -10.359375 125.974609375 13.615234375 125.974609375 c 7
 25.9970703125 125.974609375 41.4296875 114.400390625 41.4296875 103 c 7
 41.4296875 93.5185546875 33.8564453125 82.0830078125 33.8564453125 72 c 7
 33.8564453125 33.541015625 64.40625 19.0751953125 117.314453125 19.0751953125 c 4
EndSplineSet
Validated: 1
EndChar

StartChar: W
Encoding: 87 87 1
GlifName: W_
Width: 932
VWidth: 0
Flags: W
HStem: -9 21G<251.519 256> 718 16<103 120.672 238.435 281 393 417.4 507.996 546 613 640.595 720.374 743 884 916.801 994.375 1018>
LayerCount: 2
Fore
SplineSet
880 718 m 1
 884 734 l 1
 1022 734 l 1
 1018 718 l 1
 1010 718 1002 717 994 715 c 0
 979 711 969 696 959 679 c 1
 825.427734375 453.639648438 691.510742188 228.255859375 558 3 c 0
 552 -6 549 -10 544 -10 c 0
 540 -10 536 -6 535 2 c 0
 534 9 506 179 479 352 c 1
 278 21 l 2
 271 10 267 3 267 3 c 2
 261 -6 258 -9 254 -9 c 0
 249.038085938 -9 243.965820312 -4.4677734375 242.860351562 5 c 0
 232 98 150.262695312 621.685546875 138 683 c 0
 134.263671875 701.68359375 133.502929688 712.58984375 121 716 c 0
 114 718 107 718 99 718 c 1
 103 734 l 1
 284 734 l 1
 281 718 l 1
 247.96484375 718 222.5859375 712.274414062 222.5859375 676.772460938 c 0
 222.5859375 674.600585938 223.70703125 668.342773438 224 666 c 2
 304 137 l 1
 471 406 l 1
 452 526 434 641 425 695 c 0
 420.284179688 713.862304688 409.51953125 718 389 718 c 1
 393 734 l 1
 549 734 l 1
 546 718 l 1
 519.65234375 718 496.477539062 711.278320312 491 688 c 0
 490.8359375 687.014648438 490.302734375 685.407226562 490.302734375 682.64453125 c 0
 490.302734375 681.465820312 490.735351562 677.641601562 491 676 c 2
 522 484 l 1
 632 660 l 2
 641.291992188 673.9375 646.962890625 683.755859375 646.962890625 697.104492188 c 3
 646.962890625 713.999023438 626.21875 718 609 718 c 1
 613 734 l 1
 665 734 l 1
 697 734 l 1
 747 734 l 1
 743 718 l 1
 735 718 728 717 720 715 c 0
 706 712 698 698 687 682 c 2
 539 448 l 5
 591 136 l 1
 906 660 l 2
 915.616210938 675.997070312 921.836914062 685.028320312 921.836914062 698.83984375 c 3
 921.836914062 716.37890625 897.768554688 718 880 718 c 1
EndSplineSet
EndChar

StartChar: A
Encoding: 65 65 2
GlifName: A_
Width: 677
VWidth: 0
Flags: W
HStem: 0 16<15 37.625 116.601 149 468 508.098 622.33 641> 312 29<294.747 482.952> 710 20G<501 510.911>
LayerCount: 2
Fore
SplineSet
492 18 m 0
 506 21 519 27 524 47 c 0
 524.707106781 51.2426406871 525.414213562 55.4852813742 525.414213562 60.4350288425 c 0
 525.414213562 62.4852813742 525.292893219 64.6568542495 525 67 c 2
 490 303 l 0
 489 307 488 312 484 312 c 2
 280 312 l 2
 274 312 272 308 269 304 c 2
 128 74 l 2
 117.605822965 57.8312801678 112.163265306 48.9755418553 112.163265306 35.1049562682 c 0
 112.163265306 22.8775510204 121.714285714 19.5714285714 132 17 c 0
 139 16 146 16 153 16 c 1
 149 0 l 1
 12 0 l 1
 15 16 l 1
 22 16 30 17 38 18 c 0
 53 22 63 38 74 55 c 1
 475 711 l 1
 488 721 494 719 508 730 c 1
 609 36 l 0
 611 26 614 20 622 18 c 0
 629 17 638 16 645 16 c 1
 641 0 l 1
 464 0 l 1
 468 16 l 1
 476 16 484 17 492 18 c 0
298 351 m 2
 297.224609375 349.73046875 294.745166004 346.632981805 294.745166004 344.549206511 c 0
 294.745166004 342.372583002 296.686291501 341 300 341 c 2
 468 341 l 1
 475 341 l 2
 479 341 482 343 483 346 c 0
 483 347 482 354 482 354 c 2
 446 593 l 1
 298 351 l 2
EndSplineSet
Validated: 1
EndChar

StartChar: O
Encoding: 79 79 3
GlifName: O_
Width: 707
VWidth: 0
Flags: W
HStem: -11 38<207.937 374.395> 699 35<342.016 526.38>
VStem: 28.1077 87.9461<128.686 395.627> 624.391 78.7828<335.709 594.455>
LayerCount: 2
Fore
SplineSet
455.109375 734 m 7
 597.696859492 734 703.173598324 645.346552032 703.173598324 476.015688634 c 7
 703.173598324 181.308199316 451.145092019 -11 281.109375 -11 c 7
 190.831313456 -11 28.1076661683 36.3114029346 28.1076661683 239.620530015 c 7
 28.1076661683 545.285055678 200.671648089 734 455.109375 734 c 7
116.053760404 231.53823087 m 7
 116.053760404 40.442680791 240.360403719 27 296.109375 27 c 7
 425.454954297 27 624.390755966 183.9105074 624.390755966 497.868356745 c 7
 624.390755966 612.21355532 573.988610336 699 435.109375 699 c 7
 190.834816012 699 116.053760404 394.046702522 116.053760404 231.53823087 c 7
EndSplineSet
Validated: 1
EndChar

StartChar: V
Encoding: 86 86 4
GlifName: V_
Width: 641
VWidth: 0
Flags: W
HStem: 717 16<101 119.665 234.661 275 595 628.199 694.923 729>
LayerCount: 2
Fore
SplineSet
250 715 m 0
 233.53515625 711.200195312 218.208984375 701.473632812 218.208984375 677.13671875 c 0
 218.208984375 674.005859375 218.462890625 670.6328125 219 667 c 10
 297 140 l 1
 616 660 l 2
 626.416015625 676.202148438 631.836914062 683.899414062 631.836914062 697.947265625 c 3
 631.836914062 717.583984375 610.504882812 718 591 718 c 1
 595 733 l 1
 733 733 l 1
 729 717 l 1
 691.767578125 717 686.6640625 702.885742188 670 678 c 1
 532.159179688 452.72265625 392.6171875 221.924804688 258 2 c 0
 254.235351562 -4.150390625 251 -10 246 -10 c 0
 241 -10 239 -6 238 2 c 0
 236 15 164 491 139 665 c 2
 138 671 136.759765625 678.958007812 136 684 c 0
 133 703.920898438 129.401367188 713.028320312 120 715 c 0
 112.875 716.494140625 104 717 97 717 c 1
 101 733 l 1
 279 733 l 1
 275 717 l 1
 268 717 258.03515625 716.854492188 250 715 c 0
EndSplineSet
EndChar

StartChar: H
Encoding: 72 72 5
GlifName: H_
Width: 760
VWidth: 0
Flags: W
HStem: 0 16<12 49.8066 168.328 186 473 510.366 616.898 647> 380 38<235.752 603.346> 714 16<177 195.669 311.763 351 638 668.401 774.176 812>
LayerCount: 2
Fore
SplineSet
168 18 m 0
 175 16 182 16 190 16 c 1
 186 0 l 1
 8 0 l 1
 12 16 l 1
 20 16 27 16 35 18 c 0
 54 22 65 36 68 49 c 0
 97 168 126 286 153 405 c 0
 174 497 195 590 214 682 c 0
 214.538348415 684.332843133 214.819079927 686.665686266 214.819079927 688.94652153 c 0
 214.819079927 699.37586725 208.94921875 708.717773438 196 712 c 0
 188.943053836 713.788717651 181 714 173 714 c 1
 177 730 l 1
 355 730 l 1
 351 715 l 1
 343 715 335 714 327 712 c 0
 308 708 298 696 295 682 c 0
 282 626 268 566 255 510 c 0
 248 482 242 454 236 428 c 0
 235.833333333 427.5 235.75 426.972222222 235.75 426.435185185 c 0
 235.75 423.75 237.833333333 420.833333333 242 420 c 0
 290.007156762 420 358.090282095 418 417 418 c 0
 477 418 554 419 604 420 c 0
 611.722099506 420 615.52350753 423.570522591 617 428 c 2
 675 682 l 2
 675.538348415 684.512292605 675.819079927 686.960180984 675.819079927 689.308993224 c 0
 675.819079927 700.049170419 669.94935898 708.717797887 656 712 c 0
 649 714 642 714 634 714 c 1
 638 730 l 1
 816 730 l 1
 812 714 l 1
 804 714 797 714 789 712 c 0
 771 708 760 697 756 683 c 0
 732 589 711 495 689 401 c 0
 662 283 635 165 609 47 c 0
 608.546573405 45.0351514233 608.321586452 43.0931468108 608.321586452 41.1981549709 c 0
 608.321586452 30.5553389557 615.418275171 21.3954312072 629 18 c 0
 636 16 643 16 651 16 c 1
 647 0 l 1
 469 0 l 1
 473 16 l 1
 481 16 488 16 496 18 c 0
 514 22 526 35 529 48 c 2
 603 370 l 2
 603.224744871 370.898979486 603.348469228 371.797958971 603.348469228 372.662882693 c 0
 603.348469228 377.38876976 600.117034534 379 594 379 c 0
 544 380 467 380 408 380 c 0
 348.640200182 380 280.438751062 379 232 379 c 0
 227 378 224 373 223 370 c 0
 214 334 206 298 198 262 c 0
 181 190 165 119 148 47 c 2
 147.753788749 45.399626867 147.628817458 43.814408729 147.628817458 42.2574052421 c 0
 147.628817458 31.1667049456 153.96969001 21.5075774975 168 18 c 0
EndSplineSet
Validated: 1
EndChar

StartChar: m
Encoding: 109 109 6
GlifName: m
Width: 789
VWidth: 0
Flags: W
HStem: -10.4502 49.3506<604.958 686.909> 0.200195 21G<-3.12012 72.6944 287.013 352.441 353.807 358.683> 469.7 33.5498<505.004 623.896> 470.45 42.0688<64.5859 136.065 227.551 351.932>
VStem: 575.028 70.9994<39.5216 154.568> 648.834 68.6427<277.752 450.056>
LayerCount: 2
Fore
SplineSet
592.979492188 139.700195312 m 2xac
 642.379882812 339.5 l 2
 646.703074285 357.528345232 648.833610293 373.997666846 648.833610293 388.705217457 c 0
 648.833610293 439.858498916 623.061191916 469.700195312 574.129882812 469.700195312 c 0xac
 539.479492188 469.700195312 498.9296875 468.349609375 445.379882812 401.150390625 c 1
 444.379882812 396.950195312 443.979047135 390.780991205 442.280273438 383.400390625 c 2
 354.080078125 0.2001953125 l 1
 353.533821045 0.200730493158 352.987563964 0.200989061475 352.441306884 0.200989061475 c 0
 282.030273438 0.2001953125 l 1
 369.879882812 352.849609375 l 2
 372.63425581 364.761568573 373.945276379 376.115706081 373.945276379 386.767022183 c 0
 373.945276379 440.016549478 341.178443045 475.700195312 292.1796875 475.700195312 c 0
 255.4296875 475.700195312 211.6796875 461 169.6796875 431.599609375 c 1
 67.9794921875 0.2001953125 l 1
 -3.1201171875 0.2001953125 l 1
 88.9794921875 378.049804688 l 2
 95.2802734375 404.299804688 103.6796875 444.325195312 103.6796875 451.700195312 c 7
 103.6796875 461.528320312 101.330078125 470.450195312 85.8798828125 470.450195312 c 4
 69.18359375 470.450195312 55.515625 457.944335938 40.1826171875 441.5 c 1
 30.732421875 453.049804688 l 1
 46.212890625 482.455078125 81.747868057 512.519045105 126.059081911 512.519045105 c 0x5c
 168.452053782 512.519045105 176.788158878 497.68081612 176.788158878 478.999192449 c 0
 176.788158878 471.954129587 176.08057595 464.837828172 174.77734375 458.900390625 c 1
 218.979492188 493.549804688 265.9296875 512.450195312 319.479492188 512.450195312 c 0
 373.030273438 512.450195312 420.280273438 488.299804688 433.9296875 425.299804688 c 1
 486.4296875 492.5 532.129882812 503.25 590.9296875 503.25 c 0
 653.420862815 503.25 717.47627435 466.492991724 717.47627435 387.05508364 c 0
 717.47627435 374.395316702 715.849408852 360.651549495 712.330078125 345.799804688 c 2
 659.780273438 130.25 l 2
 654.530273438 107.150390625 646.02734375 74.8232421875 646.02734375 62.0498046875 c 0
 646.02734375 54.7001953125 649.224609375 38.900390625 665.875 38.900390625 c 0
 684.248046875 38.900390625 696.325195312 42.0498046875 721.524414062 60.9501953125 c 1
 729.924804688 50.4501953125 l 1
 710.024414062 17.849609375 654.830078125 -10.4501953125 623.030273438 -10.4501953125 c 0
 586.885835999 -10.4501953125 575.027899057 7.82879581237 575.027899057 41.7078858676 c 0
 575.027899057 66.4059817381 583.619972585 99.138730294 592.979492188 139.700195312 c 2xac
EndSplineSet
Validated: 1
EndChar

StartChar: w
Encoding: 119 119 7
GlifName: w
Width: 687
VWidth: 0
Flags: W
HStem: 434 33.2291<379.202 399.409> 441.488 70.1126<543.11 621.077> 464.3 46.25<60.3982 137.059>
VStem: 103.12 67.9494<245.307 464.295> 325.264 51.6302<271.803 432.84> 411.832 17.8793<350.07 412.466> 622.402 26.585<359.955 437.346>
LayerCount: 2
Fore
SplineSet
217.635742188 72.349609375 m 1x3e
 224.259765625 83.3896484375 284.842773438 157.174804688 336.598632812 233.484375 c 1
 331.352168409 282.013150033 325.264352467 344.765507745 325.264352467 392.696742649 c 0
 325.264352467 432.081624343 332.204194398 455.959987484 340.38671875 461.97265625 c 0
 345.200527167 465.509930845 358.206213405 467.229128365 367.720225081 467.229128365 c 0x9e
 406.785696228 467.229128365 429.711442487 425.159724131 429.711442487 383.561914236 c 0
 429.711442487 343.075919613 404.933023526 297.399362972 386.133789062 265.982421875 c 1
 398.764648438 147.637695312 414.299804688 92.013671875 423.635742188 72.349609375 c 1
 435.044145349 91.3642039972 622.401946139 324.680881914 622.401946139 409.992891845 c 0
 622.401946139 427.520496122 611.189190762 441.487604987 596.315791316 441.487604987 c 0
 586.14240809 441.487604987 572.384802993 434.738477994 562.784006198 434.738477994 c 0
 547.108550558 434.738477994 536.066116831 452.80407316 536.066116831 466.874906407 c 0
 536.066116831 489.007084882 555.815475423 511.600241491 580.394003948 511.600241491 c 0x5e
 599.133981803 511.600241491 611.909382919 502.780302149 623.997070312 488.690429688 c 0
 641.716327932 468.03730539 648.986907664 442.045841995 648.986907664 414.657852152 c 0
 648.986907664 379.361987337 636.91165074 341.746717979 619.563476562 310.249023438 c 0
 566 213 500.613392741 126.542684964 418.185546875 0.849609375 c 0
 413.306845099 -6.58985510083 407.735351562 -11.5498046875 402.485351562 -11.5498046875 c 0
 396.28515625 -11.5498046875 391.656376468 -5.940018683 389.03515625 0.900390625 c 0
 369.645418541 51.5003903423 357.756835938 79.2783203125 340.974609375 194.83984375 c 1
 301.671875 135.697265625 259.669475006 75.8352771393 207.185546875 -0.150390625 c 0
 202.308427321 -7.21143196245 197.735351562 -11.5498046875 191.485351562 -11.5498046875 c 0
 187.28515625 -11.5498046875 181.806640625 -5.85546875 179.03515625 -0.099609375 c 0
 151.72265625 56.626953125 131.365234375 98.7822265625 111.735351562 277.450195312 c 0
 104.721086163 341.29550556 103.119928481 382.58152631 103.119928481 408.814306168 c 0
 103.119928481 429.53503243 105.23828125 441.862304688 105.23828125 447.5 c 3
 105.23828125 458.021484375 97.927734375 464.299804688 88.48828125 464.299804688 c 0
 69.69140625 464.299804688 57.923828125 456.694335938 36.541015625 439.150390625 c 1
 27.0908203125 450.700195312 l 1
 44.2007426961 480.999534786 78.2483720246 510.549804688 124.23828125 510.549804688 c 0
 149.87890625 510.549804688 170.911132812 501.1875 171.069335938 478 c 0
 171.239257812 452.993164062 171 396 178.78515625 306.650390625 c 0
 191.133789062 164.923828125 207.455078125 93.7919921875 217.635742188 72.349609375 c 1x3e
381.069335938 434 m 5
 377.685546875 408.694335938 376.89453125 388.959960938 376.89453125 368.444335938 c 3
 376.89453125 348.985351562 379.883137113 331.547319027 382.140625 306.67578125 c 1
 399.479291693 338.19913995 411.832121624 366.425781033 411.832121624 386.174150754 c 0
 411.832121624 402.982001992 393.739183118 433.951614873 381.069335938 434 c 5
EndSplineSet
Validated: 1
EndChar

StartChar: x
Encoding: 120 120 8
GlifName: x
Width: 599
VWidth: 0
Flags: W
HStem: -8.7595 38.0549<76.201 147.698> -6 49<418.919 490.272> 457.563 52.9395<454.808 527.927> 473.9 38.0996<138.63 235.433>
LayerCount: 2
Fore
SplineSet
186.971679688 81 m 0x80
 216 119 230 152 277.099609375 251 c 1
 259 342 213 436.678710938 194 458.900390625 c 0
 187.359375 466.666992188 175.038085938 473.900390625 166.038085938 473.900390625 c 0
 148.13671875 473.900390625 134.2578125 464.708984375 119.896484375 445 c 1
 110.236328125 456 l 1
 127.604240596 490.417345739 151.00390625 512 203.345703125 512 c 0x90
 267.520507812 512 310.4375 383.868164062 325.85546875 316 c 1
 376.9296875 400 391.81640625 426.655273438 431.881835938 467.666992188 c 0
 453.956054688 490.262695312 477.932617188 510.502929688 513.2890625 510.502929688 c 0
 542.564453125 510.502929688 567.350585938 495.595703125 567.350585938 466.34375 c 0
 567.350585938 449.021484375 556.40234375 425.33984375 531.807617188 425.33984375 c 0
 521.12109375 425.33984375 513.827148438 433.233398438 505.862304688 443.385742188 c 0
 498.752929688 452.452148438 492.099609375 457.563476562 482.748046875 457.563476562 c 0
 463.615234375 457.563476562 453.159179688 450.249023438 440.858398438 437.477539062 c 0
 401.833984375 396.961914062 383.008789062 369.995117188 336.658203125 286 c 0
 336.399414062 285.530273438 336.29296875 284.791992188 336.29296875 283.897460938 c 2
 336.29296875 280.966796875 337.432617188 276.35546875 338.078125 274 c 0
 360 194 376.119140625 148.610351562 414.736328125 70 c 0
 428 43 449.020507812 43 462.020507812 43 c 0
 479.518554688 43 490.83984375 46 513.758789062 64 c 1
 522.359375 54 l 1
 506.28125 20 467.038085938 -6 431.038085938 -6 c 0x60
 349.563476562 -6 310.615234375 148.083007812 292.021484375 217 c 1
 248 124 224 84 197.133789062 54 c 0
 165.540015649 18.7218938296 131.33610674 -8.7595017468 90.872325723 -8.7595017468 c 0
 61.5296583562 -8.7595017468 26.7032772437 10.9848165917 26.7032772437 38.7002904756 c 0
 26.7032772437 61.3725831433 43.5653594874 82.9025217192 67.1666489196 82.9025217192 c 0
 104.900377915 82.9025217192 86.5427916774 29.2954330633 122.862183867 29.2954330633 c 0
 141.260476262 29.2954330633 170.814467153 59.8494922413 186.971679688 81 c 0x80
EndSplineSet
Validated: 1
EndChar

StartChar: X
Encoding: 88 88 9
GlifName: X_
Width: 674
VWidth: 0
Flags: W
HStem: 0 16<-24 13.7762 78.7441 110 400 434.89 550.789 583> 714 16<158 186.287 304.074 342 586 616.131 684.055 720>
LayerCount: 2
Fore
SplineSet
155 714 m 1
 158 730 l 1
 346 730 l 1
 342 714 l 1
 314.940429688 714 292.803710938 709.176757812 292.803710938 681.754882812 c 0
 292.803710938 675.545898438 294.849609375 667.9453125 298 660 c 2
 388 433 l 1
 591 656 l 2
 609.409179688 676.455078125 618.309570312 686.0859375 618.309570312 699.924804688 c 3
 618.309570312 712.829101562 595.674804688 714 582 714 c 1
 586 730 l 1
 723 730 l 1
 720 714 l 1
 685.469726562 714 673.748046875 701.198242188 652 678 c 2
 401 400 l 1
 408 381 l 2
 461 242 514 100 541 39 c 0
 549.799804688 17.880859375 560.598632812 16 587 16 c 1
 583 0 l 1
 396 0 l 1
 400 16 l 1
 420.79296875 16 439.668945312 19.232421875 444 38 c 0
 444.516601562 39.80859375 444.766601562 42.8837890625 444.766601562 45.208984375 c 0
 444.766601562 51.8837890625 442.708007812 59.6171875 439 70 c 2
 338 332 l 1
 105 74 l 1
 87 55 79 43 77 35 c 0
 76.62890625 33.640625 76.45703125 31.3876953125 76.45703125 30.232421875 c 0
 76.45703125 19.708984375 91.8623046875 15.75 103.125 15.75 c 0
 106.5 15.75 110 16 114 16 c 1
 110 0 l 1
 -28 0 l 1
 -24 16 l 1
 13.3505859375 16 21.54296875 28.0458984375 44 52 c 2
 325 365 l 1
 274 498 223 632 197 690 c 0
 188.9921875 709.217773438 178.116210938 714 155 714 c 1
EndSplineSet
EndChar

StartChar: d
Encoding: 100 100 10
GlifName: d
Width: 540
VWidth: 0
Flags: W
HStem: -6.7998 28.3496<162.827 278.888> 489.85 22.0508<282.587 375.508> 730.101 13.6494<444.325 463.021> 753.15 20G<557.7 559.591>
VStem: 40.2796 72.3125<63.2983 290.255> 474.119 87.9427<675.591 769.704>
LayerCount: 2
Fore
SplineSet
425.260742188 44.650390625 m 5
 425.260742188 20.5 l 5
 394.810546875 5.7998046875 359.610351562 -6.7998046875 336.510742188 -6.7998046875 c 4
 322.33508298 -6.7998046875 318.791442864 4.42276005471 318.791442864 16.235321075 c 4
 318.791442864 21.8455830473 319.760742188 26.5647521407 320.760742188 32.0498046875 c 5
 319.709960938 31 l 4
 318.66015625 29.9501953125 316.560546875 28.900390625 315.510742188 27.849609375 c 4
 279.810546875 3.7001953125 245.16015625 -9.9501953125 200.010742188 -9.9501953125 c 4
 109.671183002 -9.9501953125 40.2796185962 39.6350747889 40.2796185962 159.601453798 c 4
 40.2796185962 374.678328407 166.942601094 511.900390625 317.610351562 511.900390625 c 7
 357.510742188 511.900390625 392.16015625 502.450195312 421.560546875 467.799804688 c 5
 471.625 686 l 6
 473.2989296 692.695718398 474.118864347 698.644265761 474.118864347 703.811581982 c 4
 474.118864347 714.850688163 470.376750176 722.324320225 463.224609375 725.900390625 c 4
 459.024414062 728 445.375 730.100585938 441.174804688 730.100585938 c 5
 444.325195312 743.75 l 5
 534.325195312 766.850585938 l 4
 553.625 772 l 6
 554.581054688 772.298828125 557.174804688 773.150390625 558.224609375 773.150390625 c 7
 560.957191838 773.150390625 562.061523438 770.9921875 562.061523438 768.415039062 c 4
 562.061523438 765.349609375 560.817164479 760.219264545 559.325195312 754.25 c 6
 399.010742188 64.599609375 l 6
 392.709960938 36.25 l 5
 403.209960938 38.349609375 413.709960938 41.5 425.260742188 44.650390625 c 5
403.560546875 377.5 m 5
 403.899883976 384.288004665 404.094695316 390.917538897 404.094695316 397.343948378 c 4
 404.094695316 450.56154583 390.735263952 489.849609375 335.459960938 489.849609375 c 7
 203.576863666 489.849609375 112.592107912 322.079708791 112.592107912 152.769460563 c 4
 112.592107912 70.934395492 143.899795058 21.5498046875 223.110351562 21.5498046875 c 7
 252.510742188 21.5498046875 323.91015625 45.7001953125 332.310546875 69.849609375 c 5
 403.560546875 377.5 l 5
EndSplineSet
Validated: 1
EndChar

StartChar: f
Encoding: 102 102 11
GlifName: f
Width: 462
VWidth: 0
Flags: W
HStem: -179.2 24.1504<-110.941 -34.3283> 453.299 37.8008<90.8496 126.55 204 318.449> 746.775 22.0498<332.097 403.909>
LayerCount: 2
Fore
SplineSet
126.549804688 453.298828125 m 1
 100.299804688 453.298828125 75.099609375 449.099609375 75.099609375 449.099609375 c 1
 90.849609375 486.899414062 l 1
 133.899414062 486.899414062 l 1
 133.899414062 486.899414062 138.295965333 504.272554896 142.717773438 524.174804688 c 0
 144.817382812 533.625 147.967773438 544.125 150.067382812 552.525390625 c 0
 195.217773438 711.075195312 281.067382812 768.825195312 393.41796875 768.825195312 c 0
 430.16796875 768.825195312 473.217773438 755.174804688 497.3671875 703.724609375 c 0
 498.597800756 701.87954766 499.107468033 700.034150778 499.107468033 698.188811439 c 0
 499.107468033 681.424434804 472.681056996 670.125 458.517578125 670.125 c 0
 408.1171875 670.125 437.517578125 746.775390625 370.317382812 746.775390625 c 0
 304.16796875 746.775390625 245.104745191 665.164174757 217.017578125 546.224609375 c 2
 204 491.099609375 l 1
 204 491.099609375 297.44921875 491.099609375 307.94921875 491.099609375 c 0
 324.297615141 491.099609375 330.432999633 487.171640283 330.432999633 480.674489904 c 0
 330.432999633 475.560456815 328.301086661 470.903141397 325.799804688 465.899414062 c 2
 318.44921875 449.099609375 l 1
 313.19921875 449.099609375 236.549804688 453.298828125 198.75 453.298828125 c 1
 103 15 l 2
 72.0823308735 -126.526664715 15.8994140625 -179.200195312 -96.4501953125 -179.200195312 c 0
 -133.200195312 -179.200195312 -177.299804688 -166.599609375 -202.5 -120.400390625 c 0
 -204.037776125 -118.094083893 -205.012410618 -115.225158896 -205.012410618 -112.617750776 c 0
 -205.012410618 -97.6620897056 -179.109605009 -87.849609375 -165.75 -87.849609375 c 0
 -115.350585938 -87.849609375 -141.600585938 -155.049804688 -74.400390625 -155.049804688 c 0
 -8.25 -155.049804688 18.3028506645 -84.8978346276 39.25 19.25 c 2
 126.549804688 453.298828125 l 1
EndSplineSet
EndChar

StartChar: j
Encoding: 106 106 12
GlifName: j
Width: 325
VWidth: 0
Flags: W
HStem: -165.7 48.2998<-130.577 -5.5368> 464.3 47.25<134.316 218.757> 624.625 91.5996<201.356 265.695>
VStem: 176.666 71.9775<354.952 464.295> 187.804 89.9463<636.999 703.068>
LayerCount: 2
Fore
SplineSet
241.862304688 716.224609375 m 0xe8
 262.536132812 716.224609375 277.75 701.568359375 277.75 680.22265625 c 0
 277.75 646.00390625 247.994140625 624.625 221.8125 624.625 c 0
 201.448242188 624.625 187.803710938 636.712890625 187.803710938 656.872070312 c 0
 187.803710938 690.880859375 215.74609375 716.224609375 241.862304688 716.224609375 c 0xe8
227.860351562 359.299804688 m 0
 163.810546875 81.0498046875 l 2
 160.66015625 66.349609375 156.459960938 51.650390625 153.310546875 36.9501953125 c 0
 140.709960938 -16.599609375 121.810546875 -51.25 73.5107421875 -94.2998046875 c 0
 42.0107421875 -121.599609375 -27.0400390625 -165.700195312 -97.3896484375 -165.700195312 c 3
 -117.33984375 -165.700195312 -137.290039062 -161.5 -157.239257812 -153.099609375 c 0
 -162.57421875 -150.814453125 -164.037109375 -147.421875 -164.037109375 -143.325195312 c 0
 -164.037109375 -115.388671875 -123.08203125 -92.2001953125 -100.540039062 -92.2001953125 c 3
 -72.189453125 -92.2001953125 -56.439453125 -117.400390625 -29.1396484375 -117.400390625 c 3
 -20.7392578125 -117.400390625 -10.2392578125 -114.25 0.2607421875 -109 c 0
 56.9599609375 -80.650390625 65.3603515625 -48.099609375 81.1103515625 20.150390625 c 2
 155.162109375 340.400390625 l 0
 161.959960938 369.799804688 l 2
 167.209960938 393.950195312 176.390625 434.728515625 176.66015625 447.5 c 0
 176.6640625 447.673828125 176.666015625 447.845703125 176.666015625 448.016601562 c 0
 176.666015625 458.206054688 170.204101562 464.299804688 160.91015625 464.299804688 c 0
 142.114257812 464.299804688 130.346679688 457.694335938 108.962890625 440.150390625 c 1
 99.5126953125 451.700195312 l 1
 118.020507812 484.474609375 155.620117188 511.549804688 205.810546875 511.549804688 c 0
 231.703125 511.549804688 248.643554688 502.083007812 248.643554688 478.454101562 c 0xf0
 248.643554688 453.2109375 237.0234375 399.442382812 227.860351562 359.299804688 c 0
EndSplineSet
Validated: 1
EndChar

StartChar: g
Encoding: 103 103 13
GlifName: g
Width: 484
VWidth: 0
Flags: W
HStem: -271.65 26.25<26.1076 174.1> 440.25 68.25<386.075 455.909> 481.2 30.4502<204.879 308.908>
VStem: -80.1609 65.4214<-220.095 -123.544> 3.03987 92.7472<10.1242 50.5296> 45.6133 72.209<161.84 362.589> 300.441 56.6447<-146.481 -61.2659> 336.156 63.177<252.745 442.327>
LayerCount: 2
Fore
SplineSet
300.44108391 -106.335110851 m 0x92
 300.44108391 -45.6117735593 231.892692393 -39.773307702 164.185546875 -32.25 c 0
 162.0859375 -32.25 156.536132812 -31.2001953125 156.536132812 -31.2001953125 c 1
 72.6123046875 -56.017578125 -14.739512068 -84.3986780463 -14.739512068 -172.912772701 c 0
 -14.739512068 -222.444984213 32.2345470437 -245.400390625 90.685546875 -245.400390625 c 3
 179.768590185 -245.400390625 300.44108391 -198.109415597 300.44108391 -106.335110851 c 0x92
194.635742188 136.799804688 m 0
 298.814830103 136.799804688 336.155616757 280.713646224 336.155616757 392.750560474 c 0
 336.155616757 453.775243468 310.304170517 481.200195312 251.3359375 481.200195312 c 0
 159.248421307 481.200195312 117.822265625 342.92578125 117.822265625 241.908203125 c 0xb5
 117.822265625 179.203125 140.73307535 136.799804688 194.635742188 136.799804688 c 0
84.3857421875 -271.650390625 m 0
 -0.0299633825876 -271.650390625 -80.1609122917 -253.657121999 -80.1609122917 -187.487446884 c 0
 -80.1609122917 -81.5331661197 59.4104444029 -48.5599100969 131.635742188 -27 c 1
 96.986328125 -24.900390625 68.6357421875 -20.7001953125 48.685546875 -15.4501953125 c 0
 24.52870932 -9.65273403767 3.0398725231 1.48072875338 3.0398725231 18.7675968338 c 0xda
 3.0398725231 64.9027209601 129.041107599 92.6461044196 159.986328125 104.25 c 1
 103.448621844 108.533111281 45.61328125 149.56640625 45.61328125 246.70703125 c 0
 45.61328125 410.303170082 151.734223934 511.650390625 269.185546875 511.650390625 c 0xb4
 304.885742188 511.650390625 341.536132812 501.150390625 364.635742188 474.900390625 c 1
 398.236328125 495.900390625 426.5859375 508.5 463.3359375 508.5 c 0
 469.18524963 508.5 472.374758109 503.179155582 472.374758109 495.184514023 c 0
 472.374758109 465.698926182 435.023500817 440.25 406.635742188 440.25 c 3
 400.3359375 440.25 392.986328125 441.299804688 385.635742188 443.400390625 c 1
 394.061035045 423.540811726 399.332619461 398.852668136 399.332619461 368.544996888 c 0xd5
 399.332619461 121.904291474 224.526801998 115.960524292 108.536132812 60.150390625 c 0
 102.286322134 57.1432283095 95.787109375 52.23828125 95.787109375 45.7548828125 c 0
 95.787109375 36.7255859375 105.385742188 35.5625 111.486328125 33.900390625 c 0
 116.942382812 32.4140625 137.655273438 30.07421875 151.036132812 28.7998046875 c 0
 176.354492188 26.388671875 197.952745719 26.253428982 226.135742188 24.4501953125 c 0
 304.680617051 19.4246557792 357.085824892 -5.72391624957 357.085824892 -67.3282044366 c 0xda
 357.085824892 -203.377154243 195.347439445 -271.650390625 84.3857421875 -271.650390625 c 0
EndSplineSet
Validated: 1
EndChar

StartChar: q
Encoding: 113 113 14
GlifName: q
Width: 540
VWidth: 0
Flags: W
HStem: -9.59961 38.8496<172.94 293.333> 489.15 23.0996<261.606 359.1>
VStem: 39.7925 77.0908<84.2931 310.98>
LayerCount: 2
Fore
SplineSet
241.55859375 29.25 m 3
 266.7578125 29.25 296.158203125 34.5 330.80859375 52.349609375 c 1
 416.541992188 407.25 l 0
 417.053042666 408.783626832 417.290317146 409.807655397 417.290317146 410.702760481 c 0
 417.290317146 411.646388659 417.026620392 412.446736768 416.541992188 413.549804688 c 0
 397.642578125 456.599609375 363.358398438 489.150390625 309.80859375 489.150390625 c 3
 198.018699193 489.150390625 116.883319716 337.595353226 116.883319716 180.642684503 c 0
 116.883319716 95.8542039864 150.716495078 29.25 241.55859375 29.25 c 3
500.658203125 533.450195312 m 6
 502.891601562 535.27734375 505.7578125 536.549804688 506.80859375 536.549804688 c 7
 508.638671875 536.549804688 511.759765625 535.421875 511.759765625 532.166992188 c 4
 511.759765625 529.099609375 510.177734375 521.927734375 508.858398438 516.650390625 c 0
 332 -232 l 1
 264.100585938 -232 l 1
 322.458007812 22.9501953125 l 1
 285.708007812 4.0498046875 246.80859375 -9.599609375 203.7578125 -9.599609375 c 3
 108.428333001 -9.599609375 39.7925360191 52.9186702125 39.7925360191 171.061777183 c 0
 39.7925360191 382.139317043 161.51153951 512.25 321.358398438 512.25 c 3
 354.958007812 512.25 402.892578125 497.549804688 434.392578125 463.950195312 c 1
 439.642578125 483.900390625 l 1
 500.658203125 533.450195312 l 6
EndSplineSet
Validated: 1
EndChar

StartChar: p
Encoding: 112 112 15
GlifName: p
Width: 527
VWidth: 0
Flags: W
HStem: -10.0254 23.1006<162.964 259.755> 465.925 46.0498<80.0851 166.014> 480.325 31.5<254.816 352.066>
VStem: 124.829 73.2959<414.456 495.467> 402.896 76.0146<198.215 435.147>
LayerCount: 2
Fore
SplineSet
110.075195312 377.424804688 m 6xb8
 113.055664062 389.9453125 124.829101562 436.01953125 124.829101562 451.483398438 c 4
 124.829101562 461.72265625 115.416992188 465.924804688 106.075195312 465.924804688 c 4
 89.2783203125 465.924804688 76.7294921875 459.119140625 55.345703125 441.575195312 c 5
 45.896484375 453.125 l 5
 64.72265625 486.462890625 101.736328125 511.974609375 153.193359375 511.974609375 c 4xd8
 178.833984375 511.974609375 198.125 501.563476562 198.125 482.575195312 c 4
 198.125 479.112304688 195.9375 455.46484375 193.724609375 448.825195312 c 5
 230.474609375 487.674804688 270.525390625 511.825195312 315.674804688 511.825195312 c 4
 404.6640625 511.825195312 478.911132812 462.381835938 478.911132812 340.581054688 c 4
 478.911132812 113.129882812 348.232421875 -10.025390625 197.025390625 -10.025390625 c 7
 163.424804688 -10.025390625 125.625 -0.5751953125 94.125 27.775390625 c 5
 26.94921875 -232 l 5
 -35 -232 l 5
 110.075195312 377.424804688 l 6xb8
187.474609375 419.424804688 m 5
 116.174804688 121.224609375 l 5
 120.375 63.474609375 141.375 13.0751953125 210.674804688 13.0751953125 c 4
 321.342773438 13.0751953125 402.896484375 175.327148438 402.896484375 340.533203125 c 4
 402.896484375 421.509765625 372.6796875 480.325195312 294.625 480.325195312 c 7xb8
 267.325195312 480.325195312 227.375 454.075195312 187.474609375 419.424804688 c 5
EndSplineSet
Validated: 1
EndChar

StartChar: o
Encoding: 111 111 16
GlifName: o
Width: 486
VWidth: 0
Flags: W
HStem: -10.375 31.5<125.331 243.291> 479.875 31.5<214.403 336.187>
VStem: 12.6758 71.1456<55.0461 282.012> 376.484 69.4179<219.703 446.003>
LayerCount: 2
Fore
SplineSet
179.075195312 -10.375 m 7
 84.2764540978 -10.375 12.6757957185 27.8343162709 12.6757957185 147.154801512 c 4
 12.6757957185 351.564493226 148.08636329 511.375 283.025390625 511.375 c 7
 375.410217444 511.375 445.901550459 471.759019802 445.901550459 352.658915755 c 4
 445.901550459 148.390910024 320.244620529 -10.375 179.075195312 -10.375 c 7
83.8213901784 136.663879234 m 4
 83.8213901784 64.6199076113 110.998637635 21.125 190.625976562 21.125 c 4
 310.696539139 21.125 376.483687279 235.12201187 376.483687279 367.976247689 c 4
 376.483687279 437.732197311 349.638450994 479.875 268.325195312 479.875 c 4
 143.936757082 479.875 83.8213901784 268.776291892 83.8213901784 136.663879234 c 4
EndSplineSet
Validated: 1
EndChar

StartChar: I
Encoding: 73 73 17
GlifName: I_
Width: 309
VWidth: 0
Flags: W
HStem: 0 16<-18 19.8066 138.328 156> 714 16<147 177.401 282.022 321>
LayerCount: 2
Fore
SplineSet
138 18 m 4
 145 16 152 16 160 16 c 5
 156 0 l 5
 -22 0 l 5
 -18 16 l 5
 -10 16 -3 16 5 18 c 4
 24 22 35 36 38 49 c 4
 66 164 92 279 119 394 c 4
 141 490 163 586 184 682 c 6
 184.538085938 684.333007812 184.819335938 686.666015625 184.819335938 688.946289062 c 4
 184.819335938 699.375976562 178.94921875 708.717773438 165 712 c 4
 158 714 151 714 143 714 c 5
 147 730 l 5
 325 730 l 5
 321 714 l 5
 313 714 305.12109375 713.432617188 297 712 c 4
 280 709 268 696 265 683 c 4
 241 587 218 490 196 394 c 4
 169 279 144 164 119 49 c 4
 118.504882812 46.853515625 118.254882812 44.6787109375 118.254882812 42.5263671875 c 4
 118.254882812 31.6484375 124.642578125 21.33984375 138 18 c 4
EndSplineSet
Validated: 1
EndChar

StartChar: y
Encoding: 121 121 18
GlifName: y
Width: 479
VWidth: 0
Flags: W
HStem: 465.925 46.25<64.071 142.062>
VStem: 396.572 55.5<424.937 510.782>
LayerCount: 2
Fore
SplineSet
127.989257812 279.075195312 m 1
 125.786132812 305.325195312 109.122070312 435.353515625 106.241210938 448.125 c 0
 103.930664062 458.370117188 98.94140625 465.924804688 89.4912109375 465.924804688 c 0
 70.6953125 465.924804688 60.927734375 458.319335938 39.5439453125 440.775390625 c 1
 30.0947265625 452.325195312 l 1
 47.4264599276 483.017331788 82.6179397566 512.174804688 129.241210938 512.174804688 c 0
 154.8828125 512.174804688 173.9765625 502.717773438 176.073242188 479.625 c 0
 178.34375 454.618164062 189.739257812 350.474609375 191.838867188 304.275390625 c 1
 199.189453125 222.375 197.189453125 132.075195312 199.2890625 110.025390625 c 1
 219.239257812 133.125 274.888671875 208.724609375 323.189453125 293.775390625 c 0
 371.473632812 378.797851562 386.083007812 425.05859375 387.072265625 431.325195312 c 0
 390.22265625 451.275390625 392.372070312 465.974609375 396.572265625 489.075195312 c 0
 398.97265625 502.279296875 413.219726562 512.040039062 426.4765625 512.040039062 c 0
 446.302734375 512.040039062 452.072265625 493.8046875 452.072265625 477.575195312 c 0
 452.072265625 463.924804688 433.229492188 431.0546875 427.872070312 419.775390625 c 0
 407.921875 377.775390625 411.189453125 378.825195312 353.439453125 278.025390625 c 0
 304.10546875 191.916015625 243.088867188 116.325195312 203.189453125 50.1748046875 c 0
 178.431640625 9.1298828125 146.838867188 -47.4248046875 132.138671875 -67.375 c 0
 102.739257812 -108.325195312 -4.2109375 -251.174804688 -55.6611328125 -251.174804688 c 3
 -62.3417834096 -251.174804688 -65.6066832902 -243.204101894 -65.6066832902 -234.658809603 c 0
 -65.6066832902 -223.323084508 -60.2688082161 -212.391132057 -56.560546875 -204.974609375 c 0
 -26.111328125 -150.375 17.9892578125 -155.625 57.888671875 -113.625 c 24
 77.8388671875 -92.625 119.689453125 -28.5751953125 130.189453125 -8.625 c 1
 134.912938112 3.18347805114 137.467562111 35.4793195001 137.467562111 82.4247521691 c 0
 137.467562111 133.265144663 134.471449828 201.286860206 127.989257812 279.075195312 c 1
EndSplineSet
Validated: 1
EndChar

StartChar: v
Encoding: 118 118 19
GlifName: v
Width: 515
VWidth: 0
Flags: W
HStem: 441.488 70.1126<332.11 410.128> 464.3 46.25<62.6975 140.059>
VStem: 104.674 69.4114<229.17 461.463> 411.453 26.5341<360.038 437.332>
LayerCount: 2
Fore
SplineSet
214.635742188 75.349609375 m 5x70
 226.034614008 94.3483179358 411.452801847 324.836867825 411.452801847 409.855627832 c 4
 411.452801847 427.414749444 400.246753659 441.487604987 385.315791316 441.487604987 c 4
 375.14240809 441.487604987 361.384802993 434.738477994 351.784006198 434.738477994 c 4
 336.108550558 434.738477994 325.066116831 452.80407316 325.066116831 466.874906407 c 4
 325.066116831 489.007084882 344.815475423 511.600241491 369.394003948 511.600241491 c 4xb0
 388.133981803 511.600241491 400.909382919 502.780302149 412.997070312 488.690429688 c 4
 430.716327932 468.03730539 437.986907664 442.045841995 437.986907664 414.657852152 c 4
 437.986907664 379.361987337 425.91165074 341.746717979 408.563476562 310.249023438 c 4
 355 213 293.424395189 120.311783768 204.185546875 -0.150390625 c 4
 198.24609375 -8.16796875 194.735351562 -11.5498046875 187.485351562 -11.5498046875 c 7
 183.28515625 -11.5498046875 177.806640625 -5.85546875 175.03515625 -0.099609375 c 4
 147.72265625 56.626953125 132.365234375 98.7822265625 112.735351562 277.450195312 c 4
 106.279541834 336.212325267 104.673617871 375.864376651 104.673617871 402.258519754 c 4
 104.673617871 427.193370609 107.23828125 440.293945312 107.23828125 446.5 c 7
 107.23828125 457.021484375 98.927734375 464.299804688 89.48828125 464.299804688 c 4
 70.69140625 464.299804688 59.923828125 456.694335938 38.541015625 439.150390625 c 5
 29.0908203125 450.700195312 l 5
 46.4524827834 481.445332154 80.4779594285 510.549804688 127.23828125 510.549804688 c 4
 152.87890625 510.549804688 174.069335938 501.188039686 174.069335938 478 c 7
 174.069335938 472.70757992 174.084969491 461.463451783 174.084969491 461.463451783 c 6
 174.084969491 431.517153499 174.395757703 379.981001595 180.78515625 306.650390625 c 4
 193.133789062 164.923828125 204.455078125 96.7919921875 214.635742188 75.349609375 c 5x70
EndSplineSet
Validated: 1
EndChar

StartChar: u
Encoding: 117 117 20
GlifName: u
Width: 513
VWidth: 0
Flags: W
HStem: -9.59961 33.5996<135.519 233.992> -7.5 21G<303.912 324.46> 464.75 47.25<62.0543 141.82>
VStem: 27.2061 73.1641<52.9535 164.429> 104.855 72.9766<368.158 464.746>
LayerCount: 2
Fore
SplineSet
89.099609375 368.150390625 m 6xb8
 94.349609375 392.30078125 104.580078125 435.178710938 104.849609375 447.950195312 c 4
 104.853515625 448.124023438 104.85546875 448.295898438 104.85546875 448.466796875 c 4
 104.85546875 458.65625 98.3935546875 464.75 89.099609375 464.75 c 4
 70.3037109375 464.75 58.5361328125 458.14453125 37.15234375 440.600585938 c 5
 27.7021484375 452.150390625 l 5
 45.537109375 483.732421875 80.7958984375 512 129 512 c 4
 154.640625 512 177.673828125 509.637695312 177.831054688 479.450195312 c 4
 177.83203125 479.33984375 177.83203125 479.228515625 177.83203125 479.1171875 c 4
 177.83203125 453.94140625 163.307617188 397.374023438 153.899414062 357.650390625 c 6
 104.53515625 154.200195312 l 6
 101.711914062 142.202148438 100.370117188 130.560546875 100.370117188 119.493164062 c 4
 100.370117188 64.69921875 133.266601562 24 182.185546875 24 c 4xb8
 214.735351562 24 252.935546875 35.5498046875 298.0859375 67.0498046875 c 5
 407.735351562 502.799804688 l 5
 469.885742188 502.799804688 l 5
 469.885742188 502.799804688 366.0859375 57.599609375 361.885742188 38.7001953125 c 5
 372.385742188 40.7998046875 383.935546875 43.9501953125 395.485351562 47.099609375 c 5
 395.485351562 19.7998046875 l 5
 363.985351562 5.099609375 336.53515625 -7.5 312.385742188 -7.5 c 4x78
 295.4375 -7.5 291.624023438 7.1953125 291.624023438 19.1689453125 c 4
 291.624023438 28.2451171875 292.932617188 34.439453125 294.78515625 41.849609375 c 5
 245.435546875 8.25 208.53515625 -9.599609375 150.78515625 -9.599609375 c 4
 88.515625 -9.599609375 27.2060546875 19.875 27.2060546875 96.8251953125 c 4
 27.2060546875 109.405273438 28.8447265625 123.25390625 32.3857421875 138.450195312 c 6
 89.099609375 368.150390625 l 6xb8
EndSplineSet
Validated: 1
EndChar

StartChar: n
Encoding: 110 110 21
GlifName: n
Width: 519
VWidth: 0
Flags: W
HStem: -10.4502 48.3506<332.814 416.94> 0.200195 21G<-2.5752 74.1491> 470.75 41.7002<64.4417 149.854 244.55 352.028>
VStem: 104 73.3828<403.013 486.761> 305.874 69.999<38.2462 153.957> 380.764 68.2002<327.989 441.463>
LayerCount: 2
Fore
SplineSet
170.275390625 432.650390625 m 1x7c
 197.338867188 465.958984375 257.659179688 512.4609375 318.969726562 512.4609375 c 0
 382.896484375 512.4609375 448.963867188 475.369140625 448.963867188 394.724609375 c 0
 448.963867188 382.4921875 447.448242188 369.244140625 444.174804688 354.950195312 c 2
 390.625 130.25 l 2
 385.375 107.150390625 375.873046875 73.8232421875 375.873046875 61.0498046875 c 0
 375.873046875 53.7001953125 382.0703125 37.900390625 395.719726562 37.900390625 c 0
 414.092773438 37.900390625 427.169921875 42.0498046875 452.370117188 60.9501953125 c 1
 460.770507812 50.4501953125 l 1
 441.870117188 16.849609375 383.674804688 -10.4501953125 345.875 -10.4501953125 c 0xbc
 319.75390625 -10.4501953125 305.874023438 7.90234375 305.874023438 41.7041015625 c 0
 305.874023438 66.40234375 314.517578125 99.13671875 323.825195312 139.700195312 c 2
 377.275390625 353.900390625 l 2
 379.645507812 364.185546875 380.763671875 373.973632812 380.763671875 383.190429688 c 0
 380.763671875 437.127929688 342.444335938 471.5 292.225585938 471.5 c 0
 261.775390625 471.5 205.025390625 447.349609375 161.975585938 400.099609375 c 1
 69.525390625 0.2001953125 l 1
 -2.5751953125 0.2001953125 l 1
 89.5751953125 378.049804688 l 2
 96.521333187 406.530164027 104 443.083007812 104 455 c 3
 104 464.828125 96.6494140625 470.75 87.2001953125 470.75 c 3
 70.5029296875 470.75 57.111328125 457.944335938 40.7783203125 441.5 c 1
 31.328125 453.049804688 l 1
 49.4163518874 485.082585075 80.373046875 512.450195312 129.424804688 512.450195312 c 3
 170.284179688 512.450195312 177.3828125 497.049804688 177.3828125 476.471679688 c 0
 177.3828125 466.651367188 177.192382812 459.165039062 170.275390625 432.650390625 c 1x7c
EndSplineSet
EndChar

StartChar: b
Encoding: 98 98 22
GlifName: b
Width: 521
VWidth: 0
Flags: W
HStem: -9.9502 23.1006<-1 26.8672 150.302 257.873> 480.4 31.5<243.119 357.815> 730.95 13.6494<158.65 177.347> 753 20G<263.475 265.625>
VStem: 188.76 81.0857<669.993 769.8> 402.369 70.3159<213.766 439.531>
LayerCount: 2
Fore
SplineSet
203.5 472 m 1
 240.25 498.25 269.900390625 511.900390625 316.099609375 511.900390625 c 0
 407.686935412 511.900390625 472.684558544 460.936392672 472.684558544 334.229316421 c 0
 472.684558544 137.272122778 350.699642344 -9.9501953125 194.299804688 -9.9501953125 c 3
 158.599609375 -9.9501953125 132.75 -1.5498046875 102.299804688 24.7001953125 c 1
 76.1146557427 4.66528145458 54.6144816252 -3.650390625 -5.2001953125 -3.650390625 c 1
 -1 16.2998046875 l 1
 20.5289523895 16.2998046875 33.2940985567 24.2152503225 36.7998046875 39.400390625 c 2
 187 690 l 2
 188.123575931 694.855587818 188.760019599 699.665309597 188.760019599 704.165220455 c 0
 188.760019599 714.224500583 185.579588777 722.735596236 177.55078125 726.75 c 0
 173.350585938 728.849609375 159.700195312 730.950195312 155.5 730.950195312 c 1
 158.650390625 744.599609375 l 1
 255.450195312 770.950195312 l 2
 257.607421875 771.541992188 261.94921875 773 265 773 c 3
 266.25 773 269.845703125 772.190429688 269.845703125 767.41015625 c 0
 269.845703125 764.13671875 269.062234091 760.384973024 267.600585938 754.049804688 c 2
 203.5 472 l 1
114.400390625 99.25 m 1
 114.036347669 95.2455274827 113.85453441 91.3824192691 113.85453441 87.6603250172 c 0
 113.85453441 37.7047021362 146.605158165 13.150390625 211.099609375 13.150390625 c 0
 327.821474401 13.150390625 402.368665157 216.445095545 402.368665157 355.236959062 c 0
 402.368665157 436.781805874 372.959008735 480.400390625 294.049804688 480.400390625 c 3
 267.799804688 480.400390625 237.099609375 468.849609375 197.200195312 446.799804688 c 1
 114.400390625 99.25 l 1
EndSplineSet
Validated: 1
EndChar

StartChar: h
Encoding: 104 104 23
GlifName: h
Width: 502
VWidth: 0
Flags: W
HStem: -9.97461 47.3496<329.364 412.268> -0.325195 21G<3.58008 76.2848> 476.375 32.5498<243.943 338.066> 731.899 13.6504<139.649 158.345> 753.949 20G<243.174 244.824>
VStem: 169.8 79.1885<671.948 771.257> 298.328 69.9994<37.3858 151.186> 369.943 70.5201<279.935 451.14>
LayerCount: 2
Fore
SplineSet
316.280273438 136.174804688 m 2xbf
 365.629882812 349.325195312 l 2
 368.544105364 361.911980875 369.943057118 374.006451889 369.943057118 385.391532128 c 0
 369.943057118 438.642992082 339.337972571 476.375 290.030273438 476.375 c 0
 258.530273438 476.375 225.979492188 462.830078125 164.030273438 396.6796875 c 1
 71.6298828125 -0.3251953125 l 1
 3.580078125 -0.3251953125 l 1x7f
 168 692 l 2
 169.199731235 697.39962758 169.799804688 703.19921875 169.799804688 707.423828125 c 0
 169.799804688 717.984375 166.049918585 723.949161801 158.549804688 727.69921875 c 0
 154.349609375 729.799804688 139.649414062 731.899414062 135.44921875 731.899414062 c 1
 139.649414062 745.549804688 l 1
 235.549804688 771.899414062 l 2
 237.711199069 772.49327919 242.649414062 773.94921875 243.69921875 773.94921875 c 0
 245.948242188 773.94921875 248.98828125 773.143554688 248.98828125 769.370117188 c 0
 248.98828125 766.096679688 248.205724513 761.341859984 246.75 755 c 2
 171.379882812 429.125 l 1
 228.080078125 494.224609375 260.629882812 508.924804688 314.1796875 508.924804688 c 0
 376.818479306 508.924804688 440.463175922 471.303380848 440.463175922 391.175038475 c 0
 440.463175922 378.624165819 438.901691163 365.03041121 435.530273438 350.375 c 2
 382.080078125 126.724609375 l 2
 376.830078125 103.625 368.327148438 72.2978515625 368.327148438 59.525390625 c 0
 368.327148438 52.1748046875 374.524414062 37.375 388.174804688 37.375 c 0
 406.547851562 37.375 418.625 40.525390625 443.825195312 59.4248046875 c 1
 452.224609375 46.9248046875 l 1
 433.325195312 17.3251953125 380.129882812 -9.974609375 342.330078125 -9.974609375 c 0
 316.397460938 -9.974609375 298.555664062 4.037109375 298.330078125 37.474609375 c 0
 298.328492909 37.709842388 298.327703745 37.9458133719 298.327703745 38.1825221479 c 0
 298.327703745 62.8815488874 306.919786494 95.613339461 316.280273438 136.174804688 c 2xbf
EndSplineSet
Validated: 1
EndChar

StartChar: t
Encoding: 116 116 24
GlifName: t
Width: 321
VWidth: 0
Flags: W
HStem: -9.875 44.9502<57.7969 148.347> 454.449 37.7002<61.5476 124.023 202 282.216>
VStem: 32.6846 68.4502<35.3633 152.276>
LayerCount: 2
Fore
SplineSet
55.76953125 159.174804688 m 6
 121.565429688 435.549804688 l 6
 122.610334084 440.060455444 124.024040922 444.80854682 124.024040922 448.42953421 c 4
 124.024040922 451.634391435 122.916594544 453.956316504 119.465820312 454.44921875 c 4
 115.1796875 455.061523438 65.9150390625 454.44921875 61.7158203125 455.5 c 4
 60.7851585209 455.732725802 60.3614258231 458.025992444 60.3614258231 461.346801368 c 4
 60.3614258231 471.459098048 64.2906228654 491.099609375 69.7998046875 491.099609375 c 4
 75.0498046875 491.099609375 117.049804688 491.099609375 135.94921875 492.149414062 c 5
 142.25 510 166.950195312 610.43359375 176.400390625 642.983398438 c 4
 178.470703125 650.114257812 230.700195312 653.483398438 232.799804688 653.483398438 c 7
 236.868164062 653.483398438 240.185308868 651.294274886 240.185308868 644.654166657 c 4
 240.185308868 641.011278737 239.487974958 636.028722144 238 629.333007812 c 4
 231.700195312 600.983398438 208.299804688 519.44921875 202 491.099609375 c 5
 234.549804688 491.099609375 264.049804688 492.149414062 274.549804688 492.149414062 c 7
 288.402718653 492.149414062 292.974781259 489.293512102 292.974781259 483.582255716 c 4
 292.974781259 477.864997621 288.319472609 465.500312064 285.25 460 c 6
 282.215820312 453.399414062 l 5
 277.590426733 453.399414062 222.94148888 454.44921875 194.915039062 454.44921875 c 5
 168.486177608 346.993314579 141.46484375 239.129882812 115.884765625 130.825195312 c 4
 110.551757812 107.817382812 101.134765625 70.998046875 101.134765625 58.224609375 c 4
 101.134765625 50.875 106.33203125 35.0751953125 119.982421875 35.0751953125 c 4
 138.35546875 35.0751953125 156.580078125 38.4248046875 178.629882812 61.525390625 c 5
 187.030273438 51.025390625 l 5
 167.1796875 15.3251953125 121.434570312 -9.875 70.78515625 -9.875 c 4
 44.8086376714 -9.875 32.6845703125 10.34765625 32.6845703125 45.0009765625 c 4
 32.6845703125 69.947265625 46.1217964904 118.649593276 55.76953125 159.174804688 c 6
EndSplineSet
Validated: 1
EndChar

StartChar: z
Encoding: 122 122 25
GlifName: z
Width: 467
VWidth: 0
Flags: W
HStem: -9.93945 48.001<166.484 370.138> 11.2451 55.0596<90.1299 228.823> 443.664 52.2512<194.748 385.949> 469.265 43.085<103.662 270.337>
VStem: 62.8242 47.8311<413.89 455.514> 360.033 56.0234<51.1125 99.6672>
LayerCount: 2
Fore
SplineSet
187.665039062 512.349609375 m 0x1c
 257.484375 512.349609375 256.78125 495.915039062 330.592773438 495.915039062 c 0
 384.45703125 495.915039062 420.412109375 512.540039062 436.89453125 512.540039062 c 0
 441.361328125 512.540039062 446.028747697 504.804244642 446.028747697 500.323792812 c 0
 446.028747697 494.752289992 435.749273491 484.396407991 428.1875 475.534179688 c 0
 406.769143881 450.432348477 312.028320312 342.353515625 237.1953125 252.544921875 c 0
 180.608398438 184.634765625 117.439453125 100.922851562 90.1298828125 66.3046875 c 1x6c
 90.7958984375 66.3212890625 103.461914062 68.330078125 104.126953125 68.330078125 c 0
 164.852034787 68.330078125 220.581054688 38.0615234375 282.862304688 38.0615234375 c 0
 303.234375 38.0615234375 354.701171875 45.3046875 371.665039062 50.9404296875 c 1
 366.353515625 54.5380859375 360.033203125 62.810546875 360.033203125 71.9951171875 c 0
 360.033203125 85.7255859375 371.669921875 100.583007812 387.459960938 100.583007812 c 0
 403.250976562 100.583007812 416.056640625 87.5986328125 416.056640625 70.8681640625 c 0
 416.056640625 17.26171875 341.587292944 -9.939453125 266.467773438 -9.939453125 c 0x8c
 193.649414062 -9.939453125 160.875 11.2451171875 89.0546875 11.2451171875 c 0
 46.162109375 11.2451171875 7.259765625 -9.607421875 -11.693359375 -9.607421875 c 0
 -15.7821438089 -9.607421875 -19.2001058276 -6.92544497842 -19.2001058276 -2.11145723321 c 0
 -19.2001058276 0.743848209536 -17.4095862936 3.72593917525 -16.3115234375 5.1494140625 c 0
 26 60 138.046875 181.763671875 211.443359375 271.490234375 c 0
 271.73046875 345.19140625 325.561523438 406.58984375 352.9453125 448.6484375 c 1
 337.68405815 445.098869473 323.800358143 443.66383949 310.763420242 443.66383949 c 0x6c
 255.698888093 443.66383949 215.740517587 469.264648438 150.892578125 469.264648438 c 0
 128.791992188 469.264648438 112.482421875 461.592773438 102.981445312 455.852539062 c 1
 107.719726562 448.610351562 110.655273438 442.8359375 110.655273438 439.014648438 c 0
 110.655273438 427.216796875 101.547851562 413.728515625 86.1455078125 413.728515625 c 4
 70.7412109375 413.728515625 62.82421875 427.872070312 62.82421875 438.359375 c 0
 62.82421875 457.83203125 97.5862574154 512.349609375 187.665039062 512.349609375 c 0x1c
EndSplineSet
Validated: 1
EndChar

StartChar: l
Encoding: 108 108 26
GlifName: l
Width: 284
VWidth: 0
Flags: W
HStem: -9.65039 49.4229<54.3462 138.35> 732.9 13.6494<146.649 166.395> 753.851 20G<252.225 253.861>
VStem: 26.3105 71.4492<40.3556 149.856> 177.105 79.8506<676.808 770.721>
LayerCount: 2
Fore
SplineSet
44.26171875 140.5 m 6
 175 693 l 6
 176.38671875 699.008789062 177.10546875 704.374023438 177.10546875 709.06640625 c 4
 177.10546875 719.174804688 173.770507812 726.1640625 166.599609375 729.75 c 4
 162.399414062 731.850585938 147.700195312 732.900390625 143.5 732.900390625 c 5
 146.649414062 746.549804688 l 5
 247.599609375 772.850585938 l 6
 249.521484375 773.346679688 251.700195312 773.850585938 252.75 773.850585938 c 7
 254.97265625 773.850585938 256.956054688 772.352539062 256.956054688 769.08984375 c 4
 256.956054688 766.1875 256.177734375 761.88671875 254.799804688 756 c 6
 111.51171875 131.049804688 l 6
 106.328125 107.793945312 97.759765625 76.623046875 97.759765625 63.849609375 c 4
 97.759765625 46.2021484375 107.072265625 39.7724609375 119.767578125 39.7724609375 c 4
 136.219726562 39.7724609375 158.350585938 50.5703125 173.256835938 61.75 c 5
 181.657226562 51.25 l 5
 162.756835938 17.650390625 105.211914062 -9.650390625 67.412109375 -9.650390625 c 4
 41.2802734375 -9.650390625 26.310546875 8.693359375 26.310546875 42.5078125 c 4
 26.310546875 67.20703125 34.9052734375 100.03125 44.26171875 140.5 c 6
EndSplineSet
Validated: 1
EndChar

StartChar: r
Encoding: 114 114 27
GlifName: r
Width: 404
VWidth: 0
Flags: W
HStem: -0.200195 21G<24.5 101.128> 443.95 57.75<260.881 362.496> 464.95 47.25<88.3715 167.721>
VStem: 131.255 68.976<434.516 464.946>
LayerCount: 2
Fore
SplineSet
117.599609375 374.650390625 m 2xd0
 123.131835938 398.735351562 130.98046875 435.37890625 131.25 448.150390625 c 0
 131.25366093 448.323792901 131.255482805 448.496049663 131.255482805 448.667151454 c 0
 131.255482805 458.856748767 124.794130038 464.950195312 115.5 464.950195312 c 0
 96.703125 464.950195312 85.9365234375 459.344726562 64.552734375 441.799804688 c 1
 54.1025390625 453.349609375 l 1
 71.2963064507 483.798563922 108.235162423 512.200195312 154.400390625 512.200195312 c 0xb0
 181.041015625 512.200195312 200.231445312 502.837453771 200.231445312 479.650390625 c 3
 200.231445312 456.239746957 197.299804688 434.5 197.299804688 434.5 c 1
 230.900390625 463.900390625 280.25 501.700195312 336.950195312 501.700195312 c 3
 347.895974988 501.700195312 390.905534364 498.870702923 390.905534364 480.700187646 c 0
 390.905534364 448.346674153 357.453145888 432.400390625 336.950195312 432.400390625 c 3
 310.700195312 432.400390625 296 443.950195312 272.900390625 443.950195312 c 3
 237.200195312 443.950195312 197.299804688 403 184.700195312 380.950195312 c 1
 96.5 -0.2001953125 l 1
 24.5 -0.2001953125 l 1
 117.599609375 374.650390625 l 2xd0
EndSplineSet
EndChar

StartChar: k
Encoding: 107 107 28
GlifName: k
Width: 501
VWidth: 0
Flags: W
HStem: -9.9248 46.3496<354.914 430.456> 0.724609 21G<13.4297 88.0176> 295.775 30.4492<163.623 191.178> 465.03 46.9554<363.383 434.445> 729.899 13.6504<149.65 170.445>
VStem: 180.301 77.585<666.693 765.811>
LayerCount: 2
Fore
SplineSet
302.830078125 192.875 m 28x7c
 328 141 359.729492188 76.3251953125 370.126953125 60.5751953125 c 4
 374.176757812 54.44140625 384.724609375 36.4248046875 398.375 36.4248046875 c 4
 416.748046875 36.4248046875 427.774414062 38.525390625 452.974609375 57.4248046875 c 5
 461.375 46.9248046875 l 5
 442.474609375 13.3251953125 405.6796875 -9.9248046875 367.879882812 -9.9248046875 c 4xbc
 341.947265625 -9.9248046875 325.3515625 6.255859375 307.130859375 38.525390625 c 4
 298.830078125 53.224609375 277.629882812 96.275390625 236.6796875 183.424804688 c 4
 199.767578125 261.981445312 195.729492188 295.775390625 166.330078125 295.775390625 c 4
 161.080078125 295.775390625 155.830078125 294.724609375 150.580078125 290.525390625 c 5
 83.3798828125 0.724609375 l 5
 13.4296875 0.724609375 l 5
 178 690 l 6
 179.473402462 696.998404764 180.300759411 703.221458776 180.300759411 708.533252231 c 4
 180.300759411 718.3636691 177.467055757 725.073011837 170.650390625 727.799804688 c 4
 166.450195312 729.899414062 150.700195312 729.899414062 146.5 729.899414062 c 5
 149.650390625 743.549804688 l 5
 239.950195312 768.75 l 6
 243.099609375 769.799804688 247.25 770.849609375 249.349609375 770.849609375 c 7
 253.961914062 770.849609375 257.885742188 769.036132812 257.885742188 762.584960938 c 4
 257.885742188 760.224609375 257.26076034 755.659031783 256.650390625 753 c 6
 164.229492188 350.375 l 6
 163.658562369 347.519819808 163.398165323 344.994596483 163.398165323 342.762386619 c 4
 163.398165323 328.5765759 173.914740453 326.224609375 182.080078125 326.224609375 c 4
 194.6796875 326.224609375 254.517578125 390.583007812 291.280273438 425.974609375 c 4
 311.60806198 445.544256993 323.526367188 456.134765625 340 471 c 4
 374.366994238 502.010084921 396.766527754 511.985084423 414.962524945 511.985084423 c 4
 438.914996628 511.985084423 456.710155616 497.318389777 456.710155616 476.629265202 c 4
 456.710155616 454.964935593 439.851288154 436.5097652 423.875001675 436.5097652 c 4
 412.539795172 436.5097652 406.999159802 441.592684406 399.37890625 451.869140625 c 4
 394.232741061 458.811199803 391.390656247 465.029711175 385.751797306 465.029711175 c 4
 379.322022871 465.029711175 369.89590394 456.091887067 357.533203125 444.5859375 c 4
 324.879882812 412.514648438 l 4
 307.4765625 394.356445312 266.629882812 351.994140625 244.030273438 327.275390625 c 5
 244.030273438 312.575195312 278 245 302.830078125 192.875 c 28x7c
EndSplineSet
Validated: 1
EndChar

StartChar: e
Encoding: 101 101 29
GlifName: e
Width: 516
VWidth: 0
Flags: W
HStem: -10.4502 34.6504<158.369 293.054> 486.2 26.25<268.575 385.356>
VStem: 29.6162 78.0967<71.3948 226.907> 407.397 75.2188<359.163 473.373>
LayerCount: 2
Fore
SplineSet
115.672851562 228.950195312 m 1
 111.909179688 205.6875 107.712890625 178.950195312 107.712890625 156.380859375 c 0
 107.712890625 69.201171875 154.094726562 24.2001953125 214.553710938 24.2001953125 c 3
 263.904296875 24.2001953125 327.484375 48.349609375 384.565429688 87.2001953125 c 1
 392.23046875 67.25 l 1
 330.408203125 13.7001953125 267.568359375 -10.4501953125 199.318359375 -10.4501953125 c 3
 103.732421875 -10.4501953125 29.6162109375 47.1611328125 29.6162109375 163.447265625 c 0
 29.6162109375 396.719726562 200.481445312 512.450195312 344.544921875 512.450195312 c 0
 427.91015625 512.450195312 482.616210938 486.642578125 482.616210938 432.139648438 c 0
 482.616210938 251.090820312 195.612304688 250.42578125 115.672851562 228.950195312 c 1
108.005859375 262.650390625 m 1
 200.100585938 283.458984375 407.397460938 281.5625 407.397460938 425.133789062 c 0
 407.397460938 472.890625 376.083007812 486.200195312 328.994140625 486.200195312 c 3
 258.643554688 486.200195312 132.708007812 420.150390625 108.005859375 262.650390625 c 1
EndSplineSet
EndChar

StartChar: c
Encoding: 99 99 30
GlifName: c
Width: 454
VWidth: 0
Flags: W
HStem: -10.4248 44.0996<146.901 286.841> 488.325 23.0996<235.089 320.501>
VStem: 14.6281 77.7432<92.5452 308.687>
LayerCount: 2
Fore
SplineSet
359.498046875 88.275390625 m 1
 367.8984375 67.275390625 l 1
 302.797851562 8.474609375 250.297851562 -10.4248046875 177.848632812 -10.4248046875 c 0
 84.3170454975 -10.4248046875 14.6280863211 51.9865697264 14.6280863211 172.224472251 c 0
 14.6280863211 383.945166041 147.762066997 511.424804688 294.3984375 511.424804688 c 3
 343.748046875 511.424804688 401.498046875 494.625 437.198242188 430.575195312 c 0
 438.735182016 428.269070714 439.71011572 425.963469398 439.71011572 423.657625266 c 0
 439.71011572 406.733234782 408.441905729 394.875 392.047851562 394.875 c 3
 332.198242188 394.875 361.598632812 488.325195312 281.797851562 488.325195312 c 0
 183.327606902 488.325195312 92.3712527989 346.756598513 92.3712527989 193.511748893 c 0
 92.3712527989 105.933591539 127.585676631 33.6748046875 216.698242188 33.6748046875 c 3
 255.547851562 33.6748046875 304.8984375 49.4248046875 359.498046875 88.275390625 c 1
EndSplineSet
Validated: 1
EndChar

StartChar: a
Encoding: 97 97 31
GlifName: a
Width: 527
VWidth: 0
Flags: W
HStem: -7.27539 28.3506<151.91 264.77> 489.375 22.0498<261.399 361.134>
VStem: 22.2217 76.3555<66.4108 300.221>
LayerCount: 2
Fore
SplineSet
413.255859375 44.1748046875 m 1
 413.255859375 20.025390625 l 1
 382.805664062 5.3251953125 364.60546875 -7.275390625 341.505859375 -7.275390625 c 0
 319.580078125 -7.275390625 311.755859375 12.8681640625 311.755859375 31.5751953125 c 1
 310.309570312 30.12890625 302.977060169 28.8462007945 301.505859375 27.375 c 0
 265.805664062 3.224609375 231.155273438 -10.4248046875 186.005859375 -10.4248046875 c 0
 77.2498688276 -10.4248046875 22.2216796875 50.58984375 22.2216796875 164.626953125 c 0
 22.2216796875 370.633789062 152.096581791 511.424804688 303.60546875 511.424804688 c 3
 343.505859375 511.424804688 378.155273438 501.974609375 407.555664062 467.325195312 c 1
 411.755859375 486.224609375 l 0
 437.105794271 490.290553916 462.455729167 496.615920695 487.805664062 501.974609375 c 0
 387.005859375 63.0751953125 l 1
 380.706054688 35.775390625 l 1
 391.206054688 37.875 401.706054688 41.025390625 413.255859375 44.1748046875 c 1
392.555664062 377.025390625 m 1
 392.919921875 383.26171875 393.143554688 389.5703125 393.143554688 395.849609375 c 0
 393.143554688 443.942382812 380.98046875 489.375 316.456054688 489.375 c 3
 193.55078125 489.375 98.5771484375 335.650390625 98.5771484375 167.046875 c 0
 98.5771484375 80.8251953125 125.998859539 21.0751953125 209.10546875 21.0751953125 c 3
 238.505859375 21.0751953125 309.60546875 47.275390625 316.956054688 67.224609375 c 1
 392.555664062 377.025390625 l 1
EndSplineSet
Validated: 1
EndChar

StartChar: i
Encoding: 105 105 32
GlifName: i
Width: 294
VWidth: 0
Flags: W
HStem: -10.2246 48.3496<78.937 163.375> 465.825 47.25<99.0011 186.862> 624.625 91.5996<178.645 242.984>
VStem: 51 71.6709<38.4681 150.823> 141.897 73.9766<372.427 465.821> 165.093 89.9463<636.999 703.068>
LayerCount: 2
Fore
SplineSet
190.891601562 358.724609375 m 2xf8
 136.751953125 130.474609375 l 2
 130.615234375 105.072265625 122.670898438 74.791015625 122.670898438 58.9443359375 c 0
 122.670898438 47.474609375 129.805664062 38.125 142.846679688 38.125 c 0
 161.219726562 38.125 173.296875 42.275390625 198.497070312 61.1748046875 c 1
 206.896484375 50.6748046875 l 1
 187.997070312 17.0751953125 129.801757812 -10.224609375 92.001953125 -10.224609375 c 0
 65.8720703125 -10.224609375 51 8.1171875 51 41.9287109375 c 0
 51 66.6279296875 59.64453125 99.3251953125 69.9521484375 139.924804688 c 2
 122.2890625 350 l 2
 127.678710938 373 141.622070312 436.25390625 141.891601562 449.025390625 c 0
 141.895507812 449.19921875 141.897460938 449.37109375 141.897460938 449.541992188 c 0
 141.897460938 459.731445312 135.435546875 465.825195312 126.141601562 465.825195312 c 0
 108.344726562 465.825195312 97.5771484375 462.219726562 79.1943359375 445.674804688 c 1
 68.744140625 456.224609375 l 1
 86.9619140625 491.258789062 121.676757812 513.075195312 174.041015625 513.075195312 c 0
 199.682617188 513.075195312 215.71484375 503.711914062 215.873046875 480.525390625 c 0
 215.874023438 480.392578125 215.874023438 480.259765625 215.874023438 480.125 c 0
 215.874023438 454.920898438 200.072265625 398.9453125 190.891601562 358.724609375 c 2xf8
219.151367188 716.224609375 m 0
 239.825195312 716.224609375 255.0390625 701.568359375 255.0390625 680.22265625 c 0
 255.0390625 646.00390625 225.283203125 624.625 199.1015625 624.625 c 0
 178.737304688 624.625 165.092773438 636.712890625 165.092773438 656.872070312 c 0xf4
 165.092773438 690.880859375 193.03515625 716.224609375 219.151367188 716.224609375 c 0
EndSplineSet
EndChar

StartChar: period
Encoding: 46 46 33
GlifName: period
Width: 212
VWidth: 0
Flags: W
HStem: -11 102<56.3947 121.802>
VStem: 40 98.5732<6.02261 74.7054>
LayerCount: 2
Fore
SplineSet
101.313476562 91 m 7
 123.625 91 138.573242188 74.0625 138.573242188 51.5625 c 7
 138.573242188 16.3134765625 105.706054688 -11 77.3134765625 -11 c 7
 54.296875 -11 40 5.71484375 40 27.9921875 c 7
 40 63.4873046875 71.7353515625 91 101.313476562 91 c 7
EndSplineSet
Validated: 1
EndChar

StartChar: comma
Encoding: 44 44 34
GlifName: comma
Width: 170
VWidth: 0
Flags: W
HStem: -79 12<-1.99488 15.6255>
VStem: 52.2598 79.0498<-36.2085 69.6918>
LayerCount: 2
Fore
SplineSet
93 91 m 0
 116.884765625 91 131.309570312 72.80859375 131.309570312 51.943359375 c 0
 131.309570312 -26.8681640625 66.9775390625 -79 17 -79 c 0
 5 -79 -2 -75 -2 -75 c 1
 -6 -67 l 1
 9.58203125 -67 52.259765625 -48.5166015625 52.259765625 -23.900390625 c 0
 52.259765625 -19.228515625 50.46875 -15.1142578125 48 -11 c 0
 37.37109375 2.8994140625 27.41015625 8.1083984375 27.41015625 24.8505859375 c 0
 27.41015625 61.1533203125 62.5732421875 91 93 91 c 0
EndSplineSet
Validated: 1
EndChar

StartChar: D
Encoding: 68 68 35
GlifName: D_
Width: 735
VWidth: 0
Flags: W
HStem: -3 33<128.764 213.934 214.016 347.11> 0 16<-7 30.8066> 696 34<276 495.03> 714 16<158 188.401>
VStem: 618.737 82.2871<324.632 584.59>
LayerCount: 2
Fore
SplineSet
176 712 m 0x48
 169 714 162 714 154 714 c 1
 158 730 l 1x58
 288 730 l 1
 337 730 386 731 434 731 c 3
 583.802734375 731 701.024414062 643.174804688 701.024414062 469.908203125 c 0
 701.024414062 170.80078125 482.196289062 -3 255 -3 c 2
 247 -3 l 2xa8
 236 -3 214 -2 214 -2 c 1
 214 -2 123 0 107 0 c 2
 -11 0 l 1
 -7 16 l 1
 1 16 8 16 16 18 c 0
 35 22 46 36 49 49 c 1
 78 167 106 284 133 402 c 0
 155 495 175 589 195 682 c 2
 195.538085938 684.333007812 195.819335938 686.666015625 195.819335938 688.946289062 c 0
 195.819335938 699.375976562 189.94921875 708.717773438 176 712 c 0x48
276 679 m 2
 228 469 130 50 130 50 c 1
 129.205078125 45.76171875 128.76171875 42.365234375 128.76171875 39.6435546875 c 0
 128.76171875 32.0908203125 132.178710938 29.7353515625 141 29 c 9
 220 30 l 2
 220 30 232 30 238 30 c 0
 490.100585938 30 618.737304688 245.8046875 618.737304688 482.958007812 c 0
 618.737304688 646.831054688 516.161132812 696 389 696 c 0
 380 696 342 696 324 696 c 3
 315 696 291 696 291 696 c 0xa8
 284 696 278 690 277 684 c 2
 276 679 l 2
EndSplineSet
EndChar

StartChar: N
Encoding: 78 78 36
GlifName: N_
Width: 750
VWidth: 0
Flags: W
HStem: -9 21G<589.5 594> 0 16<-8 14.6257 105.33 125> 714 16<152 170.671 680 711.401 774.491 814>
LayerCount: 2
Fore
SplineSet
105 18 m 0x60
 112 16 121 16 129 16 c 1
 125 0 l 1
 -12 0 l 1
 -8 16 l 1
 0 16 7 16 15 18 c 0
 34 22 46 39 49 52 c 2
 132 399 l 1
 188 679 l 2
 188 679 188.912109375 684.25390625 188.912109375 686.940429688 c 0
 188.912109375 697.853515625 184.641601562 708.790039062 171 712 c 0
 164 714 156 714 148 714 c 1
 152 730 l 1
 255 730 l 1
 597 153 l 1
 718 682 l 2
 718 682 718.819335938 686.959960938 718.819335938 689.30859375 c 0
 718.819335938 700.048828125 712.94921875 708.717773438 699 712 c 0
 692 714 684 714 676 714 c 1
 680 730 l 1
 817 730 l 1
 814 714 l 1
 806 714 797.02734375 713.888671875 789 712 c 0
 772 708 762 698 758 684 c 0
 734 590 713 495 691 401 c 0
 660 267 631 134 602 0 c 0x60
 601 -6 596 -9 592 -9 c 3xa0
 587 -9 582 0 582 0 c 1
 458 209 343 411 219 619 c 1
 206 564 194 510 181 455 c 0
 158 355 135 255 112 155 c 0
 104 119 95 84 87 48 c 2
 87 48 86.58203125 44.42578125 86.58203125 42.662109375 c 0
 86.58203125 31.595703125 91.19921875 21.4501953125 105 18 c 0x60
EndSplineSet
EndChar

StartChar: L
Encoding: 76 76 37
GlifName: L_
Width: 516
VWidth: 0
Flags: W
HStem: 0 21<-14 14.532 133.623 335.053> 714.111 15.8887<157 175.669 293.984 338>
LayerCount: 2
Fore
SplineSet
149 24 m 0
 167 22 176 21 195 21 c 1
 252 21 297 22 339 32 c 0
 399 47 431 79 457 139 c 1
 473 140 l 1
 424 0 l 1
 -18 0 l 1
 -14 16 l 1
 -4 16 5 16 15 18 c 0
 34 22 45 36 48 49 c 0
 77 167 105 285 132 403 c 0
 153 496 174 589 194 682 c 2
 194.538085938 684.333007812 194.819335938 686.666015625 194.819335938 688.946289062 c 0
 194.819335938 699.375976562 188.94921875 708.717773438 176 712 c 0
 168.943359375 713.7890625 161 714 153 714 c 1
 157 730 l 1
 342 730 l 1
 338 714 l 1
 334.333007812 714 330.77734375 714.111328125 327.22265625 714.111328125 c 0
 320.111328125 714.111328125 313 713.666992188 305 711 c 0
 289 706 278 695 275 682 c 0
 252 588 229 495 207 401 c 0
 180 285 154 169 129 53 c 2
 128.508789062 50.8720703125 128.258789062 48.716796875 128.258789062 46.5927734375 c 0
 128.258789062 35.73828125 134.783203125 25.6728515625 149 24 c 0
EndSplineSet
Validated: 1
EndChar

StartChar: M
Encoding: 77 77 38
GlifName: M_
Width: 777
VWidth: 0
Flags: W
HStem: 0 16<-12.6094 10.0163 102.719 120.391 502.391 540.197 661.766 681.391> 714 16<170.391 189.062 799.991 842.391>
LayerCount: 2
Fore
SplineSet
661.390625 18 m 0
 669.390625 16 677.390625 16 685.390625 16 c 1
 681.390625 0 l 1
 498.390625 0 l 1
 502.390625 16 l 1
 510.390625 16 517.390625 16 525.390625 18 c 0
 544.390625 22 555.390625 36 558.390625 49 c 0
 574.390625 113 588.390625 177 603.390625 241 c 0
 622.390625 322 642.390625 406 661.390625 488 c 0
 671.390625 530 680.390625 571 689.390625 611 c 1
 355.390625 146 l 0
 351.390625 140 344.390625 129 338.390625 129 c 3
 334.390625 129 329.758789062 135.450195312 328.390625 142 c 2
 328.390625 142 239.390625 569 230.390625 611 c 1
 83.390625 53 l 2
 83.14453125 51.3994140625 82.01953125 44.798828125 82.01953125 43.2158203125 c 0
 82.01953125 31.935546875 88.3603515625 21.5078125 102.390625 18 c 0
 109.390625 16 116.390625 16 124.390625 16 c 1
 120.390625 0 l 1
 -16.609375 0 l 1
 -12.609375 16 l 1
 -4.609375 16 2.390625 16 10.390625 18 c 0
 29.390625 22 40.390625 39 44.390625 52 c 0
 100.390625 260 153.390625 467 206.390625 678 c 2
 207.155273438 680.954101562 208.215820312 684.4140625 208.215820312 687.19140625 c 0
 208.215820312 698.078125 202.489257812 708.725585938 189.390625 712 c 0
 182.390625 714 175.390625 714 167.390625 714 c 1
 170.390625 730 l 1
 297.390625 730 l 1
 402.390625 263 l 1
 726.390625 730 l 1
 845.390625 730 l 1
 842.390625 714 l 1
 834.390625 714 824.390625 714 816.390625 712 c 0
 798.390625 709 788.390625 700 784.390625 683 c 0
 769.780273438 620.907226562 754.390625 559 740.390625 497 c 0
 705.390625 346 673.390625 196 642.390625 47 c 2
 642.390625 47 641.645507812 42.7333984375 641.645507812 40.6728515625 c 0
 641.645507812 30.2548828125 648.033203125 21.33984375 661.390625 18 c 0
EndSplineSet
EndChar

StartChar: slash
Encoding: 47 47 39
GlifName: slash
Width: 552
VWidth: 0
Flags: W
LayerCount: 2
Fore
SplineSet
27.25 -115.799804688 m 5
 194.200195312 177.150390625 323.349609375 424.950195312 455.650390625 694.799804688 c 5
 476.650390625 709.5 493.450195312 715.799804688 505 715.799804688 c 4
 515.437817517 715.799804688 521.552836497 710.755869525 521.552836497 701.264295592 c 0
 521.552836497 699.298481646 521.290531742 697.141885496 520.75 694.799804688 c 5
 372.700195312 431.25 110.200195312 -75.900390625 110.200195312 -75.900390625 c 5
 92.349609375 -126.299804688 67.150390625 -101.099609375 27.25 -115.799804688 c 5
EndSplineSet
Validated: 1
EndChar

StartChar: S
Encoding: 83 83 40
GlifName: S_
Width: 510
VWidth: 0
Flags: W
HStem: -10 46<110.94 282.584> 710 32<286.835 416.322>
VStem: -13.9883 73.8496<87.9012 163.528> 130.198 76.5576<506.226 619.316> 372.115 76.1055<142.497 271.776>
LayerCount: 2
Fore
SplineSet
183.87890625 36 m 0
 290.80078125 36 372.115234375 99.2080078125 372.115234375 198.634765625 c 0
 372.115234375 265.443359375 318.807617188 320.114257812 260.87890625 364 c 0
 197.961914062 411.63671875 130.198242188 469.775390625 130.198242188 538.416992188 c 0
 130.198242188 645.294921875 241.249023438 742 376.87890625 742 c 3
 455.77734375 742 528.034179688 712.587890625 528.034179688 695.426757812 c 0
 528.034179688 694.942382812 527.982421875 693.466796875 527.87890625 693 c 0
 524.87890625 679 486.87890625 612 477.87890625 612 c 3
 463.87890625 612 458.87890625 710 354.87890625 710 c 3
 256.952148438 710 206.755859375 633.376953125 206.755859375 562.92578125 c 0
 206.755859375 506.4453125 255.87109375 478.880859375 311.87890625 436 c 0
 382.80078125 381.036132812 448.220703125 315.854492188 448.220703125 241.153320312 c 0
 448.220703125 139.930664062 387.87890625 75.5458984375 334.87890625 37 c 0
 293.87890625 7 215.87890625 -10 171.87890625 -10 c 0
 47.4208984375 -10 -13.98828125 65.3076171875 -13.98828125 107.758789062 c 0
 -13.98828125 110.671875 -13.69921875 113.430664062 -13.12109375 116 c 0
 -8.12109375 137 39.87890625 192 55.87890625 192 c 3
 58.4765625 192 61.0751953125 192 61.0751953125 189.40234375 c 0
 61.0751953125 189 61.0126953125 188.536132812 60.87890625 188 c 0
 60.2294921875 182.375 59.861328125 176.1875 59.861328125 169.626953125 c 0
 59.861328125 115.53515625 84.88671875 36 183.87890625 36 c 0
EndSplineSet
Validated: 1
EndChar

StartChar: T
Encoding: 84 84 41
GlifName: T_
Width: 625
VWidth: 0
Flags: W
HStem: 0 16<120 165.016 287.329 307> 709 27<161.381 314.717 423.448 612.539>
VStem: 625.219 42.9092<635.014 735.99>
LayerCount: 2
Fore
SplineSet
180 701 m 4
 138 693 111 663 91 614 c 5
 73 614 l 5
 117 733 l 5
 118 735 120 736 122 736 c 7
 128 736 141 734 148 734 c 4
 182 733 275 730 388 730 c 28
 488 731 542 732 626 735 c 4
 630 735 653 738 659 738 c 4
 664.481445312 738 668.127929688 737.165039062 668.127929688 734.971679688 c 4
 668.127929688 734.668945312 667.086914062 729.345703125 667 729 c 6
 636 612 l 5
 620 613 l 5
 620 613 625.21875 641.47265625 625.21875 657.0078125 c 4
 625.21875 685.2890625 613.896484375 699.293945312 600 703 c 4
 579 708 552 709 497 709 c 4
 481 709 464 708 447 708 c 4
 429 708 418 691 415 678 c 4
 387 561 358 445 331 328 c 4
 309 235 289 141 269 48 c 6
 268.461914062 45.6669921875 268.180664062 43.333984375 268.180664062 41.0537109375 c 4
 268.180664062 30.6240234375 273.220703125 21.9365234375 287 18 c 4
 294 16 302 16 310 16 c 5
 307 0 l 5
 117 0 l 5
 120 16 l 5
 123.666992188 16 127.333007812 15.888671875 131.037109375 15.888671875 c 6
 138.444335938 15.888671875 146 16.3330078125 154 19 c 4
 170 24 181 35 184 48 c 4
 207 141 229 235 251 328 c 4
 328 679 l 6
 328.4765625 681.3828125 329.701171875 683.689453125 329.701171875 685.892578125 c 4
 329.701171875 697.559570312 323.412109375 706.317382812 315 708 c 4
 309 709 300 709 287 709 c 7
 255 709 209 706 180 701 c 4
EndSplineSet
Validated: 1
EndChar

StartChar: Q
Encoding: 81 81 42
GlifName: Q_
Width: 742
VWidth: 0
Flags: W
HStem: -147 31<358.985 470.317> 698 35<350.473 536.389>
VStem: 30.1049 89.0553<118.541 392.561> 210.793 99.6232<-84.9283 -14.3053> 636.553 80.0164<330.185 590.068>
LayerCount: 2
Fore
SplineSet
119.160208076 227.567186952 m 0
 119.160208076 34.1642894812 246.649519147 20 303.317382812 20 c 0
 435.492373975 20 636.552569843 172.815498824 636.552569843 494.70027368 c 0
 636.552569843 610.409147162 585.643158437 698 444.317382812 698 c 0
 197.509474005 698 119.160208076 392.107840177 119.160208076 227.567186952 c 0
463.317382812 733 m 3
 607.686523438 733 716.568948754 643.506669219 716.568948754 472.516490601 c 0
 716.568948754 170.732115188 485.488470087 4.85353113663 317.317382812 -15 c 1
 312.663907796 -24.9963537389 310.416524971 -34.5471348496 310.416524971 -43.5089929356 c 0
 310.416524971 -86.5448714811 362.241879171 -116 448.317382812 -116 c 3
 455.317382812 -116 463.317382812 -115 471.317382812 -115 c 1
 470.317382812 -143 l 1
 444.317382812 -145 421.317382812 -147 399.317382812 -147 c 3
 286.942552701 -147 210.793358259 -114.62815536 210.793358259 -43.1177612028 c 0
 210.793358259 -33.1745910424 212.265591818 -22.4747341373 215.317382812 -11 c 1
 134.77622878 5.60642351171 30.1049108368 69.7837415926 30.1049108368 234.197449046 c 0
 30.1049108368 543.621499288 241.83984375 733 463.317382812 733 c 3
EndSplineSet
Validated: 1
EndChar

StartChar: P
Encoding: 80 80 43
GlifName: P_
Width: 594
VWidth: 0
Flags: W
HStem: 0 16<29 67.5946 184.329 204> 282 29<244.869 354.817> 704 28<319 459.423> 714 16<194 212.672>
VStem: 537.553 72.5748<464.703 652.716>
LayerCount: 2
Fore
SplineSet
184 18 m 0xe8
 191 16 199 16 207 16 c 1
 204 0 l 1
 26 0 l 1
 29 16 l 1
 37 16 45 16 53 18 c 0
 72 22 82 36 85 49 c 1
 114 167 141.424923642 284.134200196 169 401 c 0
 228 669 l 2
 228.95703125 673.545898438 229.456054688 680.149414062 229.456054688 684.590820312 c 0
 229.456054688 698.711914062 224.411132812 708.196289062 213 712 c 0
 206 714 199 714 191 714 c 1
 194 730 l 1
 202 730 210 730 218 730 c 3xd8
 278 730 342 732 401 732 c 0
 519.810441888 732 610.1274868 688.164004653 610.1274868 572.390355807 c 0
 610.1274868 376.7006624 428.387352873 282 289 282 c 3
 278 282 267 283 257 284 c 0
 248.666666667 284.833333333 244.5 288.444444444 244.5 293.675925926 c 0
 244.5 294.722222222 244.666666667 295.833333333 245 297 c 0
 247 304 253 311 262 311 c 0
 394.235948727 311 537.552734375 388.6484375 537.552734375 580.1953125 c 4
 537.552734375 671.038085938 473.487243502 704 362 704 c 2
 319 704 l 1
 318 703 l 1
 292 601 268 499 244 397 c 0
 217 281 191 164 166 47 c 2
 165.50454583 44.8530319311 165.254566495 42.7333388439 165.254566495 40.672452246 c 0
 165.254566495 30.2545664948 170.642578125 21.33984375 184 18 c 0xe8
EndSplineSet
Validated: 1
EndChar

StartChar: R
Encoding: 82 82 44
GlifName: R_
Width: 641
VWidth: 0
Flags: W
HStem: 0 16<7 44.8066 150.898 181 527.321 575.606> 353 25<218 316.955> 704 30<296 440.777> 714 16<172 189.667>
VStem: 421.899 84.6201<23.7 231.077> 434.538 83.7207<78.0721 298.18> 500.003 75.6348<497.072 663.816>
LayerCount: 2
Fore
SplineSet
163 18 m 4xe4
 170 16 177 16 185 16 c 5
 181 0 l 5
 107 0 l 5
 77 0 l 5
 3 0 l 5
 7 16 l 5
 15 16 22 16 30 18 c 4
 49 22 60 36 63 49 c 4
 92 168 121 286 148 405 c 4
 168 493 188 580 206 668 c 5
 206.877929688 672.170898438 207.322265625 676.390625 207.322265625 680.489257812 c 4
 207.322265625 695.05859375 202.70703125 709.09765625 190 712 c 4
 182.90234375 713.62109375 176 714 168 714 c 5
 172 730 l 5
 180 730 188 730 196 730 c 7xd4
 256 730 320 734 379 734 c 4
 496.495117188 734 575.637695312 692.159179688 575.637695312 592.491210938 c 4xe2
 575.637695312 446.293945312 485.512695312 380.716796875 348 364 c 5
 446.1796875 364 518.258789062 309.754882812 518.258789062 231.204101562 c 4xe4
 518.258789062 228.498046875 518.172851562 225.762695312 518 223 c 6
 514.4140625 165.733398438 509.69921875 134.287109375 507 92 c 6
 506.676757812 86.935546875 506.51953125 82.234375 506.51953125 77.8671875 c 4
 506.51953125 41.701171875 517.306640625 28.34765625 534 20 c 4
 536.928710938 18.53515625 541.48828125 17.9287109375 546.721679688 17.9287109375 c 4
 559.357421875 17.9287109375 575.928710938 21.46484375 583 25 c 5
 579 9 l 5
 556 1 532.083007812 -4.91796875 494 -5 c 4
 493.932617188 -5 493.866210938 -5 493.798828125 -5 c 4
 446.197265625 -5 421.899414062 31.359375 421.899414062 71.4169921875 c 4xe8
 421.899414062 72.9384765625 421.93359375 75.466796875 422 77 c 6
 424 122.880859375 430.641601562 201.415039062 434 236 c 6
 434.361328125 239.71875 434.538085938 243.311523438 434.538085938 246.783203125 c 4
 434.538085938 332.215820312 327.213867188 344.170898438 212 353 c 5
 143 47 l 6
 142.556640625 45.033203125 142.321289062 43.0927734375 142.321289062 41.1982421875 c 4
 142.321289062 30.5556640625 149.41796875 21.3955078125 163 18 c 4xe4
218 378.099609375 m 5
 229 378.099609375 240 378 251 378 c 4
 382.262695312 378 500.002929688 440.733398438 500.002929688 596.583984375 c 4
 500.002929688 678.357421875 445.969726562 704 340 704 c 6
 296 704 l 5xe2
 295 703 l 5
 271 601 249.5625 517.102539062 226 415 c 4
 223 402 221 391.099609375 218 378.099609375 c 5
EndSplineSet
EndChar

StartChar: U
Encoding: 85 85 45
GlifName: U_
Width: 764
VWidth: 0
Flags: W
HStem: -19 41<211.573 434.155> 714 16<129.966 147.676 263.817 301.966 678.966 711.312 775.885 814.966>
VStem: 60.1562 82.0811<94.7642 317.022> 165.082 80.8838<650.473 708.381>
LayerCount: 2
Fore
SplineSet
245.965820312 680 m 1050,0,-1
147.965820312 712 m 0,1,-1
 141.80859375 713.447265625 133.965820312 714 126.965820312 714 c 1,4,-1
 129.965820312 730 l 1,5,-1
 305.965820312 730 l 1,6,-1
 301.965820312 714 l 1,7,-1
 293.965820312 714 285.993164062 713.888671875 277.965820312 712 c 0,10,-1
 260.965820312 708 249.965820312 697 245.965820312 680 c 0,13,-1
 245.965820312 679 243.561523438 671.102539062 240.965820312 660 c 0,16,-1
 222.965820312 583 160 310 159.965820312 310 c 2,19,-1
 148.234375 259.165039062 142.237304688 215.975585938 142.237304688 179.73046875 c 0,22,-1
 142.237304688 67.6748046875 199.55859375 22 321.965820312 22 c 3,25,-1
 476.965820312 22 581.965820312 97 627.965820312 296 c 1,28,-1
 634.965820312 327 709.965820312 654 716.965820312 685 c 2,31,-1
 717.69921875 687.75 718.0625 690.264648438 718.0625 692.563476562 c 0,34,-1
 718.0625 702.798828125 710.848632812 708.733398438 696.965820312 712 c 0,37,-1
 689.965820312 714 682.965820312 714 674.965820312 714 c 1,40,-1
 678.965820312 730 l 1,41,-1
 818.965820312 730 l 1,42,-1
 814.965820312 714 l 1,43,-1
 806.965820312 714 799.965820312 714 791.965820312 712 c 0,46,-1
 773.965820312 708 762.965820312 700 758.965820312 684 c 0,49,-1
 751.47265625 657.775390625 728.759765625 546.720703125 707.965820312 458 c 0,52,-1
 688.965820312 375 671.965820312 305 662.965820312 270 c 0,55,-1
 605.965820312 43 443.965820312 -19 310.965820312 -19 c 3,58,-1
 194.493164062 -19 60.15625 27.89453125 60.15625 194.251953125 c 0,61,-1
 60.15625 220.71484375 63.5546875 250.200195312 70.9658203125 283 c 10,64,-1
 163.965820312 680 l 16,65,-1
 164.71875 683.01171875 165.08203125 685.91796875 165.08203125 688.670898438 c 0,68,-1
 165.08203125 700.540039062 158.330078125 709.564453125 147.965820312 712 c 0,1,-1
EndSplineSet
Validated: 1
EndChar

StartChar: J
Encoding: 74 74 46
GlifName: J_
Width: 258
VWidth: 0
Flags: W
HStem: -180 26<-181 -144.537> 714 16<128 153.574 270.974 311>
LayerCount: 2
Fore
SplineSet
154 712 m 0
 144.920898438 713.602539062 135 714 125 714 c 1
 128 730 l 1
 315 730 l 1
 311 714 l 1
 303 714 294 714 286 712 c 0
 268 708 256 696 253 683 c 0
 238 622 216 526 193 427 c 0
 152 248 109 59 104 36 c 1
 72 -100 -31 -175 -187 -180 c 1
 -181 -154 l 1
 -49 -116 -4 -75 33 80 c 0
 40 108 84 296 124 469 c 0
 142 549 160 626 172 682 c 2
 172.538085938 684.333007812 172.819335938 686.698242188 172.819335938 689.025390625 c 0
 172.819335938 699.669921875 167.94921875 709.538085938 154 712 c 0
EndSplineSet
EndChar

StartChar: plus
Encoding: 43 43 47
GlifName: plus
Width: 395
VWidth: 0
Flags: W
HStem: 275.275 46.1992<56.7124 168.677 225.918 338.196>
VStem: 55.2405 284.892<275.34 321.475>
LayerCount: 2
Fore
SplineSet
183.012695312 145.075195312 m 2
 181.962890625 139.825195312 171.462890625 136.674804688 160.962890625 136.674804688 c 0
 150.911022214 136.674804688 139.896484375 138.5625 139.896484375 143.415039062 c 0
 139.896484375 143.630859375 141.955078125 152.776367188 142 153 c 2
 168.3125 265.825195312 l 2
 168.533465734 266.772672825 168.678313544 267.766080841 168.678313544 268.744549942 c 0
 168.678313544 272.119954858 167.132639774 275.275390625 163.0625 275.275390625 c 2
 60.162109375 275.275390625 l 1
 56.8810119558 276.587585463 55.2404632462 281.59091954 55.2404632462 287.978538106 c 0
 55.2404632462 301.358464418 62.6399525267 321.474609375 70.662109375 321.474609375 c 2
 172.512695312 321.474609375 l 2
 179.862304688 321.474609375 181.962890625 327.775390625 183.012695312 330.924804688 c 2
 208.212890625 439.075195312 l 1
 217.662109375 442.224609375 226.0625 444.325195312 233.412109375 444.325195312 c 0
 240.762695312 444.325195312 247.0625 442.224609375 252.3125 439.075195312 c 1
 227.112304688 330.875 l 2
 226.765444787 329.385713568 225.916848014 326.51223202 225.916848014 324.884176348 c 0
 225.916848014 322.991684157 226.876196495 321.474609375 230.262695312 321.474609375 c 2
 337.362304688 321.474609375 l 1
 339.314661804 321.474609375 340.1328125 318.525390625 340.1328125 313.103515625 c 0
 340.1328125 302.236328125 334.964935404 275.275390625 326.862304688 275.275390625 c 2
 219.762695312 275.275390625 l 2
 215.5625 275.275390625 212.412109375 273.174804688 211.362304688 267.924804688 c 2
 183.012695312 145.075195312 l 2
EndSplineSet
Validated: 1
EndChar

StartChar: B
Encoding: 66 66 48
GlifName: B_
Width: 588
VWidth: 0
Flags: W
HStem: -2 26<117.379 271.547> 0 16<-13 24.8066> 358 37<197 333.778> 704 30<263.449 402.104> 714 16<152 169.672>
VStem: 415.714 77.1133<138.779 302.309> 457.07 69.6416<503.268 663.84>
LayerCount: 2
Fore
SplineSet
118 50 m 18xa4
 117.376953125 46.5703125 117.092773438 43.603515625 117.092773438 41.037109375 c 0
 117.092773438 27.1376953125 125.403320312 25 133 25 c 0
 148 25 163 24 178 24 c 7
 342.202148438 24 415.713867188 114.484375 415.713867188 241.545898438 c 7
 415.713867188 322.87109375 325 358 244 358 c 31
 223 358 189 356 189 356 c 1
 118 50 l 18xa4
339 384 m 1
 408.702148438 380.514648438 492.827148438 334.51953125 492.827148438 233.446289062 c 7
 492.827148438 67.46875 356.684570312 -2 245 -2 c 3xb4
 180 -2 150 0 57 0 c 2
 -17 0 l 1
 -13 16 l 1
 -5 16 2 16 10 18 c 0
 29 22 40 36 43 49 c 0
 72 167 100 285 127 403 c 0
 147 491 186 668 186 668 c 2
 186.877929688 672.170898438 187.322265625 676.390625 187.322265625 680.489257812 c 0
 187.322265625 695.05859375 181.70703125 708.09765625 170 712 c 0
 163 714 156 714 148 714 c 1
 152 730 l 1
 160 730 168 730 176 730 c 3x6c
 236 730 286 734 345 734 c 3
 459.59765625 734 526.711914062 674.45703125 526.711914062 589.396484375 c 3x32
 526.711914062 476.739257812 436.545898438 403.508789062 339 384 c 1
457.0703125 596.514648438 m 3x32
 457.0703125 663.259765625 416.079101562 704 327 704 c 3
 312 704 283 702 282 702 c 0
 271 701 265 696 262 685 c 9
 226 522 l 1
 197 395 l 1
 209 395 225 395 239 395 c 3
 359.977539062 395 457.0703125 470.012695312 457.0703125 596.514648438 c 3x32
EndSplineSet
Validated: 1
EndChar

StartChar: C
Encoding: 67 67 49
GlifName: C_
Width: 708
VWidth: 0
Flags: W
HStem: -10 42<228.906 430.045> 705 37<377.444 561.226>
VStem: 50.3899 90.3088<128.07 396.39>
LayerCount: 2
Fore
SplineSet
689.391601562 657 m 3
 712.391601562 657 716.391601562 684 728.391601562 684 c 3
 733.962422225 684 737 681.466796875 737 677.399414062 c 0
 737 676.099609375 736.799938515 673.633347813 736.391601562 672 c 2
 694.391601562 471 l 1
 694.391601562 471 687.391601562 467 685.391601562 467 c 0
 679.391601562 467 676.391601562 469 676.391601562 472 c 0
 676.391601562 573 632.391601562 705 472.391601562 705 c 3
 252.53057149 705 140.698686639 445.360710671 140.698686639 234.490676747 c 0
 140.698686639 45.4763348269 264.572889538 32 320.391601562 32 c 3
 489.391601562 32 609.391601562 181 610.391601562 186 c 5
 631.391601562 178 l 5
 631.391601562 178 526.391601562 -10 313.391601562 -10 c 7
 213.11328125 -10 50.3898927308 36.5721622637 50.3898927308 239.673993046 c 0
 50.3898927308 504.247317189 231.800077292 742 494.391601562 742 c 3
 620.391601562 742 658.391601562 657 689.391601562 657 c 3
EndSplineSet
Validated: 1
EndChar

StartChar: E
Encoding: 69 69 50
GlifName: E_
Width: 590
VWidth: 0
Flags: W
HStem: 0 21<14.1953 42.7273 182.986 368.243> 379 29<243.195 414.938> 709 21<185.195 221.041 320.911 490.55>
VStem: 433.994 14.2012<319.007 345.758> 468.195 14<444.673 467> 563.195 14<591 598.482>
LayerCount: 2
Fore
SplineSet
416.1953125 373 m 4
 389.383789062 377.373046875 362.1953125 379 331.1953125 379 c 4
 300.1953125 379 260.1953125 376 233.1953125 373 c 5
 163.1953125 55 l 6
 162.657226562 52.6669921875 162.375976562 50.2373046875 162.375976562 47.8095703125 c 4
 162.375976562 36.7080078125 168.24609375 25.640625 182.1953125 24 c 4
 199.1953125 22 208.1953125 21 225.1953125 21 c 4
 283.1953125 21 330.1953125 22 372.1953125 32 c 4
 432.1953125 47 464.1953125 79 490.1953125 139 c 5
 506.1953125 140 l 5
 457.1953125 0 l 5
 199.1953125 0 l 6
 10.1953125 0 l 5
 14.1953125 16 l 5
 24.1953125 16 33.1953125 16 43.1953125 18 c 4
 62.1953125 22 73.1953125 36 76.1953125 49 c 5
 82.1953125 67 124.1953125 247 162.1953125 411 c 4
 191.1953125 538 218.1953125 656 222.1953125 682 c 4
 222.733398438 684.333007812 223.014648438 686.666015625 223.014648438 688.946289062 c 4
 223.014648438 699.375976562 217.14453125 708.717773438 203.1953125 712 c 4
 196.1953125 714 189.1953125 714 181.1953125 714 c 5
 185.1953125 730 l 5
 375.1953125 730 l 5
 594.1953125 730 l 5
 577.1953125 590 l 5
 563.1953125 591 l 5
 563.28125 593.591796875 563.325195312 596.124023438 563.325195312 598.59765625 c 4
 563.325195312 653.40234375 541.9921875 679.8203125 493.1953125 698 c 4
 465.1953125 708 430.1953125 709 386.1953125 709 c 4
 367.1953125 709 358.1953125 708 339.1953125 706 c 4
 323.1953125 704 311.1953125 693 308.1953125 681 c 6
 243.1953125 413 l 5
 270.1953125 411 308.1953125 408 338.1953125 408 c 4
 373.1953125 408 399.1953125 411 428.1953125 414 c 4
 440.1953125 417 453.1953125 427 460.1953125 442 c 4
 464.1953125 451 467.1953125 466 468.1953125 467 c 13
 482.1953125 467 l 5
 448.1953125 319 l 5
 434.1953125 319 l 6
 434.055664062 319.139648438 433.994140625 319.474609375 433.994140625 319.979492188 c 4
 433.994140625 323.055664062 437.376953125 336.227539062 437.376953125 346.229492188 c 7
 437.376953125 361.19921875 427.703125 371.123046875 416.1953125 373 c 4
EndSplineSet
Validated: 1
EndChar

StartChar: F
Encoding: 70 70 51
GlifName: F_
Width: 580
VWidth: 0
Flags: W
HStem: 0 16<17 54.8066 161.041 197> 361 28.9258<231 402.757> 709 21<176 199.578 312.396 509.604>
VStem: 421.799 14.2012<301.007 327.715> 456 14<426.673 449> 582 15<591 599.504>
LayerCount: 2
Fore
SplineSet
331 706 m 0
 312 704 301 689 298 676 c 2
 231 394 l 1
 267.045898438 391.330078125 312.654296875 389.92578125 351.509765625 389.92578125 c 0
 395.080078125 389.92578125 433.208984375 392.305664062 448 424 c 0
 452 433 455 448 456 449 c 2
 470 449 l 1
 436 301 l 1
 422 301 l 2
 421.860351562 301.139648438 421.798828125 301.474609375 421.798828125 301.979492188 c 0
 421.798828125 305.0234375 425.181640625 317.266601562 425.181640625 328.229492188 c 3
 425.181640625 343.19921875 416.65234375 352.96875 404 355 c 0
 377.5078125 359.25390625 350 361 319 361 c 0
 288 361 249 358 222 355 c 1
 212 318 l 1
 154 48 l 2
 153.444335938 45.5908203125 153.163085938 43.25 153.163085938 41.0029296875 c 0
 153.163085938 31.1279296875 158.594726562 23.0732421875 170 19 c 0
 176.666992188 16.3330078125 182.888671875 15.888671875 189.555664062 15.888671875 c 0
 192.888671875 15.888671875 196.333007812 16 200 16 c 1
 197 0 l 1
 13 0 l 1
 17 16 l 1
 25 16 32 16 40 18 c 0
 59 22 70 35 73 48 c 1
 79 67 119 237 156 396 c 0
 187.172851562 529.959960938 218 676 218 676 c 2
 218.538085938 678.333007812 219.819335938 686.666015625 219.819335938 688.946289062 c 0
 219.819335938 699.375976562 213.94921875 708.717773438 200 712 c 0
 191 714 182 714 172 714 c 1
 176 730 l 1
 613 730 l 1
 597 590 l 1
 582 591 l 1
 582.098632812 593.9453125 582.1484375 596.82421875 582.1484375 599.635742188 c 0
 582.1484375 654.1015625 563.397460938 683.736328125 513 698 c 0
 477 708 434 709 379 709 c 0
 360 709 350 708 331 706 c 0
EndSplineSet
Validated: 1
EndChar

StartChar: G
Encoding: 71 71 52
GlifName: G_
Width: 732
VWidth: 0
Flags: W
HStem: -10 42<209.236 399.091> 286 16<513.811 543.588 648.189 684.811> 705 37<355.172 538.645>
VStem: 28.0381 89.6563<129.201 393.282>
LayerCount: 2
Fore
SplineSet
661.810546875 283 m 0
 642.810546875 279 630.810546875 266 627.810546875 253 c 2
 605.810546875 166 l 1
 599.810546875 141 592.810546875 136 573.810546875 114 c 0
 525.810546875 59 417.810546875 -10 291.810546875 -10 c 3
 195.239257812 -10 28.0380859375 36.0947265625 28.0380859375 241.110351562 c 3
 28.0380859375 505.043945312 209.890625 742 471.810546875 742 c 3
 597.810546875 742 635.810546875 657 666.810546875 657 c 3
 690.810546875 657 693.810546875 684 706.810546875 684 c 3
 712.048828125 684 715 680.189453125 715 675.229492188 c 0
 715 674.5078125 714.9375 673.76171875 714.810546875 673 c 2
 671.810546875 471 l 1
 671.810546875 471 663.810546875 467 661.810546875 467 c 0
 655.810546875 467 653.810546875 469 653.810546875 472 c 0
 653.810546875 573 609.810546875 705 449.810546875 705 c 3
 231.166992188 705 117.694335938 448.264648438 117.694335938 238.26953125 c 3
 117.694335938 45.6552734375 247.622070312 32 303.810546875 32 c 3
 387.810546875 32 516.810546875 95 533.810546875 168 c 1
 551.810546875 253 l 2
 552.348632812 255.333007812 552.629882812 257.666015625 552.629882812 259.946289062 c 0
 552.629882812 270.375976562 546.759765625 279.717773438 532.810546875 283 c 0
 525.810546875 285 518.810546875 286 510.810546875 286 c 1
 513.810546875 302 l 1
 688.810546875 302 l 1
 684.810546875 286 l 1
 676.810546875 286 669.810546875 285 661.810546875 283 c 0
EndSplineSet
Validated: 1
EndChar

StartChar: K
Encoding: 75 75 53
GlifName: K_
Width: 591
VWidth: 0
Flags: W
HStem: 0 16<26 48.625 186.329 204 371 407.186 534.377 556> 714 16<189 219.401 326.531 365 508 539.311 607.729 644>
LayerCount: 2
Fore
SplineSet
186 18 m 0
 193 17 201 16 208 16 c 1
 204 0 l 1
 22 0 l 1
 26 16 l 1
 33 16 41 17 49 18 c 0
 68 22 79 35 82 49 c 0
 111 167 138 285 165 403 c 0
 186 496 207 589 226 682 c 2
 226.538348415 684.332843133 226.819079927 686.665686266 226.819079927 688.94652153 c 0
 226.819079927 699.37586725 220.94935898 708.717797887 207 712 c 0
 200 714 192 714 185 714 c 1
 189 730 l 1
 200 730 308 730 368 730 c 1
 365 714 l 1
 358 714 350 714 342 712 c 0
 323 708 312 696 309 683 c 0
 241 388 l 1
 262 395 281 407 314 443 c 2
 513 656 l 2
 531.73446905 675.775272886 541.543033817 688.058516536 541.543033817 699.72570771 c 0
 541.543033817 707.726393853 532.969726562 711.671875 525 713 c 0
 519 714 512 714 504 714 c 1
 508 730 l 1
 648 730 l 1
 644 714 l 1
 637 714 629 713 620 711 c 0
 605 708 592 694 577 678 c 2
 338 418 l 1
 359 372 l 1
 425 236 487 100 513 39 c 0
 517.91297938 27.473394532 525 21 534 18 c 0
 542 17 553 16 560 16 c 1
 556 0 l 1
 368 0 l 1
 371 16 l 1
 378 16 384 17 391 18 c 0
 404.572795268 20.4677809577 416.936523438 26.380859375 416.936523438 44.119140625 c 3
 416.936523438 51.02734375 414.183346174 59.541634566 410 70 c 0
 364.567394232 167.567394232 319.35059724 265.35059724 274 363 c 1
 261 349 245 342 231 338 c 1
 167 49 l 2
 166.461651585 46.4877073952 166.180920073 44.0076169033 166.180920073 41.6059577416 c 0
 166.180920073 30.6241327502 172.05064102 21.2822021129 186 18 c 0
EndSplineSet
Validated: 1
EndChar

StartChar: Y
Encoding: 89 89 55
GlifName: Y_
Width: 580
VWidth: 0
Flags: W
HStem: 0 16<126 163.807 263.939 296> 714 16<101 129.058 244.514 283 528 559.372 627.368 662>
LayerCount: 2
Fore
SplineSet
182 49 m 1
 199 119 217 188 233 257 c 0
 243 300 252 343 260 386 c 1
 212 512 165 635 140 690 c 0
 131.8515625 709.556640625 120.681640625 714 97 714 c 1
 101 730 l 1
 286 730 l 1
 283 714 l 1
 260.255859375 714 233.233398438 709.82421875 233.233398438 684.791015625 c 3
 233.233398438 678.116210938 235.291992188 670.3828125 239 660 c 2
 328 431 l 5
 534 656 l 2
 551.559570312 675.1953125 561.588867188 687.06640625 561.588867188 700.006835938 c 0
 561.588867188 712.864257812 538.536132812 714 525 714 c 1
 528 730 l 1
 666 730 l 1
 662 714 l 1
 639 714 618 704 607 691 c 1
 339 396 l 1
 326 350 315 303 304 256 c 0
 288 187 275 123 260 54 c 2
 260 54 258.180664062 43.3017578125 258.180664062 40.96875 c 0
 258.180664062 18.3935546875 273.561523438 16 300 16 c 1
 296 0 l 1
 122 0 l 1
 126 16 l 1
 134 16 141 16 149 18 c 0
 168 22 179 36 182 49 c 1
EndSplineSet
EndChar

StartChar: Z
Encoding: 90 90 56
GlifName: Z_
Width: 671
VWidth: 0
Flags: W
HStem: 0 25<146.875 446.391> 708 22<331.253 605.312>
LayerCount: 2
Fore
SplineSet
684.370117188 682 m 5
 145.370117188 33 l 5
 177.370117188 28 216.370117188 25 257.370117188 25 c 4
 298.370117188 25 378.370117188 25 426.370117188 32 c 4
 490.370117188 41 526.370117188 85 554.370117188 153 c 5
 572.370117188 154 l 5
 512.370117188 0 l 5
 55.3701171875 0 l 6
 48.3701171875 0 35.3701171875 2.6826171875 35.3701171875 17 c 4
 35.3701171875 23 41.3701171875 31 45.3701171875 36 c 5
 605.370117188 704 l 5
 605.370117188 704 525.370117188 708 472.370117188 708 c 5
 417.370117188 708 374.370117188 707 334.370117188 698 c 4
 267.370117188 683 232.370117188 651 205.370117188 591 c 5
 190.370117188 590 l 5
 251.370117188 730 l 5
 253.370117188 733 257.370117188 735 261.370117188 735 c 7
 270.370117188 735 283.370117188 730 290.370117188 730 c 6
 698.370117188 730 l 21
 698.370117188 730 698.370117188 716 696.370117188 707 c 4
 694.581262806 698.950155281 691.370117188 690 684.370117188 682 c 5
EndSplineSet
Validated: 1
EndChar

StartChar: zero
Encoding: 48 48 57
GlifName: zero
Width: 480
VWidth: 0
Flags: W
HStem: -7 30<155.317 231.737> 611 29<287.141 360.209>
VStem: 45.2607 69.1367<81.6763 331.543> 401.47 67.1768<301.63 552.889>
LayerCount: 2
Fore
SplineSet
114.397460938 181.174804688 m 3
 114.397460938 87.2783203125 142.37109375 23 189.823242188 23 c 3
 282.873046875 23 401.469726562 254.998046875 401.469726562 454.315429688 c 3
 401.469726562 547.401367188 373.0234375 611 325.823242188 611 c 3
 232.970703125 611 114.397460938 369.754882812 114.397460938 181.174804688 c 3
332.823242188 640 m 3
 417.705078125 640 468.646484375 554.66015625 468.646484375 432.982421875 c 3
 468.646484375 212.1015625 315.790039062 -7 182.823242188 -7 c 3
 97.494140625 -7 45.2607421875 80.251953125 45.2607421875 202.943359375 c 3
 45.2607421875 423.841796875 200.271484375 640 332.823242188 640 c 3
EndSplineSet
EndChar

StartChar: one
Encoding: 49 49 58
GlifName: one
Width: 480
VWidth: 0
Flags: W
HStem: 0 16<128 158.54 240.165 264>
VStem: 124 253.192
LayerCount: 2
Fore
SplineSet
267 16 m 5
 264 0 l 5
 124 0 l 5
 128 16 l 5
 146 16 162 19 166 37 c 6
 281 532 l 6
 282.538085938 538.619140625 285.658203125 548.078125 285.658203125 553.505859375 c 4
 285.658203125 562.029296875 280.94140625 565 273 565 c 4
 263 565 240 563 240 563 c 5
 244 583 l 4
 281 598 326.811523438 618.90625 363 640 c 4
 364.931640625 641.125976562 369 643 371 643 c 7
 374.508789062 643 377.192382812 640.686523438 377.192382812 636.196289062 c 4
 377.192382812 635.513671875 377.129882812 634.782226562 377 634 c 6
 239 37 l 6
 238.556640625 34.8955078125 238.346679688 33 238.346679688 31.2919921875 c 4
 238.346679688 17.5810546875 251.8828125 16 267 16 c 5
EndSplineSet
EndChar

StartChar: two
Encoding: 50 50 59
GlifName: two
Width: 480
VWidth: 0
Flags: W
HStem: 0 54<94 336> 601 41<273.962 387.782>
VStem: 409.085 67.7637<460.23 580.98>
LayerCount: 2
Fore
SplineSet
197 530 m 5
 183 546 l 5
 183 546 254 642 353 642 c 4
 431.795898438 642 476.848632812 608.7890625 476.848632812 546.420898438 c 4
 476.848632812 454.47265625 417.07421875 399.412109375 307 282 c 4
 217 186 127 86 94 54 c 5
 290 54 l 6
 336 54 365 73 382 105 c 5
 395 103 l 5
 336 0 l 5
 13 0 l 4
 16 12 21 34 21 34 c 5
 145 157 233 263 302 340 c 4
 356.465820312 400.78125 409.084960938 456.703125 409.084960938 530.516601562 c 4
 409.084960938 580.596679688 370.693359375 601 323 601 c 4
 267 601 235 569 197 530 c 5
EndSplineSet
EndChar

StartChar: hyphen
Encoding: 45 45 60
GlifName: hyphen
Width: 388
VWidth: 0
Flags: W
HStem: 274.9 46.1992<63.1878 324.567>
VStem: 61.7158 264.942<274.965 321.1>
LayerCount: 2
Fore
SplineSet
66.6376953125 274.900390625 m 5
 63.3563594733 276.212680814 61.7158107724 281.216646691 61.7158107724 287.604930592 c 4
 61.7158107724 300.985871312 69.1159833408 321.099609375 77.1376953125 321.099609375 c 6
 323.887695312 321.099609375 l 5
 325.839899949 321.099609375 326.657742277 318.15094246 326.657742277 313.72942717 c 4
 326.657742277 302.861719705 321.490095431 274.900390625 313.387695312 274.900390625 c 6
 66.6376953125 274.900390625 l 5
EndSplineSet
EndChar

StartChar: backslash
Encoding: 92 92 61
GlifName: backslash
Width: 398
VWidth: 0
Flags: W
LayerCount: 2
Fore
SplineSet
356.16796875 -96 m 5
 347.367124621 -100.563400659 337.078807237 -103.052364588 327.000000706 -103.052364588 c 7
 306.158162313 -103.052364588 290.21222561 -90.3540548823 282.16796875 -58 c 5
 282.16796875 -58 132 425 43 676 c 5
 43 689.320058076 51.1803905918 696.25617942 63.9999991844 696.25617942 c 7
 76.2035415053 696.25617942 92.6111260858 689.655322072 110.16796875 676 c 5
 182.16796875 419 255.16796875 183 356.16796875 -96 c 5
EndSplineSet
Validated: 1
EndChar

StartChar: parenleft
Encoding: 40 40 62
GlifName: parenleft
Width: 376
VWidth: 0
Flags: W
VStem: 40.3714 47.8763<3.88285 276.621>
LayerCount: 2
Fore
SplineSet
336.025390625 756.724609375 m 1
 301.375 716.825195312 195.325195312 649.625 118.674804688 316.775390625 c 0
 96.285652321 219.974376229 88.2476856124 146.610277255 88.2476856124 90.2403962976 c 0
 88.2476856124 -33.15429825 126.764019452 -75.1160884085 137.575195312 -103.224609375 c 1
 127.075195312 -145.224609375 l 1
 127.075195312 -145.224609375 40.3714029369 -23.7027836425 40.3714029369 168.145010838 c 0
 40.3714029369 214.218688233 45.3720963148 264.348458177 57.775390625 317.825195312 c 0
 129.174804688 627.575195312 343.375 788.224609375 343.375 788.224609375 c 1
 336.025390625 756.724609375 l 1
EndSplineSet
Validated: 1
EndChar

StartChar: parenright
Encoding: 41 41 63
GlifName: parenright
Width: 382
VWidth: 0
Flags: W
VStem: 288.859 48.2414<375.209 647.395>
LayerCount: 2
Fore
SplineSet
241.174804688 756.724609375 m 5
 248.525390625 788.224609375 l 5
 248.525390625 788.224609375 337.100187839 686.330237897 337.100187839 488.375200311 c 0
 337.100187839 437.770356068 331.311751847 380.887868133 316.775390625 317.825195312 c 4
 252.724609375 41.6748046875 32.224609375 -145.224609375 32.224609375 -145.224609375 c 5
 42.724609375 -103.224609375 l 5
 77.375 -62.275390625 183.424804688 8.0751953125 254.825195312 316.775390625 c 4
 279.991941708 426.06183214 288.85874779 506.710099269 288.85874779 567.156790205 c 0
 288.85874779 690.81031506 251.753515898 729.925601197 241.174804688 756.724609375 c 5
EndSplineSet
Validated: 1
EndChar

StartChar: three
Encoding: 51 51 64
GlifName: three
Width: 480
VWidth: 0
Flags: W
HStem: -7 30<105.373 241.754> 309 66<293.257 318.689> 598 42<270.719 366.104>
VStem: 360.884 68.8187<137.118 267.844> 377.497 81.7003<498.942 587.824>
LayerCount: 2
Fore
SplineSet
174.256835938 522 m 9xe8
 164.256835938 537 l 1
 164.256835938 537 254.256835938 640 348.256835938 640 c 0
 422.216835938 640 459.196835938 611.1556 459.196835938 565.551864 c 0xe8
 459.196835938 483.58340258 365.109375 428.622070312 293.256835938 375 c 1
 361.416992188 375 429.702443149 316.951807248 429.702443149 232.896262512 c 0
 429.702443149 83.4468387736 293.492191848 -7 161.256835938 -7 c 0
 106.221876114 -7 40.000039826 15.3737529291 40.000039826 34.9184220771 c 0
 40.000039826 38.1897519894 40.9321070565 39.350542238 42.2568359375 42 c 0
 48.2568359375 49 58.2568359375 59 67.2568359375 59 c 0
 76.2568359375 59 85.2568359375 55 94.2568359375 46 c 0
 110.256835938 30 139.256835938 23 168.256835938 23 c 0
 262.597358907 23 360.883789062 89.9208984375 360.883789062 204.380859375 c 0xf0
 360.883789062 241.12109375 343.559005098 272.104121495 318.256835938 288 c 0
 297.03703326 301.331165527 269.256835938 309 244.256835938 309 c 0
 210.256835938 309 170.256835938 292 161.256835938 292 c 3
 156.413085938 292 153.256835938 295.752929688 153.256835938 301 c 3
 153.256835938 304.236328125 156.256835938 307 159.256835938 309 c 0
 164.278320312 312.364257812 377.496505359 443.688180404 377.496505359 541.768595041 c 0
 377.496505359 577.247933884 356.075017756 598 319.256835938 598 c 0
 275.256835938 598 215.256835938 568 174.256835938 522 c 9xe8
EndSplineSet
EndChar

StartChar: four
Encoding: 52 52 65
GlifName: four
Width: 480
VWidth: 0
Flags: W
HStem: 0 21G<210.258 269.696> 278 44<119.196 270.196 348.196 415.683>
LayerCount: 2
Fore
SplineSet
330.196289062 539 m 17
 266.196289062 464 179.196289062 381 119.196289062 322 c 1
 170.196289062 322 258.196289062 319 280.196289062 319 c 9
 330.196289062 539 l 17
377.196289062 628 m 1
 384.196289062 637 396.196289062 642 405.196289062 642 c 0
 411.521486017 642 419.479667319 638.734031305 419.479667319 630.726529968 c 0
 419.479667319 629.872250437 419.389089932 628.96400435 419.196289062 628 c 10
 348.196289062 321 l 17
 378.196289062 321 410.196289062 325 433.196289062 329 c 1
 423.928548616 320.89072711 415.712268239 308.099628997 415.712268239 291.145817283 c 0
 415.712268239 285.36249037 417.242125605 281.256939094 419.196289062 278 c 1
 337.196289062 278 l 25
 274.196289062 8 l 17
 273.196289062 3 272.196289062 0 267.196289062 0 c 1
 212.196289062 0 l 17
 208.320013419 0 206.84765625 1.2021484375 206.84765625 3.6064453125 c 0
 206.84765625 4.302734375 207.971679688 9.1005859375 208.196289062 10 c 2
 270.196289062 278 l 25
 270.196289062 278 60.1962890625 278 48.1962890625 278 c 0
 45.5982128511 278 43 281.25 43 284.451171875 c 0
 43 289.1640625 46.2314136732 293.035124611 49.1962890625 296 c 0
 160.196289062 407 279.196289062 517 377.196289062 628 c 1
EndSplineSet
EndChar

StartChar: semicolon
Encoding: 59 59 66
GlifName: semicolon
Width: 325
VWidth: 0
Flags: W
HStem: -77 10<56 72.5366> 355 102<186.859 252.22>
VStem: 110 79.31<-38.229 69.6919> 170.357 98.9024<371.821 440.486>
LayerCount: 2
Fore
SplineSet
232 457 m 0xd0
 254.311863449 457 269.2595368 440.062362777 269.2595368 417.562313213 c 0
 269.2595368 381.40795373 235.593916589 355 208 355 c 0
 185.286198003 355 170.357148836 370.569505659 170.357148836 392.778146554 c 0
 170.357148836 428.731987354 201.831755712 457 232 457 c 0xd0
151 91 m 0
 174.884796606 91 189.310045232 72.8085615787 189.310045232 51.9434992596 c 0
 189.310045232 -29.1717823671 124.439480733 -77 71 -77 c 0
 61 -77 56 -77 56 -77 c 1
 52 -67 l 1
 67.98793122 -67 110 -49.4580132306 110 -27 c 3xe0
 110 -2.16233729067 85.41015625 5.3818359375 85.41015625 26.8505859375 c 4
 85.41015625 63.1533203125 120.573200895 91 151 91 c 0
EndSplineSet
Validated: 1
EndChar

StartChar: colon
Encoding: 58 58 67
GlifName: colon
Width: 294
VWidth: 0
Flags: W
HStem: -11 102<71.395 136.802> 355 102<155.135 220.93>
VStem: 55.0002 98.5728<6.02268 74.7053> 138.736 98.8372<371.74 440.617>
LayerCount: 2
Fore
SplineSet
116.313476562 91 m 0xe0
 138.625340011 91 153.573013362 74.062362777 153.573013362 51.5623132131 c 0
 153.573013362 16.3137277521 120.705634485 -11 92.3134765625 -11 c 0
 69.2965298438 -11 55.0002388658 5.71459016983 55.0002388658 27.9925000352 c 0
 55.0002388658 63.4870598579 86.7358365317 91 116.313476562 91 c 0xe0
200.313476562 457 m 0
 222.625340011 457 237.573013362 440.062362777 237.573013362 417.562313213 c 0
 237.573013362 381.536089271 204.807913647 355 177.313476562 355 c 0
 154.434426566 355 138.735773397 370.79687302 138.735773397 393.263915839 c 0xd0
 138.735773397 428.962319371 170.412111409 457 200.313476562 457 c 0
EndSplineSet
Validated: 1
EndChar

StartChar: five
Encoding: 53 53 68
GlifName: five
Width: 480
VWidth: 0
Flags: W
HStem: -9 34<108.545 248.264> 334 69<184.543 326.143> 556 55<238.393 492.988>
VStem: 366.941 62.6086<161.954 293.314>
LayerCount: 2
Fore
SplineSet
491.392578125 616 m 0
 494.319385954 616.658114013 500.392578125 618 502.392578125 618 c 3
 507.773409645 618 511.54572184 615.587221013 511.54572184 612.20419162 c 0
 511.54572184 607.204023961 489.585044396 571.320777119 480.392578125 556 c 1
 238.392578125 556 l 25
 150.392578125 366 l 17
 200.392578125 391 247.392578125 403 288.392578125 403 c 0
 372.491079117 403 429.550098009 353.080956125 429.550098009 264.788844065 c 0
 429.550098009 120.921806853 305.609375 -9 178.392578125 -9 c 0
 137.392578125 -9 84 12 44.392578125 50 c 0
 42.5213664366 51.7952707042 42.0002732796 53.4641016151 42.0002732796 55.6076951546 c 0
 42.0002732796 63.8982711833 52.5368141411 72 57.392578125 72 c 3
 59.392578125 72 60.392578125 71 61.392578125 70 c 1
 83.392578125 37 142.392578125 25 177.392578125 25 c 0
 284.069335938 25 366.941453961 129.711441076 366.941453961 225.594503383 c 0
 366.941453961 289.574668434 325.648697867 334 248.392578125 334 c 0
 207.392578125 334 151.392578125 328 87.392578125 292 c 1
 231.392578125 611 l 17
 443.392578125 611 l 2
 461.392578125 611 478.05078125 613 491.392578125 616 c 0
EndSplineSet
EndChar

StartChar: equal
Encoding: 61 61 69
GlifName: equal
Width: 403
VWidth: 0
Flags: W
HStem: 222.4 46.1992<58.6126 319.992> 327.4 46.1992<82.7628 344.142>
VStem: 57.1406 286.322
LayerCount: 2
Fore
SplineSet
86.212890625 327.400390625 m 1
 82.9315071246 328.712699875 81.2905769267 333.716792057 81.2905769267 340.105208961 c 0
 81.2905769267 353.485568369 88.6908105817 373.599609375 96.712890625 373.599609375 c 2
 343.462890625 373.599609375 l 1
 345.414755702 373.599609375 346.232547542 370.65059698 346.232547542 366.228650108 c 0
 346.232547542 355.360555213 341.065324919 327.400390625 332.962890625 327.400390625 c 2
 86.212890625 327.400390625 l 1
62.0625 222.400390625 m 1
 58.7811641608 223.712680814 57.1406154599 228.716646691 57.1406154599 235.104930592 c 0
 57.1406154599 248.485871312 64.5407880283 268.599609375 72.5625 268.599609375 c 2
 319.3125 268.599609375 l 1
 321.264857116 268.599609375 322.082885713 265.650481826 322.082885713 261.228391103 c 0
 322.082885713 250.361054019 316.915130716 222.400390625 308.8125 222.400390625 c 2
 62.0625 222.400390625 l 1
EndSplineSet
Validated: 1
EndChar

StartChar: asterisk
Encoding: 42 42 70
GlifName: asterisk
Width: 383
VWidth: 0
Flags: W
HStem: 329.375 320.25
VStem: 41.9375 296.625
LayerCount: 2
Fore
SplineSet
225.424804688 649.625 m 2
 228.575195312 649.625 l 2
 233.277003984 649.625 237.1367977 646.256156902 237.1367977 641.027360084 c 0
 237.1367977 640.417726373 237.084329217 639.782809199 236.974609375 639.125 c 2
 213.875 521.525390625 l 1
 322.125 574.075195312 l 2
 324.224609375 575.125 327.275390625 576.125 328.325195312 576.125 c 0
 333.343436909 576.125 338.56274414 572.884036925 338.56274414 567.068847656 c 0
 338.56274414 560.188436057 335.604531833 555.614652044 330.424804688 553.025390625 c 2
 225.424804688 488.974609375 l 1
 301.025390625 424.924804688 l 2
 303.088173199 423.177188326 304.568481445 421.774841309 304.568481445 418.870788577 c 0
 304.568481445 414.127366789 302.35507987 410.562148364 299.974609375 408.125 c 0
 296.861980068 404.938260471 292.625 401.825195312 288.424804688 401.825195312 c 0
 287.375 401.825195312 285.705359345 401.931025337 284.224609375 402.875 c 2
 200.224609375 456.424804688 l 1
 168.724609375 339.875 l 2
 167.674804688 333.575195312 160.325195312 329.375 155.075195312 329.375 c 2
 151.924804688 329.375 l 2
 147.222996016 329.375 143.3632023 332.743843098 143.3632023 337.972639916 c 0
 143.3632023 338.582273627 143.415670783 339.217190801 143.525390625 339.875 c 2
 165.575195312 456.424804688 l 1
 55.3251953125 402.875 l 2
 53.6060043753 402.039967448 52.1748046875 401.825195312 50.0751953125 401.825195312 c 0
 45.8788912439 401.825195312 41.9375 406.91015625 41.9375 411.799804688 c 0
 41.9375 413.112304688 42.19921875 416.424804688 42.724609375 418.474609375 c 0
 43.5491712095 421.691626644 47.0216602681 423.71463237 49.025390625 424.924804688 c 2
 155.075195312 488.974609375 l 1
 79.4248046875 552.025390625 l 2
 77.59375 553.5546875 75.6973321023 556.531864095 75.6973321023 559.016264824 c 0
 75.6973321023 568.808173596 84.7182228561 576.125 91.025390625 576.125 c 0
 93.125 576.125 94.1748046875 576.125 96.275390625 575.075195312 c 2
 181.325195312 521.525390625 l 1
 212.825195312 639.125 l 2
 213.875 644.375 220.174804688 649.625 225.424804688 649.625 c 2
EndSplineSet
Validated: 1
EndChar

StartChar: numbersign
Encoding: 35 35 71
GlifName: numbersign
Width: 716
VWidth: 0
Flags: W
HStem: 224 55<50.0449 164.154 238.154 345.154 418.154 555.061> 483 55<157.045 281.154 356.154 462.154 535.154 662.154> 710 20G<400.154 434.331 580.154 613.393>
LayerCount: 2
Fore
SplineSet
403.154296875 730 m 2
 432.154296875 730 l 2
 436.508440342 730 440.345703125 729.241210938 440.345703125 725.083007812 c 0
 440.345703125 723.657226562 439.970927165 721.790683286 439.154296875 720 c 2
 356.154296875 538 l 1
 487.154296875 538 l 1
 570.154296875 720 l 2
 572.154296875 726 577.154296875 730 583.154296875 730 c 2
 611.154296875 730 l 2
 615.632516494 730 619.308558074 729.197821962 619.308558074 724.719602343 c 0
 619.308558074 723.866942428 619.022681275 721.904168203 618.154296875 720 c 2
 535.154296875 538 l 1
 668.154296875 538 l 2
 672.632516494 538 676.30859375 537.395507812 676.30859375 534.46875 c 0
 676.30859375 532.283203125 674.34375 528.307617188 673.154296875 526 c 2
 657.154296875 495 l 2
 654.154296875 489 648.154296875 483 642.154296875 483 c 2
 511.154296875 483 l 1
 418.154296875 279 l 1
 562.154296875 279 l 2
 566.6328125 279 569.30859375 277.395507812 569.30859375 274.46875 c 0
 569.30859375 273.129882812 568.379421981 271.382187706 567.154296875 269 c 2
 549.154296875 234 l 2
 546.154296875 228 540.154296875 224 534.154296875 224 c 2
 393.154296875 224 l 1
 300.154296875 20 l 2
 297.545523375 14.2775290958 295.154296875 10 289.154296875 10 c 2
 259.154296875 10 l 2
 254.127962836 10 250.909179688 11.806640625 250.909179688 15.2451171875 c 0
 250.909179688 16.10546875 251.381434444 18.304688861 252.154296875 20 c 2
 345.154296875 224 l 1
 213.154296875 224 l 1
 121.154296875 20 l 2
 118.567715405 14.2645367412 115.154296875 10 109.154296875 10 c 2
 78.154296875 10 l 2
 73.127962836 10 70 11.5615234375 70 16 c 0
 70 16.8603515625 70.5868059749 18.7551812513 71.154296875 20 c 2
 164.154296875 224 l 1
 45.154296875 224 l 2
 40.6760772563 224 37 225.40625 37 229.500976562 c 0
 37 231.749023438 38.1446182537 234.040035617 39.154296875 236 c 2
 56.154296875 269 l 2
 59.154296875 275 65.154296875 279 71.154296875 279 c 2
 189.154296875 279 l 1
 281.154296875 483 l 1
 152.154296875 483 l 2
 147.800153408 483 143.962890625 484.275390625 143.962890625 488.165039062 c 0
 143.962890625 490.293945312 145.423145505 493.580706164 146.154296875 495 c 2
 163.154296875 528 l 2
 166.154296875 534 172.154296875 538 178.154296875 538 c 2
 306.154296875 538 l 1
 389.154296875 720 l 2
 391.154296875 726 397.154296875 730 403.154296875 730 c 2
331.154296875 483 m 1
 238.154296875 279 l 1
 369.154296875 279 l 1
 462.154296875 483 l 1
 331.154296875 483 l 1
EndSplineSet
Validated: 1
EndChar

StartChar: six
Encoding: 54 54 72
GlifName: six
Width: 480
VWidth: 0
Flags: W
HStem: -8 25<149.313 245.086> 347 53<232.972 340.842> 608 29<402.891 456.571>
VStem: 32.2529 67.4941<78.6391 300.03> 371.649 66.6602<160.768 315.56>
LayerCount: 2
Fore
SplineSet
446.571289062 608 m 0
 257.498046875 559.380859375 99.7470703125 386.671875 99.7470703125 161.2109375 c 0
 99.7470703125 85.4248046875 123.432617188 17 190.571289062 17 c 0
 281.595703125 17 371.649414062 113.40625 371.649414062 247.5078125 c 0
 371.649414062 318.509765625 328.735351562 347 272.571289062 347 c 0
 222.571289062 347 190.571289062 322 165.571289062 298 c 0
 163.409179688 296.270507812 160.98828125 295.551757812 158.750976562 295.551757812 c 0
 155.561523438 295.551757812 151.015625 299.0703125 151.015625 302.185546875 c 0
 151.015625 305.923828125 152.772460938 309.201171875 156.571289062 313 c 0
 184.571289062 345 232.571289062 400 315.571289062 400 c 0
 373.42578125 400 438.309570312 364.145507812 438.309570312 267.08984375 c 0
 438.309570312 118.333007812 317.560546875 -8 183.571289062 -8 c 0
 91.2734375 -8 32.2529296875 74.173828125 32.2529296875 180.31640625 c 0
 32.2529296875 454.044921875 268.833007812 597.887695312 456.571289062 637 c 1
 456.571289062 637 458.258789062 631.9375 458.258789062 626.03125 c 0
 458.258789062 617.16015625 455.409179688 610.525390625 446.571289062 608 c 0
EndSplineSet
EndChar

StartChar: nine
Encoding: 57 57 73
GlifName: nine
Width: 480
VWidth: 0
Flags: W
HStem: 253 44<157.958 268.436> 616 25<242.9 344.402>
VStem: 70.7153 61.8603<323.484 485.948> 393.192 59.8186<351.481 574.466>
LayerCount: 2
Fore
SplineSet
34.6875 12 m 4
 213.73046875 71.6806640625 393.191722589 248.718653446 393.191722589 488.647357473 c 0
 393.191722589 564.393907306 365.607708085 616 292.6875 616 c 0
 217.872090657 616 132.575601223 532.351222753 132.575601223 401.76448137 c 0
 132.575601223 337.777459292 161.219506271 297 205.6875 297 c 0
 252.6875 297 300.6875 323 324.6875 347 c 0
 328.6875 351 331.6875 352 333.6875 352 c 3
 336.28515625 352 339.883789062 348.75 339.883789062 344.899414062 c 0
 339.883789062 340.536132812 335.913253448 336.301004598 332.6875 332 c 0
 304.6875 300 263.6875 253 186.6875 253 c 0
 132.520833333 253 70.7152777778 288.416666667 70.7152777778 384.134259259 c 0
 70.7152777778 531.694444254 190.981192293 641 298.6875 641 c 0
 395.282333864 641 453.010274446 587.714743081 453.010274446 478.662512494 c 0
 453.010274446 188.397586601 221.864603028 31.4809833985 43.6875 -15 c 1
 43.6875 -15 42 -10.5 42 -5.296875 c 0
 42 3.22221023332 26.0771484375 9.5400390625 34.6875 12 c 4
EndSplineSet
EndChar

StartChar: exclam
Encoding: 33 33 74
GlifName: exclam
Width: 324
VWidth: 0
Flags: W
HStem: -11 102<58.395 123.802>
VStem: 42.0002 98.5728<6.02268 74.7053> 112.371 39.7428<197.177 247.977> 207.764 77.8582<686.465 748.748>
LayerCount: 2
Fore
SplineSet
103.313476562 91 m 3xd0
 125.625340011 91 140.573013362 74.062362777 140.573013362 51.5623132131 c 3
 140.573013362 16.3137277521 107.705634485 -11 79.3134765625 -11 c 3
 56.2965298438 -11 42.0002388658 5.71459016983 42.0002388658 27.9925000352 c 3
 42.0002388658 63.4870598579 73.7358365317 91 103.313476562 91 c 3xd0
255.013671875 758.375 m 2
 257.11328125 758.375 l 2
 277.220140738 758.375 285.621849182 746.053908999 285.621849182 728.961763275 c 0
 285.621849182 723.739692026 284.837589265 718.072265288 283.36328125 712.174804688 c 1
 152.11328125 221.825195312 l 2
 147.913085938 206.075195312 139.513671875 196.625 127.963867188 196.625 c 16
 117.754427316 196.625 112.370509551 202.828876368 112.370509551 213.560922693 c 0xb0
 112.370509551 216.074468065 112.665839029 218.836401718 113.263671875 221.825195312 c 2
 207.763671875 712.174804688 l 1
 214.063476562 738.424804688 231.913085938 758.375 255.013671875 758.375 c 2
EndSplineSet
EndChar

StartChar: percent
Encoding: 37 37 75
GlifName: percent
Width: 780
VWidth: 0
Flags: W
HStem: 10.6052 26.2315<495.969 567.725> 271.167 26.2071<139.231 211.088> 348.477 26.3358<569.693 641.914> 575.94 23.6537<356.742 522.546> 598.554 36.8173<198.51 291.491>
VStem: 57.9764 56.6182<313.01 489.218> 312.415 37.6696<428.381 588.664> 414.27 56.6385<52.6839 230.733> 668.575 38.6195<162.504 328.567>
LayerCount: 2
Fore
SplineSet
614.832382966 374.812888209 m 7xe780
 675.052401787 374.812888209 707.194764656 337.735018888 707.194764656 270.213040532 c 7
 707.194764656 124.301293963 608.172701321 10.6051779154 513.863435896 10.6051779154 c 7
 451.564818083 10.6051779154 414.26974159 50.5568722083 414.26974159 122.696563567 c 7
 414.26974159 269.058465522 521.790353687 374.812888209 614.832382966 374.812888209 c 7xe780
470.908202534 124.478575741 m 7
 470.908202534 68.4716007481 493.762352901 36.8367056715 528.150457379 36.8367056715 c 7
 594.168196892 36.8367056715 668.575307246 145.142631867 668.575307246 261.79265635 c 7
 668.575307246 316.498517982 645.357970702 348.477091579 604.956068351 348.477091579 c 7
 548.495243239 348.477091579 470.908202534 239.140041143 470.908202534 124.478575741 c 7
316.718888227 617.567771871 m 5
 375.718411512 609.439386907 411.997344435 599.593950703 442.706305542 599.593950703 c 4
 583.602144512 599.593950703 573.507934503 662.998292043 636.546002509 662.998292043 c 4
 642.569360879 662.998292043 647.829186667 662.116084172 649.993164062 659.9453125 c 6
 660.729492188 649.193359375 l 6
 663.180992025 646.733772116 664.572221014 645.502243687 664.572221014 643.118379857 c 7
 664.572221014 640.318905931 662.894881827 637.77857025 661.34765625 635.875 c 6
 132.892578125 -15.197265625 l 6
 131.266909182 -17.2012170448 129.161349242 -17.904296875 127.124023438 -17.904296875 c 7
 123.324014457 -17.904296875 119.57421875 -15.814453125 116.772460938 -13.8447265625 c 6
 102.463867188 -5.958984375 l 6
 100.296062607 -4.43366023148 99.4530061283 -2.50629024457 99.4530061283 -0.486625874784 c 7
 99.4530061283 2.20110914188 100.94604516 5.05229597881 102.796875 7.3369140625 c 6
 606.603638337 629.181256179 l 5
 567.28829766 610.162860717 536.574732255 575.940249577 437.961982685 575.940249577 c 4xf780
 402.574841375 575.940249577 374.76498695 583.102407106 338.459876696 590.087446852 c 5
 346.136581822 574.238254815 350.084266576 554.384836853 350.084266576 530.774663115 c 7
 350.084266576 384.86239786 251.060775269 271.166744176 156.752326722 271.166744176 c 7
 94.6696483886 271.166744176 57.9763777746 310.816446046 57.9763777746 382.470560496 c 7
 57.9763777746 527.830811529 162.807673377 635.371032444 258.068306397 635.371032444 c 7xef80
 282.413164189 635.371032444 301.892084313 629.211666796 316.718888227 617.567771871 c 5
114.594575398 384.202941823 m 7
 114.594575398 328.727150813 137.087421544 297.373882583 171.987622811 297.373882583 c 7
 238.004536577 297.373882583 312.414658392 405.676020433 312.414658392 522.32912656 c 7
 312.414658392 558.245879969 302.439345308 584.008192839 284.411157029 597.700982324 c 5
 276.941383782 598.245620586 268.284179688 598.553710938 260.41796875 598.553710938 c 4xef80
 242.783203125 598.553710938 225.094457383 597.00399411 205.101143486 593.090755921 c 5
 164.049641293 563.720568651 114.594575398 473.717580859 114.594575398 384.202941823 c 7
EndSplineSet
Validated: 1
EndChar

StartChar: seven
Encoding: 55 55 76
GlifName: seven
Width: 480
VWidth: 0
Flags: W
HStem: 0 21G<49 143> 562 60<152.144 415>
LayerCount: 2
Fore
SplineSet
415 562 m 5
 166 562 l 4
 151 562 137 546 137 546 c 6
 131 546 127 553 127 553 c 6
 152 612 l 6
 155 617 162 622 168 622 c 6
 427 622 l 5
 490 622 l 6
 495.026367188 622 497.245117188 619.193359375 497.245117188 614.754882812 c 4
 497.245117188 608.020507812 490.02734375 599.84375 487 596 c 4
 338.614257812 407.596679688 174 166 112 0 c 5
 49 0 l 5
 110 165 284 413 415 562 c 5
EndSplineSet
EndChar

StartChar: eight
Encoding: 56 56 77
GlifName: eight
Width: 480
VWidth: 0
Flags: W
HStem: -8 24<150.864 244.7> 623 20<286.856 370.38>
VStem: 41.9996 65.0385<49.4946 196.879> 152.442 58.2707<430.831 557.677> 345.472 60.8143<107.35 239.855> 409.978 49.3517<478.314 598.973>
LayerCount: 2
Fore
SplineSet
195.65625 16 m 0
 268.824995549 16 345.471679688 91.7685546875 345.471679688 165.485351562 c 0
 345.471679688 227.646484375 296.063995859 289.393662479 247.65625 329 c 1
 163.425066071 264.773722254 107.038085938 217.462890625 107.038085938 114.481445312 c 0
 107.038085938 57.53515625 141.096956262 16 195.65625 16 c 0
285.65625 380 m 1
 328.957390975 417.749712645 409.977539062 465.3203125 409.977539062 534.71484375 c 0
 409.977539062 575.627929688 386.414697337 623 335.65625 623 c 0
 250.223664739 623 210.712890625 552.766601562 210.712890625 490.454101562 c 0
 210.712890625 438.561523438 251.184622486 411.108541903 285.65625 380 c 1
306.65625 367 m 1
 307.65625 365 309.65625 364 311.65625 362 c 0
 362.436050825 312.052654927 406.286025872 262.105309853 406.286025872 189.659748819 c 0
 406.286025872 87.3032454648 307.984013818 -8 188.65625 -8 c 0
 114.147746185 -8 41.9995812901 38.4199987678 41.9995812901 115.208796329 c 0
 41.9995812901 220.146531308 132.365188565 273.9142929 225.65625 341 c 1
 189.049235243 375.166547106 152.442220486 407.347800095 152.442220486 470.920743009 c 0
 152.442220486 553.770061042 202.830640367 643 340.65625 643 c 0
 406.285141876 643 459.329223091 599.739713351 459.329223091 541.122085262 c 0
 459.329223091 457.584573237 360.210574301 408.772372955 306.65625 367 c 1
EndSplineSet
EndChar

StartChar: question
Encoding: 63 63 78
GlifName: question
Width: 578
VWidth: 0
Flags: W
HStem: -10 102<152.395 217.802> 740.575 28.7998<287.066 389.654>
VStem: 136 98.5728<7.02268 75.7053> 144.209 82.4539<637.833 695.851> 440.215 70.9212<568.272 695.467>
LayerCount: 2
Fore
SplineSet
193.05078125 210.950195312 m 1xd8
 199.282226562 259.989257812 197.809570312 349.4140625 202 362 c 0
 219.086914062 413.325195312 273.99971841 445.178567934 317.213867188 479.625 c 0
 391.32383159 538.698797041 440.214935958 560.073040493 440.214935958 643.542126775 c 0
 440.214935958 701.728028651 388.240903649 740.575195312 338.213867188 740.575195312 c 0
 278.36328125 740.575195312 237.163085938 689.625 226.663085938 666.525390625 c 0
 215.11328125 639.224609375 189.11328125 623.575195312 172.313476562 623.575195312 c 0
 156.234728145 623.575195312 144.209164339 637.832369366 144.209164339 656.310898962 c 0
 144.209164339 720.415184821 263.682114067 769.375 337.763671875 769.375 c 0
 412.375022951 769.375 511.136179393 720.144666545 511.136179393 626.959236661 c 0
 511.136179393 521.260788325 429.636181285 498.281065227 361.463867188 450.224609375 c 0
 319.463867188 420.825195312 278 394 260.11328125 350.075195312 c 0
 236.791992188 292.805664062 232.36328125 203.625 232.36328125 203.625 c 1
 193.05078125 210.950195312 l 1xd8
197.313476562 92 m 0
 219.625340011 92 234.573013362 75.062362777 234.573013362 52.5623132131 c 0
 234.573013362 17.313727752 201.705634485 -10 173.313476562 -10 c 0
 150.296529843 -10 136.000238865 6.71459016983 136.000238865 28.9925000352 c 0xe8
 136.000238865 64.487059858 167.735836531 92 197.313476562 92 c 0
EndSplineSet
EndChar

StartChar: quotesingle
Encoding: 39 39 79
GlifName: quotesingle
Width: 141
VWidth: 0
Flags: W
HStem: 496.85 174.301<57.8745 72.4375>
VStem: 35.4619 33.8584<496.862 529.087> 53.5205 60.0078<585.561 667.234>
LayerCount: 2
Fore
SplineSet
88.2197265625 671.150390625 m 6xa0
 92.419921875 671.150390625 l 6
 106.11328125 671.150390625 113.528320312 662.779296875 113.528320312 649.44921875 c 7xa0
 113.528320312 644.737304688 111.03515625 636.887695312 109.219726562 631.25 c 6
 69.3203125 507.349609375 l 6
 68.2705078125 501.049804688 63.0205078125 496.849609375 56.7197265625 496.849609375 c 6
 43.0703125 496.849609375 l 6
 37.79296875 496.849609375 35.4619140625 499.797851562 35.4619140625 504.458007812 c 4xc0
 35.4619140625 505.360351562 35.5498046875 506.327148438 35.7197265625 507.349609375 c 6
 53.5205078125 636.25 l 5
 56.5205078125 656.103515625 74.6884765625 671.150390625 88.2197265625 671.150390625 c 6xa0
EndSplineSet
Validated: 1
EndChar

StartChar: quotedbl
Encoding: 34 34 80
GlifName: quotedbl
Width: 282
VWidth: 0
Flags: W
HStem: 496.85 174.301<76.8745 91.4375 189.875 204.437>
VStem: 54.4619 33.8584<496.862 529.087> 72.5205 60.0078<585.561 667.234> 167.462 33.8584<496.862 529.087> 185.521 60.0078<585.561 667.234>
LayerCount: 2
Fore
SplineSet
220.219726562 671.150390625 m 2x88
 224.419921875 671.150390625 l 2
 238.11328125 671.150390625 245.528320312 662.779296875 245.528320312 649.44921875 c 3x88
 245.528320312 644.737304688 243.03515625 636.887695312 241.219726562 631.25 c 2
 201.3203125 507.349609375 l 2
 200.270507812 501.049804688 195.020507812 496.849609375 188.719726562 496.849609375 c 2
 175.0703125 496.849609375 l 2
 169.79296875 496.849609375 167.461914062 499.797851562 167.461914062 504.458007812 c 0x90
 167.461914062 505.360351562 167.549804688 506.327148438 167.719726562 507.349609375 c 2
 185.520507812 636.25 l 1
 188.520507812 656.103515625 206.688476562 671.150390625 220.219726562 671.150390625 c 2x88
107.219726562 671.150390625 m 2
 111.419921875 671.150390625 l 2
 125.11328125 671.150390625 132.528320312 662.779296875 132.528320312 649.44921875 c 3xa0
 132.528320312 644.737304688 130.03515625 636.887695312 128.219726562 631.25 c 2
 88.3203125 507.349609375 l 2
 87.2705078125 501.049804688 82.0205078125 496.849609375 75.7197265625 496.849609375 c 2
 62.0703125 496.849609375 l 2
 56.79296875 496.849609375 54.4619140625 499.797851562 54.4619140625 504.458007812 c 0xc0
 54.4619140625 505.360351562 54.5498046875 506.327148438 54.7197265625 507.349609375 c 2
 72.5205078125 636.25 l 1xa0
 75.5205078125 656.103515625 93.6884765625 671.150390625 107.219726562 671.150390625 c 2
EndSplineSet
EndChar

StartChar: underscore
Encoding: 95 95 81
GlifName: underscore
Width: 429
VWidth: 0
Flags: W
HStem: -4 42<61.1283 360.028>
VStem: 59.8156 301.519<-4 38>
LayerCount: 2
Fore
SplineSet
65.271484375 -4 m 1
 61.2774549283 -4 59.8156105274 0.22043925156 59.8156105274 5.9855905719 c 0
 59.8156105274 18.9113805769 66.108174572 38 74.7216796875 38 c 2
 356.12109375 38 l 1
 359.708887404 38 361.335102102 33.5865613668 361.335102102 27.4407281125 c 0
 361.335102102 14.7784177057 354.691260891 -4 346.670898438 -4 c 6
 65.271484375 -4 l 1
EndSplineSet
Validated: 1
EndChar

StartChar: bracketleft
Encoding: 91 91 82
GlifName: bracketleft
Width: 438
VWidth: 0
Flags: W
HStem: -103.15 46.2002<91.8799 221.206> 696.95 46.2002<265.13 404.888>
LayerCount: 2
Fore
SplineSet
265.129882812 696.950195312 m 5
 91.8798828125 -56.9501953125 l 5
 217.879882812 -56.9501953125 l 6
 221.467676466 -56.9501953125 223.093891164 -61.853914667 223.093891164 -68.6452567807 c 4
 223.093891164 -82.6027096644 214.134105857 -103.150390625 207.379882812 -103.150390625 c 6
 46.73046875 -103.150390625 l 5
 36.7900250681 -103.150390625 32.0775086738 -99.2291412808 32.0775086738 -90.3567797099 c 4
 32.0775086738 -87.9824647721 32.4149910199 -85.2535806763 33.080078125 -82.150390625 c 6
 218.9296875 722.150390625 l 6
 222.080078125 736.849609375 230.48046875 743.150390625 246.23046875 743.150390625 c 5
 402.6796875 743.150390625 l 6
 405.895817487 743.150390625 407.141758504 739.210012686 407.141758504 733.501551658 c 4
 407.141758504 719.869922339 399.190619503 696.950195312 392.1796875 696.950195312 c 6
 265.129882812 696.950195312 l 5
EndSplineSet
Validated: 1
EndChar

StartChar: bracketright
Encoding: 93 93 83
GlifName: bracketright
Width: 441
VWidth: 0
Flags: W
HStem: -103.15 46.2002<31.8061 172.487> 696.95 46.2002<216.606 346.787>
LayerCount: 2
Fore
SplineSet
346.787109375 696.950195312 m 5
 219.737304688 696.950195312 l 6
 216.456207269 696.950195312 214.815658559 701.871460008 214.815658559 708.382077771 c 4
 214.815658559 721.7689316 222.275616369 743.150390625 230.237304688 743.150390625 c 6
 387.737304688 743.150390625 l 5
 400.600677957 743.150390625 406.460183634 738.947548949 406.460183634 729.399099723 c 4
 406.460183634 727.25636405 406.165108582 724.844432388 405.587890625 722.150390625 c 6
 219.737304688 -82.150390625 l 6
 216.587890625 -96.849609375 208.1875 -103.150390625 195.587890625 -103.150390625 c 5
 34.9375 -103.150390625 l 6
 31.6561641608 -103.150390625 30.0156154599 -98.2280292103 30.0156154599 -91.7164212724 c 4
 30.0156154599 -78.3289351101 37.4760040187 -56.9501953125 45.4375 -56.9501953125 c 6
 172.487304688 -56.9501953125 l 5
 346.787109375 696.950195312 l 5
EndSplineSet
Validated: 1
EndChar

StartChar: bar
Encoding: 124 124 84
GlifName: bar
Width: 314
VWidth: 0
Flags: W
VStem: 95.2139 102.848
LayerCount: 2
Fore
SplineSet
147.944335938 -66.5498046875 m 5
 145.844726562 -73.900390625 131.14453125 -77.0498046875 118.544921875 -77.0498046875 c 7
 106.87890625 -77.0498046875 95.2138671875 -74.3505859375 95.2138671875 -68.1162109375 c 4
 95.2138671875 -67.6171875 95.2890625 -67.0947265625 95.4443359375 -66.5498046875 c 6
 145.495117188 755.599609375 l 5
 146.544921875 761.900390625 161.245117188 765.049804688 174.89453125 765.049804688 c 7
 186.959960938 765.049804688 198.061523438 762.162109375 198.061523438 756.385742188 c 4
 198.061523438 756.12890625 198.040039062 755.8671875 197.995117188 755.599609375 c 6
 147.944335938 -66.5498046875 l 5
EndSplineSet
Validated: 1
EndChar

StartChar: asciitilde
Encoding: 126 126 85
GlifName: asciitilde
Width: 540
VWidth: 0
Flags: W
HStem: 229.7 69.2998<289.972 392.095> 301.1 67.2002<138.575 236.521>
LayerCount: 2
Fore
SplineSet
198.1015625 368.299804688 m 7
 273.701171875 368.299804688 274.750976562 299 354.551757812 299 c 7
 411.250976562 299 472.151367188 351.5 479.500976562 351.5 c 7
 484.203212553 351.5 488.063280529 348.972712542 488.063280529 345.428140118 c 4
 488.063280529 345.01523247 488.010899612 344.58852032 487.901367188 344.150390625 c 4
 481.6015625 318.950195312 392.3515625 229.700195312 328.301757812 229.700195312 c 7
 251.651367188 229.700195312 253.750976562 301.099609375 178.151367188 301.099609375 c 7
 133.000976562 301.099609375 79.451171875 258.049804688 59.5009765625 258.049804688 c 7
 55.196990524 258.049804688 51.5992170103 260.872685793 51.5992170103 265.939490128 c 4
 51.5992170103 267.053171167 51.7730319909 268.275260217 52.1513671875 269.599609375 c 4
 54.2509765625 276.950195312 138.250976562 368.299804688 198.1015625 368.299804688 c 7
EndSplineSet
Validated: 1
EndChar

StartChar: dieresis
Encoding: 168 168 86
GlifName: dieresis
Width: 433
VWidth: 0
Flags: W
HStem: 621.7 96.5996<150.316 214.055 368.716 432.455>
VStem: 135.581 93.2102<636.362 703.638> 353.981 93.2102<636.362 703.638>
LayerCount: 2
Fore
SplineSet
412.135742188 718.299804688 m 0
 433.402085577 718.299804688 447.190744594 703.344435945 447.190744594 682.268358678 c 0
 447.190744594 647.596592534 416.647216034 621.700195312 389.036132812 621.700195312 c 4
 367.769336813 621.700195312 353.980543483 636.65620065 353.980543483 657.732987012 c 0
 353.980543483 692.404424174 384.524285748 718.299804688 412.135742188 718.299804688 c 0
193.735351562 718.299804688 m 0
 215.002147561 718.299804688 228.790940892 703.34379935 228.790940892 682.267012989 c 0
 228.790940892 647.595575826 198.247198626 621.700195312 170.635742188 621.700195312 c 0
 149.369398798 621.700195312 135.58073978 636.655564056 135.58073978 657.731641323 c 0
 135.58073978 692.403407466 166.124268341 718.299804688 193.735351562 718.299804688 c 0
EndSplineSet
Validated: 1
EndChar

StartChar: grave
Encoding: 96 96 93
GlifName: grave
Width: 283
VWidth: 0
Flags: W
HStem: 534 210
VStem: 62.9996 79.3783<686.156 731.829>
LayerCount: 2
Fore
SplineSet
208.377929688 534 m 5
 167.377929688 569 79.3779296875 653 69.3779296875 668 c 4
 65.2354351286 674.213741838 62.9996362553 681.38083152 62.9996362553 689.172165856 c 4
 62.9996362553 718.704002895 90.8306265925 744 115.377929688 744 c 7
 126.377929688 744 136.377929688 740 142.377929688 731 c 4
 152.377929688 716 202.377929688 599 224.377929688 547 c 13
 208.377929688 534 l 5
EndSplineSet
Validated: 1
EndChar

StartChar: acute
Encoding: 180 180 94
GlifName: acute
Width: 295
VWidth: 0
Flags: W
HStem: 534 209.904
VStem: 29.4678 209.904
LayerCount: 2
Fore
SplineSet
42.7177734375 534 m 5
 29.4677734375 547.25 l 21
 65.4345703125 598.962890625 148.587890625 715.978515625 163.440429688 730.830078125 c 4
 172.156608181 739.545683525 183.513168538 743.903593683 194.869635556 743.903593683 c 4
 206.22591589 743.903593683 217.582102888 739.545826799 226.297851562 730.830078125 c 4
 235.013549808 722.114868153 239.371459964 710.758863013 239.371459964 699.402576757 c 4
 239.371459964 688.045972403 235.013305668 676.689086918 226.296875 667.97265625 c 4
 211.4453125 653.12109375 95.138671875 569.259765625 42.7177734375 534 c 5
EndSplineSet
Validated: 1
EndChar

StartChar: less
Encoding: 60 60 114
GlifName: less
Width: 513
VWidth: 0
Flags: W
LayerCount: 2
Fore
SplineSet
151 314 m 5
 374 152 l 5
 359 84 l 5
 49 304 l 5
 52 320 l 5
 464 540 l 5
 449 476 l 5
 151 314 l 5
EndSplineSet
Validated: 1
EndChar

StartChar: greater
Encoding: 62 62 115
GlifName: greater
Width: 509
VWidth: 0
Flags: W
LayerCount: 2
Fore
SplineSet
359 314 m 5
 136 476 l 5
 150 540 l 5
 460 320 l 5
 457 304 l 5
 45 84 l 5
 61 152 l 5
 359 314 l 5
EndSplineSet
Validated: 1
EndChar

StartChar: asciicircum
Encoding: 94 94 116
GlifName: asciicircum
Width: 458
VWidth: 0
Flags: W
HStem: 554.075 206.85
LayerCount: 2
Fore
SplineSet
425.224609375 575.075195312 m 5
 418.924804688 563.525390625 409.474609375 557.224609375 400.025390625 554.075195312 c 5
 274.025390625 670.625 l 5
 94.474609375 554.075195312 l 5
 85.025390625 557.224609375 79.775390625 564.575195312 79.775390625 575.075195312 c 5
 295.025390625 760.924804688 l 5
 425.224609375 575.075195312 l 5
EndSplineSet
Validated: 1
EndChar

StartChar: divide
Encoding: 247 247 137
GlifName: divide
Width: 354
VWidth: 0
Flags: W
HStem: 152.1 75.6006<122.517 179.056> 274.95 46.2002<46.1878 307.567> 367.35 74.5508<171.368 228.395>
VStem: 114.523 72.8128<160.477 219.65> 163.873 72.8119<375.908 434.245>
LayerCount: 2
Fore
SplineSet
209.237304688 441.900390625 m 0xe8
 225.211617149 441.900390625 236.68505212 430.649592084 236.68505212 414.487326815 c 0
 236.68505212 387.959886703 211.757806216 367.349609375 191.387695312 367.349609375 c 0
 174.687072616 367.349609375 163.873130987 379.12297151 163.873130987 395.277372761 c 0
 163.873130987 422.190968679 187.510829731 441.900390625 209.237304688 441.900390625 c 0xe8
159.887695312 227.700195312 m 0
 175.861318981 227.700195312 187.335383399 215.699277829 187.335383399 199.304600332 c 0
 187.335383399 172.730461488 162.449769867 152.099609375 142.037109375 152.099609375 c 4
 125.337148789 152.099609375 114.522610115 163.873190605 114.522610115 180.027823695 c 0xf0
 114.522610115 206.840405946 138.249004879 227.700195312 159.887695312 227.700195312 c 0
49.6376953125 274.950195312 m 1
 46.3563594733 276.262485501 44.7158107724 281.266451379 44.7158107724 287.654973716 c 0
 44.7158107724 301.03547622 52.1157036086 321.150390625 60.1376953125 321.150390625 c 2
 306.887695312 321.150390625 l 1
 308.839899949 321.150390625 309.657742277 318.201512745 309.657742277 313.779869687 c 0
 309.657742277 302.911973479 304.489810382 274.950195312 296.387695312 274.950195312 c 2
 49.6376953125 274.950195312 l 1
EndSplineSet
Validated: 1
EndChar

StartChar: dollar
Encoding: 36 36 142
GlifName: dollar
Width: 508
VWidth: 0
Flags: W
HStem: 39 21<195 252.962> 43 24<111.871 143.646> 581 17<272.975 324.646 371.646 398.699>
VStem: 40.6455 50.299<81.6283 165.776> 141.646 62<424.604 521.092> 338.646 63<124.768 244.711> 348.646 41.0948<600.798 674.682> 416.904 43.7607<507.184 574.225>
LayerCount: 2
Fore
SplineSet
195 60 m 1xbd
 284 62 338.645507812 111.439453125 338.645507812 175 c 3
 338.645507812 233.463867188 313.645507812 253 268.645507812 286 c 1
 240.645507812 201 214 118 195 60 c 1xbd
371.645507812 598 m 1
 428.39802369 590.52855586 460.665039062 576.355086943 460.665039062 534.276367188 c 3
 460.665039062 509.25390625 437.286132812 506 429.645507812 506 c 3
 421.409179688 506 412.196289062 512.608398438 412.196289062 520.577148438 c 3
 412.196289062 526.388671875 416.904296875 535.454101562 416.904296875 542.517578125 c 3
 416.904296875 556.916992188 410.158203125 577.301757812 367 581 c 1
 345 516 317.645507812 435 293.645507812 363 c 1
 357.645507812 314 401.645507812 276.805664062 401.645507812 205 c 3
 401.645507812 83.9736328125 286.393690154 39 186.645507812 39 c 1xbd
 174.645507812 2 163.645507812 -31 163.645507812 -31 c 4
 156.645507812 -42 145.645507812 -47 135.645507812 -47 c 3
 127.645507812 -47 121.645507812 -45 117.645507812 -40 c 1
 126.645507812 -16 135.645507812 20 143.645507812 43 c 1
 76.6455078125 55 40.6455078125 96.2900797356 40.6455078125 122 c 3
 40.6455078125 141.416487839 50.6455078125 170 79.6455078125 170 c 3
 91.8783252876 170 95.1293199609 163.95977015 95.1293199609 154.792497983 c 3
 95.1293199609 144.391644106 90.9445267995 129.965552842 90.9445267995 115.768788104 c 3
 90.9445267995 93.3792309503 101.352980956 71.5600567367 155 67 c 1
 184 150 212.645507812 233 237.645507812 309 c 1
 183.645507812 349 141.645507812 399.361328125 141.645507812 460 c 3
 141.645507812 531.805664062 226.645507812 599 327.645507812 599 c 1
 333.645507812 618 342.645507812 643 348.645507812 662 c 0
 351.645507812 669 363.645507812 675 372.645507812 675 c 0
 382.946916216 675 389.740258005 667.98386677 389.740258005 659.700831863 c 0x7b
 389.740258005 659.139116577 388.807617188 654.551757812 388.645507812 654 c 0
 383.645507812 637 377.645507812 617 371.645507812 598 c 1
324.645507812 584 m 1
 249.645507812 584 203.645507812 527.877929688 203.645507812 491 c 3
 203.645507812 446.852539062 224.645507812 418 262.645507812 387 c 1
 282.645507812 450 304.645507812 519 324.645507812 584 c 1
EndSplineSet
Validated: 1
EndChar

StartChar: cent
Encoding: 162 162 143
GlifName: cent
Width: 505
VWidth: 0
Flags: W
HStem: 70.6504 44.0996<220.465 317.507> 569.4 22.0498<260.966 307.615>
VStem: 36.4105 77.7334<174.165 385.982>
LayerCount: 2
Fore
SplineSet
390.565429688 167.25 m 1
 398.96484375 146.25 l 1
 332.815429688 89.5498046875 281.365234375 70.650390625 207.865234375 70.650390625 c 1
 163.764648438 -75.2998046875 l 1
 113.365234375 -75.2998046875 l 1
 159.565429688 75.900390625 l 1
 87.0795479257 93.3967155697 36.4105295843 153.204179192 36.4105295843 253.74883243 c 0
 36.4105295843 462.936957669 168.321123933 587.927330358 313.915039062 591.450195312 c 1
 344.365234375 693.299804688 l 1
 394.764648438 693.299804688 l 1
 362.21484375 584.099609375 l 1
 407.497249616 572.287126299 471.238636661 547.553785575 471.238636661 509.034498058 c 0
 471.238636661 487.306275254 444.706912879 475.950195312 423.115234375 475.950195312 c 0
 375.865234375 475.950195312 381.115234375 527.400390625 352.764648438 553.650390625 c 1
 220.46484375 114.75 l 1
 227.815429688 113.700195312 235.165039062 112.650390625 243.565429688 112.650390625 c 0
 283.46484375 112.650390625 333.865234375 128.400390625 390.565429688 167.25 c 1
307.615234375 569.400390625 m 1
 205.864766944 569.400390625 114.143916492 428.579245957 114.143916492 274.276173026 c 0
 114.143916492 211.772235171 132.174286122 157.103437707 175.315429688 130.5 c 1
 307.615234375 569.400390625 l 1
EndSplineSet
Validated: 1
EndChar

StartChar: cedilla
Encoding: 184 184 145
GlifName: cedilla
Width: 292
VWidth: 0
Flags: W
HStem: -156.4 26.25<86.4385 152.596>
VStem: 167.345 49.6373<-122.579 -55.0313>
LayerCount: 2
Fore
SplineSet
177.825195312 28.400390625 m 5
 219.825195312 28.400390625 l 5
 174.674804688 -31.4501953125 l 5
 202.695085369 -31.4501953125 216.98227868 -52.2421282404 216.98227868 -73.2746065487 c 4
 216.98227868 -132.460264615 160.563756057 -156.400390625 124.275390625 -156.400390625 c 7
 89.625 -156.400390625 68.625 -141.700195312 59.1748046875 -122.799804688 c 13
 74.9248046875 -103.900390625 l 21
 85.4248046875 -121.75 105.375 -130.150390625 121.125 -130.150390625 c 7
 144.685589932 -130.150390625 167.344970845 -111.380745038 167.344970845 -86.2086455881 c 4
 167.344970845 -67.5404815709 153.925042431 -53.5 135.825195312 -53.5 c 7
 128.474609375 -53.5 116.924804688 -54.5498046875 108.525390625 -59.7998046875 c 5
 177.825195312 28.400390625 l 5
EndSplineSet
Validated: 1
EndChar

StartChar: braceleft
Encoding: 123 123 147
GlifName: braceleft
Width: 369
VWidth: 0
Flags: W
HStem: -117.175 15.75<111.656 132.915> 756.425 15.75<305.284 334.516>
VStem: 35.7222 53.3769<-93.0467 55.07> 116.682 51.3223<171.955 300.172>
LayerCount: 2
Fore
SplineSet
334.515625 756.424804688 m 5
 306.165039062 756.424804688 264.165039062 731.224609375 249.465820312 666.125 c 4
 234.765625 601.025390625 220.065429688 475.025390625 209.565429688 427.775390625 c 4
 194.865234375 364.775390625 166.515625 335.375 128.715820312 328.025390625 c 5
 153.502736909 322.602757328 168.004165688 304.608795097 168.004165688 270.249431518 c 4
 168.004165688 258.033369303 166.17107883 243.748600438 162.315429688 227.224609375 c 4
 151.815429688 179.974609375 107.715820312 53.974609375 93.015625 -11.125 c 4
 90.3108251273 -23.1031684125 89.0990548768 -33.7305382849 89.0990548768 -43.0986747964 c 4
 89.0990548768 -84.645002539 112.932078886 -101.424804688 136.065429688 -101.424804688 c 5
 132.915039062 -117.174804688 l 5
 109.594494589 -117.174804688 35.7221568929 -111.374069849 35.7221568929 -40.1368836709 c 4
 35.7221568929 -31.18828605 36.887834059 -21.2071263155 39.4658203125 -10.0751953125 c 4
 60.4658203125 82.3251953125 95.115234375 148.474609375 114.015625 232.474609375 c 4
 115.862933495 240.556677998 116.68188546 247.77544007 116.68188546 254.249556877 c 4
 116.68188546 304.888287929 66.578970165 309.970136321 66.578970165 326.277784736 c 4
 66.578970165 326.845895898 66.6397762385 327.427630953 66.765625 328.025390625 c 4
 70.9658203125 345.875 140.265625 350.075195312 157.065429688 422.525390625 c 4
 175.965820312 506.525390625 174.915039062 572.674804688 195.915039062 665.075195312 c 4
 219.015625 764.825195312 311.415039062 772.174804688 337.665039062 772.174804688 c 5
 334.515625 756.424804688 l 5
EndSplineSet
Validated: 1
EndChar

StartChar: braceright
Encoding: 125 125 148
GlifName: braceright
Width: 372
VWidth: 0
Flags: W
HStem: -117.175 15.75<35.0498 64.2817> 756.425 15.75<236.65 257.909>
VStem: 201.561 51.3571<355.192 483.045> 280.466 53.3769<600.008 747.826>
LayerCount: 2
Fore
SplineSet
233.5 756.424804688 m 5
 236.650390625 772.174804688 l 5
 259.970935098 772.174804688 333.843272794 766.374069849 333.843272794 695.13688367 c 0
 333.843272794 686.188286049 332.677595628 676.207126315 330.099609375 665.075195312 c 4
 309.099609375 572.674804688 274.450195312 506.525390625 255.549804688 422.525390625 c 4
 253.727632072 414.667158675 252.918371527 407.611848473 252.918371527 401.254955123 c 0
 252.918371527 350.733527488 304.033533909 344.326064164 304.033533909 329.572513839 c 0
 304.033533909 329.067295267 303.973594111 328.552289721 303.849609375 328.025390625 c 4
 299.650390625 308.075195312 229.299804688 305.974609375 212.5 232.474609375 c 4
 193.599609375 148.474609375 194.650390625 82.3251953125 173.650390625 -10.0751953125 c 4
 150.549804688 -109.825195312 58.150390625 -117.174804688 31.900390625 -117.174804688 c 5
 35.0498046875 -101.424804688 l 5
 63.400390625 -101.424804688 105.400390625 -76.224609375 120.099609375 -11.125 c 4
 134.799804688 53.974609375 149.5 179.974609375 160 227.224609375 c 4
 174.700195312 290.224609375 203.049804688 320.674804688 240.849609375 328.025390625 c 5
 216.062692778 333.447303498 201.561264 350.86974936 201.561264 384.929361503 c 0
 201.561264 397.038850669 203.394350858 411.251399562 207.25 427.775390625 c 4
 217.75 475.025390625 261.849609375 601.025390625 276.549804688 666.125 c 4
 279.254604561 678.103168412 280.466374811 688.730538284 280.466374811 698.098674795 c 0
 280.466374811 739.645002539 256.633350802 756.424804688 233.5 756.424804688 c 5
EndSplineSet
Validated: 1
EndChar

StartChar: ampersand
Encoding: 38 38 149
GlifName: ampersand
Width: 1023
VWidth: 0
Flags: W
HStem: -10.4961 72.0225<332.079 555.989> 330.402 60.8779<781.878 875.698> 434.964 34.5215<637.748 680.701> 468.088 43.6025<252.564 337.988>
VStem: 140.594 47.3584<221.273 376.331> 457.812 59.4219<547.268 696.411> 734.401 32.5176<246.922 355.437>
LayerCount: 2
Fore
SplineSet
187.952148438 302.627929688 m 3xde
 187.952148438 276.912109375 198.403320312 218.893554688 208.497070312 218.893554688 c 3
 220.279296875 218.893554688 457.811523438 431.0234375 457.811523438 615.608398438 c 3
 457.811523438 667.248046875 473.852539062 703.734375 494.919921875 703.734375 c 3
 513.05859375 703.734375 517.233398438 676.248046875 517.233398438 653.694335938 c 3
 517.233398438 421.124023438 224.9453125 216.4375 224.9453125 183.357421875 c 3
 224.9453125 158.103515625 295.90234375 61.5263671875 445.098632812 61.5263671875 c 3
 589.017846146 61.5263671875 734.401367188 169.283327254 734.401367188 332.5703125 c 0
 734.401367188 372.18242209 738.63935526 400.301335988 641.624023438 434.950195312 c 0
 641.600585938 434.958007812 641.57421875 434.963867188 641.549804688 434.963867188 c 0
 639.57421875 434.963867188 637.390625 407.953125 623.280273438 387.836914062 c 0
 613.518554688 373.921875 589.556640625 358.909179688 573.66796875 358.909179688 c 0
 567.435546875 358.909179688 562.205078125 360.645507812 562.205078125 367.392578125 c 0
 562.205078125 409.225427725 631.644011903 469.485351562 669.047851562 469.485351562 c 0xee
 736.815429688 469.485351562 765.048828125 391.280273438 853.887695312 391.280273438 c 0
 871.537109375 391.280273438 886.947265625 398.499023438 901.288085938 405.348632812 c 1
 907.010742188 395.16015625 l 1
 894.05859375 382.790039062 870.447265625 330.40234375 844.833984375 330.40234375 c 3
 813.061523438 330.40234375 781.4140625 355.74609375 770.403320312 355.74609375 c 0
 768.750976562 355.74609375 766.923309978 355.347415432 766.918945312 353.91796875 c 0
 766.43026588 193.873364401 701.671090207 -10.49609375 449.811523438 -10.49609375 c 3
 248.948242188 -10.49609375 140.59375 139.502929688 140.59375 265.622070312 c 3
 140.59375 388.458007812 220.393554688 511.690429688 325.182617188 511.690429688 c 0
 350.792592863 511.690429688 380.900390625 491.203842355 380.900390625 467.079101562 c 0
 380.900390625 445.500976562 367.461914062 422.047851562 340.662109375 422.047851562 c 0
 325.502929688 422.047851562 319.59765625 432.928710938 313.622070312 447.194335938 c 0
 307.875976562 460.922851562 301.11328125 468.087890625 286.11328125 468.087890625 c 0
 227.676757812 468.087890625 187.952148438 372.743164062 187.952148438 302.627929688 c 3xde
EndSplineSet
Validated: 33
EndChar

StartChar: ae
Encoding: 230 230 150
GlifName: ae
Width: 773
VWidth: 0
Flags: W
HStem: -11.0029 28.25<111.409 235.241 496.231 582.654> 478.247 33.6653<212.208 328.883> 486.2 26.25<585.133 700.95>
VStem: 13 76.2188<30.9662 144.257> 358.174 68.5332<103.865 227.857> 722.392 75.2188<357.033 473.373>
LayerCount: 2
Fore
SplineSet
435.41015625 421.47265625 m 1xdc
 486.362304688 475.354492188 539.748046875 512.450195312 658.5390625 512.450195312 c 0xbc
 747.904296875 512.450195312 797.610351562 486.642578125 797.610351562 432.139648438 c 0
 797.610351562 251.090820312 517.606445312 250.42578125 437.666992188 228.950195312 c 1
 433.903320312 205.6875 426.70703125 178.950195312 426.70703125 156.380859375 c 0
 426.70703125 69.201171875 473.088867188 24.2001953125 533.547851562 24.2001953125 c 0
 582.8984375 24.2001953125 643.478515625 49.349609375 700.559570312 88.2001953125 c 1
 708.224609375 68.25 l 1
 646.40234375 14.7001953125 599.446289062 -10.7939453125 518.3125 -10.4501953125 c 0
 436.622070312 -10.1044921875 381.41088386 28.2032291657 363.286353232 78.6615918114 c 1
 302.204400777 18.8063077241 222.186523438 -11.0029296875 149.071289062 -11.0029296875 c 0
 65.7060546875 -11.0029296875 13 15.8046875 13 70.3076171875 c 0
 13 251.356445312 301.00390625 253.021484375 382.943359375 272.497070312 c 1
 386.70703125 295.759765625 387.903320312 322.497070312 387.903320312 345.06640625 c 0
 387.903320312 432.24609375 332 478.247070312 267.0625 478.247070312 c 3
 175.225585938 478.247070312 186 389.797851562 143.012695312 389.797851562 c 0
 126.66796875 389.797851562 106.407577676 398.660688752 106.407577676 413.011604841 c 0
 106.407577676 417.305145497 110.489257812 426.1796875 115.461914062 431.59765625 c 0
 186.699938991 509.224607204 212.424195808 511.912338227 266.683051054 511.912338227 c 0
 340.152987815 511.912338227 403.282260795 478.774038756 435.41015625 421.47265625 c 1xdc
436 263.650390625 m 1
 528.094726562 284.458984375 722.391601562 281.5625 722.391601562 425.133789062 c 0
 722.391601562 472.890625 691.077148438 486.200195312 643.98828125 486.200195312 c 3
 573.637695312 486.200195312 460.702148438 421.150390625 436 263.650390625 c 1
373.610351562 238.796875 m 1
 281.515625 217.98828125 89.21875 221.884765625 89.21875 80.3134765625 c 0
 89.21875 35.556640625 117.533203125 17.2470703125 164.622070312 17.2470703125 c 3
 217.08984375 17.2470703125 302 44 358.173828125 130 c 1
 358.173828125 131 367.331054688 198.76171875 373.610351562 238.796875 c 1
EndSplineSet
EndChar

StartChar: germandbls
Encoding: 223 223 151
GlifName: germandbls
Width: 469
VWidth: 0
Flags: W
HStem: -190.4 48.2998<-228.088 -103.048> -9 36<174.485 301.459> 706 29<248.489 334.703>
VStem: 113.987 59.7705<36.4823 113.621> 196.872 70.8652<384.898 458.962> 362.637 57.9961<105.321 214.038> 365.647 41.5469<590.482 682.208>
LayerCount: 2
Fore
SplineSet
-8.400390625 2.4501953125 m 2xfa
 36 226 l 1
 98 510 l 1
 125 627 177 735 296 735 c 0
 358.83203125 735 407.194335938 716.72265625 407.194335938 662.889648438 c 0xfa
 407.194335938 540.245117188 267.737304688 517.75 267.737304688 433.376953125 c 0
 267.737304688 394.224609375 302.135742188 375.482421875 351 324 c 0
 392.505859375 280.897460938 420.6328125 249.900390625 420.6328125 197.4453125 c 0
 420.6328125 89.0390625 334.3984375 -9 223 -9 c 0
 177.239257812 -9 142.3515625 27.365234375 131.995117188 40.822265625 c 0
 125.782226562 48.8955078125 113.987304688 61.1123046875 113.987304688 81.1279296875 c 0
 113.987304688 97.7763671875 125.950195312 118 144 118 c 3
 159.380859375 118 172.021484375 72.501953125 173.7578125 45.1103515625 c 0
 174.334960938 36.0078125 202.504882812 27 253 27 c 0
 301.103515625 27 362.63671875 74.8896484375 362.63671875 149.744140625 c 0xfc
 362.63671875 203.642578125 317.834960938 245.8046875 280 281 c 0
 240.015625 319.208007812 196.872070312 354.256835938 196.872070312 399.477539062 c 0
 196.872070312 459.90234375 251.526367188 491.736328125 288 523 c 0
 324.170898438 553.8515625 365.647460938 587.0390625 365.647460938 633.647460938 c 0
 365.647460938 672.069335938 332.0859375 706 293 706 c 3
 217 706 192 616 168 511 c 0
 63 42 l 0
 61.46484375 31.255859375 56.2431640625 17.8837890625 52.7998046875 3.25 c 0
 40.19921875 -50.2998046875 24.2998046875 -75.9501953125 -24 -119 c 0
 -55.5 -146.299804688 -124.55078125 -190.400390625 -194.900390625 -190.400390625 c 3
 -214.850585938 -190.400390625 -234.80078125 -186.200195312 -254.75 -177.799804688 c 0
 -260.084960938 -175.514648438 -261.547851562 -172.122070312 -261.547851562 -168.025390625 c 0
 -261.547851562 -140.088867188 -220.592773438 -116.900390625 -198.05078125 -116.900390625 c 3
 -169.700195312 -116.900390625 -153.950195312 -142.100585938 -126.650390625 -142.100585938 c 3
 -118.25 -142.100585938 -107.75 -138.950195312 -97.25 -133.700195312 c 0
 -40.55078125 -105.350585938 -25.400390625 -65.5498046875 -8.400390625 2.4501953125 c 2xfa
EndSplineSet
EndChar

StartChar: uniFB02
Encoding: 64258 64258 152
GlifName: uniF_B_02
Width: 608
VWidth: 0
Flags: W
HStem: -179.2 24.1504<-80.9413 -4.32836> -9.65039 49.3506<408.346 492.275> 453.299 37.8008<120.85 156.55 234 398.449> 746.775 22.0498<364.798 450.305> 753.851 20G<607.225 608.861>
VStem: 380.31 71.4496<40.3231 153.673>
LayerCount: 2
Fore
SplineSet
156.549804688 453.298828125 m 1xf4
 130.299804688 453.298828125 105.099609375 449.099609375 105.099609375 449.099609375 c 1
 120.849609375 486.899414062 l 1
 163.899414062 486.899414062 l 1
 164.641010607 489.829910458 177.01964006 540.331584501 180.067382812 552.525390625 c 0
 225.217773438 711.075195312 314.067382812 768.825195312 426.41796875 768.825195312 c 0xf4
 449.155983904 768.825195312 478.899462499 763.599603341 503.995009964 747.428469529 c 1
 602.599609375 772.850585938 l 2
 604.521654714 773.3461253 606.700195312 773.850585938 607.75 773.850585938 c 0xec
 609.972557994 773.850585938 610.956144427 772.352937022 610.956144427 769.090244452 c 0
 610.956144427 766.187092946 610.177391623 761.886471275 608.799804688 756 c 2
 465.51171875 131.049804688 l 2
 460.328125 107.793945312 451.759765625 76.623046875 451.759765625 63.849609375 c 0
 451.759765625 56.5 457.95703125 39.7001953125 471.607421875 39.7001953125 c 0
 489.979492188 39.7001953125 502.056640625 42.849609375 527.256835938 61.75 c 1
 535.657226562 51.25 l 1
 516.756835938 17.650390625 459.211914062 -9.650390625 421.412109375 -9.650390625 c 0
 395.279969175 -9.650390625 380.310126403 8.69356161348 380.310126403 42.5074815496 c 0
 380.310126403 67.2073420151 388.905071463 100.031267179 398.26171875 140.5 c 2
 521.44019905 661.052279832 l 1
 505.518058056 690.853038736 469.727578944 746.775390625 403.317382812 746.775390625 c 0
 337.16796875 746.775390625 275.104492188 665.1640625 247.017578125 546.224609375 c 2
 234 491.099609375 l 1
 234 491.099609375 377.44921875 491.099609375 387.94921875 491.099609375 c 0
 404.297615141 491.099609375 410.432999633 487.171640283 410.432999633 480.674489904 c 0
 410.432999633 475.560456815 408.158566679 469.969483182 405.799804688 464.899414062 c 2
 398.44921875 449.099609375 l 1
 393.19921875 449.099609375 266.549804688 453.298828125 228.75 453.298828125 c 1
 133 15 l 2
 102.08203125 -126.526367188 45.8994140625 -179.200195312 -66.4501953125 -179.200195312 c 0
 -103.200195312 -179.200195312 -147.299804688 -166.599609375 -172.5 -120.400390625 c 0
 -174.037776125 -118.094083893 -175.012410618 -115.225158896 -175.012410618 -112.617750776 c 0
 -175.012410618 -111.663466956 -174.881860019 -110.744212868 -174.600585938 -109.900390625 c 0
 -171.450195312 -97.2998046875 -149.400390625 -87.849609375 -135.75 -87.849609375 c 0
 -85.3505859375 -87.849609375 -111.600585938 -155.049804688 -44.400390625 -155.049804688 c 0
 21.75 -155.049804688 48.302734375 -84.8974609375 69.25 19.25 c 2
 156.549804688 453.298828125 l 1xf4
EndSplineSet
LCarets2: 1 0
Ligature2: "'liga' fl" f l
EndChar

StartChar: uniFB00
Encoding: 64256 64256 153
GlifName: uniF_B_00
Width: 813
VWidth: 0
Flags: W
HStem: -179.2 24.1445<100.813 198.32> -140.2 24.1504<-129.941 -52.2688> 453.299 37.8008<65.8496 101.55 179 359.524 437 561.449> 746.775 22.0498<307.097 385.761 563.245 636.909>
LayerCount: 2
Fore
SplineSet
101.549804688 453.298828125 m 1
 75.2998046875 453.298828125 50.099609375 449.099609375 50.099609375 449.099609375 c 1
 65.849609375 486.899414062 l 1
 108.899414062 486.899414062 l 1
 109.640625 489.830078125 122.01953125 540.33203125 125.067382812 552.525390625 c 0
 170.217773438 711.075195312 256.067382812 768.825195312 368.41796875 768.825195312 c 0
 400.203125 768.825195312 448.669921875 754.874023438 476.809570312 717.81640625 c 1
 518.4921875 753.73828125 568.993164062 768.825195312 626.41796875 768.825195312 c 0
 663.16796875 768.825195312 706.217773438 755.174804688 730.3671875 703.724609375 c 0
 731.59765625 701.879882812 732.107421875 700.034179688 732.107421875 698.188476562 c 0
 732.107421875 696.883789062 731.852539062 695.580078125 731.41796875 694.275390625 c 0
 728.267578125 680.625 705.16796875 670.125 691.517578125 670.125 c 0
 641.1171875 670.125 670.517578125 746.775390625 603.317382812 746.775390625 c 0
 537.16796875 746.775390625 478.104492188 665.1640625 450.017578125 546.224609375 c 2
 437 491.099609375 l 1
 442.94921875 491.099609375 l 1
 550.94921875 491.099609375 l 2
 567.297851562 491.099609375 573.432617188 487.171875 573.432617188 480.674804688 c 0
 573.432617188 475.560546875 571.30078125 469.903320312 568.799804688 464.899414062 c 2
 561.44921875 449.099609375 l 1
 556.884765625 449.099609375 490.795898438 452.2734375 448.770507812 453.102539062 c 0
 445.018554688 453.102539062 439.178710938 453.110351562 431.709960938 453.116210938 c 1
 336 15 l 2
 305.08203125 -126.526367188 248.899414062 -179.200195312 136.549804688 -179.200195312 c 0
 85.798828125 -179.200195312 26.3701171875 -150.407226562 -3.650390625 -111.27734375 c 1
 -32.927734375 -131.384765625 -69.4892578125 -140.200195312 -115.450195312 -140.200195312 c 1
 -152.200195312 -140.200195312 -196.299804688 -127.599609375 -221.5 -81.400390625 c 0
 -223.038085938 -79.09375 -224.012695312 -76.2255859375 -224.012695312 -73.6181640625 c 0
 -224.012695312 -58.662109375 -198.109375 -48.849609375 -184.75 -48.849609375 c 0
 -134.350585938 -48.849609375 -160.600585938 -116.049804688 -93.400390625 -116.049804688 c 0
 -27.25 -116.049804688 -0.697265625 -45.8974609375 20.25 58.25 c 2
 101.549804688 453.298828125 l 1
40.2021484375 -64.650390625 m 1
 53.634765625 -112.022460938 85.0908203125 -155.055664062 157.1875 -155.055664062 c 0
 157.65625 -155.055664062 158.126953125 -155.053710938 158.599609375 -155.049804688 c 0
 224.748046875 -154.538085938 251.302734375 -84.8974609375 272.25 19.25 c 2
 359.524414062 453.172851562 l 1
 287.21484375 453.229492188 196.0078125 453.298828125 173.75 453.298828125 c 1
 84 54 l 2
 73.037109375 3.8154296875 58.896484375 -35.197265625 40.2021484375 -64.650390625 c 1
367.946289062 491.099609375 m 1
 371.206054688 504.29296875 379.083007812 536.583984375 383.067382812 552.525390625 c 0
 397.092773438 601.776367188 415.044921875 641.30078125 436.499023438 672.389648438 c 1
 423.828125 705.732421875 393.861328125 746.775390625 345.317382812 746.775390625 c 0
 279.16796875 746.775390625 220.104492188 665.1640625 192.017578125 546.224609375 c 2
 179 491.099609375 l 1
 367.946289062 491.099609375 l 1
EndSplineSet
LCarets2: 1 -4
Ligature2: "'liga' ff" f f
EndChar

StartChar: uniFB01
Encoding: 64257 64257 154
GlifName: uniF_B_01
Width: 513
VWidth: 0
Flags: W
HStem: -179.2 24.1504<-110.941 -34.3284> -10.2246 48.3496<324.944 409.375> 453.299 37.8008<90.8496 126.55 204 391.242> 746.775 22.0498<332.08 404.577>
VStem: 297 71.6709<38.4563 150.45>
LayerCount: 2
Fore
SplineSet
126.549804688 453.298828125 m 5
 100.299804688 453.298828125 75.099609375 449.099609375 75.099609375 449.099609375 c 5
 90.849609375 486.899414062 l 5
 133.899414062 486.899414062 l 5
 134.641040315 489.829999111 147.01963257 540.331554536 150.067382812 552.525390625 c 4
 195.217773438 711.075195312 281.067382812 768.825195312 393.41796875 768.825195312 c 4
 416.28255283 768.825195312 506.859375 751.915039062 506.859375 695.87109375 c 4
 506.859375 675.67578125 493.798828125 652.125 462.517578125 652.125 c 4
 404.1171875 652.125 447.517578125 746.775390625 370.317382812 746.775390625 c 4
 304.16796875 746.775390625 244.7481253 663.654011245 217.017578125 546.224609375 c 6
 204 491.099609375 l 5
 400.609697442 491.099609375 l 6
 400.684702645 491.428711185 400.723632812 491.599609375 400.723632812 491.599609375 c 5
 426.958384591 491.95179601 463.584679817 505.401414885 472.943621509 505.401414885 c 4
 474.416660094 505.401414885 475.032117131 505.397141803 475.032117131 503.856705791 c 4
 475.032117131 493.240011664 450.70422697 419.161914725 441.723632812 381.298828125 c 6
 382.751953125 130.474609375 l 6
 376.769090346 105.027442804 368.670562291 74.8120784718 368.670562291 58.944556424 c 4
 368.670562291 47.4743010337 375.805965792 38.125 388.846679688 38.125 c 4
 407.219726562 38.125 419.296875 42.275390625 444.497070312 61.1748046875 c 5
 452.896484375 50.6748046875 l 5
 433.997070312 17.0751953125 375.801757812 -10.224609375 338.001953125 -10.224609375 c 4
 311.885266235 -10.224609375 296.99967418 8.10588857642 296.99967418 41.9038973428 c 4
 296.99967418 66.6048289978 305.961967732 99.2683302245 315.952148438 139.924804688 c 6
 373.12109375 372.57421875 l 6
 376.317132168 385.403194576 384.583153178 421.161060361 391.242197909 450.16053178 c 5
 325.695100021 451.404535629 224.13801965 453.298828125 198.75 453.298828125 c 5
 103 15 l 6
 72.078009748 -126.546444812 15.8994140625 -179.200195312 -96.4501953125 -179.200195312 c 4
 -133.200195312 -179.200195312 -177.299804688 -166.599609375 -202.5 -120.400390625 c 4
 -204.037776125 -118.094083893 -205.012410618 -115.225158896 -205.012410618 -112.617750776 c 4
 -205.012410618 -97.6620897056 -179.109605009 -87.849609375 -165.75 -87.849609375 c 4
 -115.350585938 -87.849609375 -141.600585938 -155.049804688 -74.400390625 -155.049804688 c 4
 -8.25 -155.049804688 18.3046124312 -84.8890752409 39.25 19.25 c 6
 126.549804688 453.298828125 l 5
EndSplineSet
Validated: 1
LCarets2: 1 0
Ligature2: "'liga' fi" f i
EndChar

StartChar: uniFB03
Encoding: 64259 64259 155
GlifName: uniF_B_03
Width: 787
VWidth: 0
Flags: W
HStem: -179.2 24.1445<121.37 219.348> -140.2 24.1504<-108.941 -31.2688> -10.2246 48.3496<579.036 663.375> 453.299 37.8008<86.8496 122.55 200 380.524 458 474.449 474.458 645.242> 746.775 22.0498<328.097 406.761 584.228 658.577>
VStem: 551 71.6709<38.1351 150.07>
LayerCount: 2
Fore
SplineSet
729.032226562 503.856445312 m 0
 729.032226562 493.240234375 704.704101562 419.162109375 695.723632812 381.298828125 c 2
 636.751953125 130.474609375 l 2
 630.76953125 105.02734375 622.670898438 74.8125 622.670898438 58.9443359375 c 0
 622.670898438 47.474609375 629.805664062 38.125 642.846679688 38.125 c 0
 661.219726562 38.125 673.296875 42.275390625 698.497070312 61.1748046875 c 1
 706.896484375 50.6748046875 l 1
 687.997070312 17.0751953125 629.801757812 -10.224609375 592.001953125 -10.224609375 c 0
 566.069335938 -10.224609375 551.227539062 7.787109375 551.001953125 41.224609375 c 0
 551 41.4501953125 551 41.6767578125 551 41.904296875 c 0
 551 66.6044921875 559.961914062 99.2685546875 569.952148438 139.924804688 c 2
 627.12109375 372.57421875 l 2
 630.317382812 385.403320312 638.583007812 421.161132812 645.2421875 450.16015625 c 1
 592.04296875 451.169921875 515.124023438 452.608398438 474.458007812 453.114257812 c 1
 474.458007812 453.109375 474.44921875 453.104492188 474.44921875 453.099609375 c 1
 473.529296875 453.099609375 465.512695312 453.10546875 452.709960938 453.116210938 c 1
 357 15 l 2
 326 -127 269.899414062 -179.200195312 157.549804688 -179.200195312 c 0
 106.798828125 -179.200195312 47.3701171875 -150.407226562 17.349609375 -111.27734375 c 1
 -11.927734375 -131.384765625 -48.4892578125 -140.200195312 -94.4501953125 -140.200195312 c 1
 -131.200195312 -140.200195312 -175.299804688 -127.599609375 -200.5 -81.400390625 c 0
 -202.038085938 -79.09375 -203.012695312 -76.2255859375 -203.012695312 -73.6181640625 c 0
 -203.012695312 -58.662109375 -177.109375 -48.849609375 -163.75 -48.849609375 c 0
 -113.350585938 -48.849609375 -139.600585938 -116.049804688 -72.400390625 -116.049804688 c 0
 -6.25 -116.049804688 20.302734375 -45.8974609375 41.25 58.25 c 2
 122.549804688 453.298828125 l 1
 96.2998046875 453.298828125 71.099609375 449.099609375 71.099609375 449.099609375 c 1
 86.849609375 486.899414062 l 1
 129.899414062 486.899414062 l 1
 130.640625 489.830078125 143.01953125 540.33203125 146.067382812 552.525390625 c 0
 191.217773438 711.075195312 277.067382812 768.825195312 389.41796875 768.825195312 c 0
 421.203125 768.825195312 469.669921875 754.874023438 497.809570312 717.81640625 c 1
 539.4921875 753.73828125 589.993164062 768.825195312 647.41796875 768.825195312 c 0
 670.282226562 768.825195312 760.859375 751.915039062 760.859375 695.87109375 c 0
 760.859375 675.67578125 747.798828125 652.125 716.517578125 652.125 c 0
 658.1171875 652.125 701.517578125 746.775390625 624.317382812 746.775390625 c 0
 558.16796875 746.775390625 498.748046875 663.654296875 471.017578125 546.224609375 c 2
 458 491.099609375 l 1
 463.94921875 491.099609375 l 1
 654.609375 491.099609375 l 2
 654.684570312 491.428710938 654.723632812 491.599609375 654.723632812 491.599609375 c 1
 680.958007812 491.952148438 717.584960938 505.401367188 726.943359375 505.401367188 c 0
 728.416992188 505.401367188 729.032226562 505.397460938 729.032226562 503.856445312 c 0
61.2021484375 -64.650390625 m 1
 74.634765625 -112.022460938 106.090820312 -155.055664062 178.188476562 -155.055664062 c 0
 245.872070312 -155.055664062 271.865234375 -85.6611328125 293.25 19.25 c 2
 380.524414062 453.172851562 l 1
 330.8125 453.211914062 l 0
 271.302734375 453.256835938 212.09375 453.298828125 194.75 453.298828125 c 5
 105 54 l 6
 94.037109375 3.8154296875 79.896484375 -35.197265625 61.2021484375 -64.650390625 c 1
457.499023438 672.389648438 m 1
 444.828125 705.732421875 414.861328125 746.775390625 366.317382812 746.775390625 c 0
 300.16796875 746.775390625 241.104492188 665.1640625 213.017578125 546.224609375 c 2
 200 491.099609375 l 1
 388.946289062 491.099609375 l 1
 392.206054688 504.29296875 400.083007812 536.583984375 404.067382812 552.525390625 c 0
 418.092773438 601.776367188 436.044921875 641.30078125 457.499023438 672.389648438 c 1
EndSplineSet
Validated: 1
LCarets2: 2 -2 2
Ligature2: "'liga' ffi" f f i
EndChar

StartChar: uniFB04
Encoding: 64260 64260 156
GlifName: uniF_B_04
Width: 844
VWidth: 0
Flags: W
HStem: -179.2 24.1449<127.369 225.371> -140.2 24.1504<-102.941 -25.2688> -9.65039 49.3506<638.346 722.275> 453.299 37.8008<92.8496 128.55 206 386.524 464 610.449> 746.775 22.0498<334.097 412.761 590.245 677.909>
VStem: 610.31 71.4496<40.3231 153.653>
LayerCount: 2
Fore
SplineSet
128.549804688 453.298828125 m 1
 102.299804688 453.298828125 77.099609375 449.099609375 77.099609375 449.099609375 c 1
 92.849609375 486.899414062 l 1
 135.899414062 486.899414062 l 1
 136.641010607 489.829910458 149.01964006 540.331584501 152.067382812 552.525390625 c 0
 197.217773438 711.075195312 283.067382812 768.825195312 395.41796875 768.825195312 c 0
 427.203030691 768.825195312 475.669492643 754.873744583 503.809435364 717.816322406 c 1
 545.491819631 753.73834496 595.993281484 768.825195312 653.41796875 768.825195312 c 0
 676.29898007 768.825195312 707.049137416 763.53367065 732.828386961 747.122075498 c 1
 832.599609375 772.850585938 l 2
 834.521602394 773.346220012 836.700195312 773.850585938 837.75 773.850585938 c 0
 839.972557994 773.850585938 840.956144427 772.352937022 840.956144427 769.090244452 c 0
 840.956144427 766.187092946 840.177391623 761.886471275 838.799804688 756 c 2
 695.51171875 131.049804688 l 2
 690.328125 107.793945312 681.759765625 76.623046875 681.759765625 63.849609375 c 0
 681.759765625 56.5 687.95703125 39.7001953125 701.607421875 39.7001953125 c 0
 719.979492188 39.7001953125 732.056640625 42.849609375 757.256835938 61.75 c 1
 765.657226562 51.25 l 1
 746.756835938 17.650390625 689.211914062 -9.650390625 651.412109375 -9.650390625 c 0
 625.279969175 -9.650390625 610.310126403 8.69356161348 610.310126403 42.5074815496 c 0
 610.310126403 67.2073420151 618.905071463 100.031267179 628.26171875 140.5 c 2
 751.133104013 659.754496148 l 2
 751.088621991 659.834630824 751.044253233 659.916460616 751 660 c 0
 735.365234375 689.514648438 697.517578125 746.775390625 630.317382812 746.775390625 c 0
 564.16796875 746.775390625 505.104492188 665.1640625 477.017578125 546.224609375 c 2
 464 491.099609375 l 1
 469.94921875 491.099609375 l 1
 599.94921875 491.099609375 l 2
 616.297615141 491.099609375 622.432999633 487.171640283 622.432999633 480.674489904 c 0
 622.432999633 475.560456815 619.878579443 470.650465226 617.799804688 465.899414062 c 2
 610.44921875 449.099609375 l 1
 605.886349981 449.099609375 523.219094305 452.27155584 476.842276584 453.101858118 c 0
 473.180174874 453.101858118 466.932054633 453.109326467 458.710016005 453.115800052 c 1
 363 15 l 2
 332.08203125 -126.526367188 275.899414062 -179.200195312 163.549804688 -179.200195312 c 0
 112.798358334 -179.200195312 53.3697197669 -150.40769388 23.3493590975 -111.27766362 c 1
 -5.9278003505 -131.384986962 -42.4890950887 -140.200195312 -88.4501953125 -140.200195312 c 1
 -125.200195312 -140.200195312 -169.299804688 -127.599609375 -194.5 -81.400390625 c 0
 -196.037776125 -79.0940838934 -197.012410618 -76.2251588957 -197.012410618 -73.6177507758 c 0
 -197.012410618 -58.6620897055 -171.109605009 -48.849609375 -157.75 -48.849609375 c 0
 -107.350585938 -48.849609375 -133.600585938 -116.049804688 -66.400390625 -116.049804688 c 0
 -0.25 -116.049804688 26.302734375 -45.8974609375 47.25 58.25 c 2
 128.549804688 453.298828125 l 1
463.499308845 672.389281371 m 1
 450.828260424 705.73264965 420.861686019 746.775390625 372.317382812 746.775390625 c 0
 306.16796875 746.775390625 247.104492188 665.1640625 219.017578125 546.224609375 c 2
 206 491.099609375 l 1
 394.946276723 491.099609375 l 1
 411.548691177 558.301443597 432.983049544 628.16942071 463.499308845 672.389281371 c 1
386.524486769 453.172949116 m 1
 314.214900792 453.229751595 223.008182875 453.298828125 200.75 453.298828125 c 1
 111 54 l 2
 100.036633681 3.81541575842 85.8965454218 -35.1970434906 67.2019220462 -64.6504432497 c 1
 80.6351980507 -112.022883787 112.090704319 -155.055272762 184.188151243 -155.055272762 c 0
 251.868671154 -155.055272762 278.169752193 -85.5586334655 299.25 19.25 c 2
 386.524486769 453.172949116 l 1
EndSplineSet
LCarets2: 2 0 0
Ligature2: "'liga' ffl" f f l
EndChar

StartChar: uni02B9
Encoding: 697 697 157
GlifName: uni02B_9
Width: 190
VWidth: 0
Flags: W
HStem: 501 166<81.875 118.014>
VStem: 71 58<560.167 666.32>
LayerCount: 2
Fore
SplineSet
98 667 m 2
 102 667 l 2
 119 667 129 654 129 636 c 0
 129 634 129 631 129 629 c 2
 117 511 l 2
 117 505 113 501 107 501 c 2
 93 501 l 2
 87 501 83 505 83 511 c 2
 71 629 l 2
 71 631 71 633 71 634 c 0
 71 652 83 667 98 667 c 2
EndSplineSet
Validated: 1
EndChar

StartChar: uni02BA
Encoding: 698 698 158
GlifName: uni02B_A_
Width: 306
VWidth: 0
Flags: W
HStem: 501 166<81.875 117.771 197.875 233.771>
VStem: 71 59<560.167 666.305> 187 59<560.167 666.305>
LayerCount: 2
Fore
SplineSet
214 667 m 2
 218 667 l 2
 235 667 246 655 246 637 c 0
 246 635 246 632 245 629 c 2
 233 511 l 2
 233 505 229 501 223 501 c 2
 209 501 l 2
 203 501 199 505 199 511 c 2
 187 629 l 2
 187 631 187 633 187 634 c 0
 187 652 199 667 214 667 c 2
98 667 m 2
 102 667 l 2
 119 667 130 655 130 637 c 0
 130 635 130 632 129 629 c 2
 117 511 l 2
 117 505 113 501 107 501 c 2
 93 501 l 2
 87 501 83 505 83 511 c 2
 71 629 l 2
 71 631 71 633 71 634 c 0
 71 652 83 667 98 667 c 2
EndSplineSet
Validated: 1
EndChar

StartChar: quotedblleft
Encoding: 8220 8220 159
GlifName: quotedblleft
Width: 390
VWidth: 0
Flags: W
HStem: 769 24<207.186 233 382.196 410>
VStem: 89.873 60.0781<570.857 673.373> 267.966 60.0215<572.162 684.019>
LayerCount: 2
Fore
SplineSet
375.611328125 610.216796875 m 4
 375.611328125 573.666992188 343.846679688 548 312 548 c 4
 288.55078125 548 267.965820312 563.2734375 267.965820312 591.0234375 c 4
 267.965820312 699.651367188 349.208007812 780.08203125 413 794 c 5
 410 770 l 5
 367 761 338 712 330 680 c 4
 328.934570312 674.673828125 327.987304688 670.8125 327.987304688 666.326171875 c 4
 327.987304688 642.555664062 375.611328125 645.665039062 375.611328125 610.216796875 c 4
197.587890625 609.059570312 m 4
 197.587890625 572.59375 165.758789062 547 134 547 c 4
 111.01953125 547 89.873046875 562.5859375 89.873046875 589.368164062 c 4
 89.873046875 607.728515625 92.802734375 624.258789062 97 640 c 4
 118 726 181 781 236 793 c 5
 233 769 l 5
 190 760 161 711 153 679 c 4
 151.8671875 673.3359375 149.951171875 669.743164062 149.951171875 664.697265625 c 4
 149.951171875 641.573242188 197.587890625 644.357421875 197.587890625 609.059570312 c 4
EndSplineSet
EndChar

StartChar: second
Encoding: 8243 8243 160
GlifName: second
Width: 306
VWidth: 0
Flags: W
HStem: 501 166<81.875 117.771 197.875 233.771>
VStem: 71 59<560.167 666.305> 187 59<560.167 666.305>
LayerCount: 2
Fore
SplineSet
214 667 m 6
 218 667 l 6
 235 667 246 655 246 637 c 4
 246 635 246 632 245 629 c 6
 233 511 l 6
 233 505 229 501 223 501 c 6
 209 501 l 6
 203 501 199 505 199 511 c 6
 187 629 l 6
 187 631 187 633 187 634 c 4
 187 652 199 667 214 667 c 6
98 667 m 6
 102 667 l 6
 119 667 130 655 130 637 c 4
 130 635 130 632 129 629 c 6
 117 511 l 6
 117 505 113 501 107 501 c 6
 93 501 l 6
 87 501 83 505 83 511 c 6
 71 629 l 6
 71 631 71 633 71 634 c 4
 71 652 83 667 98 667 c 6
EndSplineSet
Validated: 1
EndChar

StartChar: quotedblright
Encoding: 8221 8221 161
GlifName: quotedblright
Width: 393
VWidth: 0
Flags: W
HStem: 490 24<72 97.8145 250 275.814>
VStem: 154.05 61.0771<609.638 712.143> 332.05 61.0771<609.638 712.143>
LayerCount: 2
Fore
SplineSet
107.387695312 673.774414062 m 4
 107.387695312 710.330078125 139.1484375 736 171 736 c 4
 193.98046875 736 215.126953125 720.4140625 215.126953125 693.631835938 c 4
 215.126953125 675.271484375 212.197265625 658.741210938 208 643 c 4
 187 557 124 502 69 490 c 5
 72 514 l 5
 115 523 144 572 152 604 c 4
 153.122070312 609.612304688 154.049804688 613.430664062 154.049804688 618.32421875 c 4
 154.049804688 641.388671875 107.387695312 638.662109375 107.387695312 673.774414062 c 4
285.387695312 673.774414062 m 4
 285.387695312 710.330078125 317.1484375 736 349 736 c 4
 371.98046875 736 393.126953125 720.4140625 393.126953125 693.631835938 c 4
 393.126953125 675.271484375 390.197265625 658.741210938 386 643 c 4
 365 558 302 502 247 490 c 5
 250 514 l 5
 293 523 322 572 330 604 c 4
 331.122070312 609.612304688 332.049804688 613.430664062 332.049804688 618.32421875 c 4
 332.049804688 641.388671875 285.387695312 638.662109375 285.387695312 673.774414062 c 4
EndSplineSet
EndChar

StartChar: minute
Encoding: 8242 8242 162
GlifName: minute
Width: 190
VWidth: 0
Flags: W
HStem: 501 166<81.875 118.014>
VStem: 71 58<560.167 666.32>
LayerCount: 2
Fore
SplineSet
98 667 m 6
 102 667 l 6
 119 667 129 654 129 636 c 4
 129 634 129 631 129 629 c 6
 117 511 l 6
 117 505 113 501 107 501 c 6
 93 501 l 6
 87 501 83 505 83 511 c 6
 71 629 l 6
 71 631 71 633 71 634 c 4
 71 652 83 667 98 667 c 6
EndSplineSet
Validated: 1
EndChar

StartChar: quoteleft
Encoding: 8216 8216 163
GlifName: quoteleft
Width: 219
VWidth: 0
Flags: W
HStem: 770 24<217.271 242>
VStem: 99.873 60.1143<643.273 682.597>
LayerCount: 2
Fore
SplineSet
207.611328125 610.193359375 m 4
 207.611328125 573.75 175.755859375 547 144 547 c 4
 121.01953125 547 99.873046875 562.5859375 99.873046875 589.368164062 c 4
 99.873046875 698.998046875 181.044921875 780.045898438 245 794 c 5
 242 770 l 5
 199 761 170 712 162 680 c 4
 161 675 160 670 160 666 c 4
 159.991210938 665.772460938 159.987304688 665.547851562 159.987304688 665.326171875 c 4
 159.987304688 641.571289062 207.611328125 645.490234375 207.611328125 610.193359375 c 4
EndSplineSet
EndChar

StartChar: quoteright
Encoding: 8217 8217 164
GlifName: quoteright
Width: 226
VWidth: 0
Flags: W
HStem: 489 23<133 158.751> 715 20G<215.077 242.725>
VStem: 215.013 60.0215<598.384 710.838>
LayerCount: 2
Fore
SplineSet
167.388671875 672.783203125 m 4
 167.388671875 709.333007812 199.153320312 735 231 735 c 4
 254.44921875 735 275.034179688 719.7265625 275.034179688 691.9765625 c 4
 275.034179688 582.87109375 195.21484375 503.010742188 131 489 c 5
 133 512 l 5
 176 521 205 570 213 602 c 4
 214.067382812 607.334960938 215.012695312 612.201171875 215.012695312 616.673828125 c 4
 215.012695312 640.444335938 167.388671875 637.334960938 167.388671875 672.783203125 c 4
EndSplineSet
EndChar

StartChar: emdash
Encoding: 8212 8212 165
GlifName: emdash
Width: 686
VWidth: 0
Flags: W
HStem: 276 44<66.8592 616.733>
LayerCount: 2
Fore
SplineSet
68.5078125 276 m 1
 65.7666015625 277.026367188 64.595703125 280.423828125 64.595703125 284.974609375 c 0
 64.595703125 298.5234375 74.1806640625 320 83 320 c 2
 618 320 l 1
 619.47265625 320 620.09375 318.23828125 620.09375 315.4140625 c 0
 620.09375 305.06640625 611.58984375 276 603.5078125 276 c 2
 68.5078125 276 l 1
EndSplineSet
Validated: 1
EndChar

StartChar: endash
Encoding: 8211 8211 166
GlifName: endash
Width: 515
VWidth: 0
Flags: W
HStem: 276 44<60.8592 438.733>
LayerCount: 2
Fore
SplineSet
62.5078125 276 m 5
 59.7661951272 277.026477583 58.5958014468 280.42368168 58.5958014468 284.974863481 c 4
 58.5958014468 298.52382628 68.1805804725 320 77 320 c 6
 440 320 l 5
 441.47239174 320 442.093566346 318.238550833 442.093566346 315.413914131 c 4
 442.093566346 305.066294622 433.589645189 276 425.5078125 276 c 6
 62.5078125 276 l 5
EndSplineSet
Validated: 1
EndChar

StartChar: uni2010
Encoding: 8208 8208 167
GlifName: uni2010
Width: 405
VWidth: 0
Flags: W
HStem: 276 44<78 336>
VStem: 68 278
LayerCount: 2
Fore
SplineSet
68 276 m 1
 78 320 l 5
 346 320 l 5
 336 276 l 1
 68 276 l 1
EndSplineSet
Validated: 1
EndChar

StartChar: uni2015
Encoding: 8213 8213 172
GlifName: uni2015
Width: 2002
VWidth: 0
Flags: W
HStem: 276 44<78 1933>
LayerCount: 2
Fore
SplineSet
68 276 m 1
 78 320 l 5
 1943 320 l 5
 1933 276 l 1
 68 276 l 1
EndSplineSet
Validated: 1
EndChar

StartChar: figuredash
Encoding: 8210 8210 173
GlifName: figuredash
Width: 541
VWidth: 0
Flags: W
HStem: 276 44<78 472>
LayerCount: 2
Fore
SplineSet
68 276 m 1
 78 320 l 5
 482 320 l 5
 472 276 l 1
 68 276 l 1
EndSplineSet
Validated: 1
EndChar

StartChar: uni2011
Encoding: 8209 8209 174
GlifName: uni2011
Width: 405
VWidth: 0
Flags: W
HStem: 276 44<78 336>
VStem: 68 278
LayerCount: 2
Fore
SplineSet
68 276 m 1
 78 320 l 5
 346 320 l 5
 336 276 l 1
 68 276 l 1
EndSplineSet
Validated: 1
EndChar

StartChar: uni2034
Encoding: 8244 8244 175
GlifName: uni2034
Width: 422
VWidth: 0
Flags: W
HStem: 501 166<81.875 117.771 197.875 233.771 313.875 349.771>
VStem: 71 59<560.167 666.305> 187 59<560.167 666.305> 303 59<560.167 666.305>
CounterMasks: 1 70
LayerCount: 2
Fore
SplineSet
330 667 m 6
 334 667 l 6
 351 667 362 655 362 637 c 4
 362 635 362 632 361 629 c 6
 349 511 l 6
 349 505 345 501 339 501 c 6
 325 501 l 6
 319 501 315 505 315 511 c 6
 303 629 l 6
 303 631 303 633 303 634 c 4
 303 652 315 667 330 667 c 6
214 667 m 6
 218 667 l 6
 235 667 246 655 246 637 c 4
 246 635 246 632 245 629 c 6
 233 511 l 6
 233 505 229 501 223 501 c 6
 209 501 l 6
 203 501 199 505 199 511 c 6
 187 629 l 6
 187 631 187 633 187 634 c 4
 187 652 199 667 214 667 c 6
98 667 m 6
 102 667 l 6
 119 667 130 655 130 637 c 4
 130 635 130 632 129 629 c 6
 117 511 l 6
 117 505 113 501 107 501 c 6
 93 501 l 6
 87 501 83 505 83 511 c 6
 71 629 l 6
 71 631 71 633 71 634 c 4
 71 652 83 667 98 667 c 6
EndSplineSet
Validated: 1
EndChar

StartChar: uni2016
Encoding: 8214 8214 176
GlifName: uni2016
Width: 313
VWidth: 0
Flags: W
VStem: -6.78613 327.848
LayerCount: 2
Fore
SplineSet
175.944335938 -96.5498046875 m 1
 173.844726562 -103.900390625 159.14453125 -107.049804688 146.544921875 -107.049804688 c 3
 134.87890625 -107.049804688 123.213867188 -104.350585938 123.213867188 -98.1162109375 c 0
 123.213867188 -97.6171875 123.2890625 -97.0947265625 123.444335938 -96.5498046875 c 2
 268.495117188 725.599609375 l 5
 269.544921875 731.900390625 284.245117188 735.049804688 297.89453125 735.049804688 c 7
 309.959960938 735.049804688 321.061523438 732.162109375 321.061523438 726.385742188 c 4
 321.061523438 726.12890625 321.040039062 725.8671875 320.995117188 725.599609375 c 6
 175.944335938 -96.5498046875 l 1
45.9443359375 -95.5498046875 m 1
 43.8447265625 -102.900390625 29.14453125 -106.049804688 16.544921875 -106.049804688 c 3
 4.87890625 -106.049804688 -6.7861328125 -103.350585938 -6.7861328125 -97.1162109375 c 0
 -6.7861328125 -96.6171875 -6.7109375 -96.0947265625 -6.5556640625 -95.5498046875 c 2
 138.495117188 726.599609375 l 5
 139.544921875 732.900390625 154.245117188 736.049804688 167.89453125 736.049804688 c 7
 179.959960938 736.049804688 191.061523438 733.162109375 191.061523438 727.385742188 c 4
 191.061523438 727.12890625 191.040039062 726.8671875 190.995117188 726.599609375 c 6
 45.9443359375 -95.5498046875 l 1
EndSplineSet
EndChar

StartChar: guillemotleft
Encoding: 171 171 180
GlifName: guillemotleft
Width: 466
VWidth: 0
Flags: W
LayerCount: 2
Fore
SplineSet
177.373657992 341.043997253 m 0
 177.373657992 345.707591008 186.961914062 352.474609375 186.961914062 352.474609375 c 1
 282.512695312 427.025390625 348.662109375 463.775390625 412.711914062 526.775390625 c 1
 413.762695312 527.825195312 414.8125 527.825195312 415.862304688 527.825195312 c 0
 419.510255472 527.825195312 422.365574836 524.656879571 422.365574836 519.696439702 c 0
 422.365574836 516.045538584 421.499517719 514.949230749 420.0625 512.075195312 c 0
 371.762695312 453.275390625 314.012695312 397.625 241.5625 343.025390625 c 1
 288.8125 289.474609375 319.262695312 231.724609375 341.3125 172.924804688 c 1
 341.3125 163.356155111 336.428300945 157.174804688 329.762695312 157.174804688 c 0
 328.711914062 157.174804688 328.711914062 157.174804688 327.662109375 158.224609375 c 1
 291.961914062 221.224609375 242.612304688 257.974609375 181.711914062 332.525390625 c 0
 181.711914062 332.525390625 177.373657992 337.731136515 177.373657992 341.043997253 c 0
41.9444910651 341.196316984 m 0
 41.9444910651 345.78355416 51.5126953125 352.474609375 51.5126953125 352.474609375 c 1
 147.0625 427.025390625 213.211914062 463.775390625 277.262695312 526.775390625 c 1
 278.3125 527.825195312 279.362304688 527.825195312 280.412109375 527.825195312 c 0
 284.059775313 527.825195312 286.91567014 524.657374342 286.91567014 519.697601665 c 0
 286.91567014 516.046382458 286.049416185 514.949418309 284.612304688 512.075195312 c 0
 236.3125 453.275390625 179.612304688 397.625 107.162109375 343.025390625 c 1
 154.412109375 289.474609375 184.862304688 231.724609375 206.912109375 172.924804688 c 5
 206.912109375 164.909805155 201.230385151 157.174804688 195.362304688 157.174804688 c 0
 194.3125 157.174804688 193.262695312 157.174804688 192.211914062 158.224609375 c 1
 156.512695312 221.224609375 108.211914062 257.974609375 47.3125 332.525390625 c 0
 47.3125 332.525390625 41.9444910651 337.893399559 41.9444910651 341.196316984 c 0
EndSplineSet
EndChar

StartChar: guillemotright
Encoding: 187 187 181
GlifName: guillemotright
Width: 458
VWidth: 0
Flags: W
LayerCount: 2
Fore
SplineSet
273.368164062 332.525390625 m 5
 177.818359375 257.974609375 111.66796875 221.224609375 47.6181640625 158.224609375 c 1
 46.568359375 157.174804688 45.5185546875 157.174804688 44.46875 157.174804688 c 0
 40.8206754991 157.174804688 37.9645494854 160.343335333 37.9645494854 165.304064988 c 0
 37.9645494854 168.942301283 38.8350248113 170.057744934 40.2685546875 172.924804688 c 0
 88.568359375 231.724609375 145.268554688 289.474609375 217.71875 343.025390625 c 1
 170.46875 397.625 141.068359375 453.275390625 119.018554688 512.075195312 c 1
 119.018554688 521.640502965 123.88672202 527.825195312 130.568359375 527.825195312 c 0
 131.618164062 527.825195312 131.618164062 527.825195312 132.66796875 526.775390625 c 1
 168.368164062 463.775390625 216.66796875 427.025390625 277.568359375 352.474609375 c 0
 277.568359375 352.474609375 282.93636831 347.10660044 282.93636831 342.977185539 c 0
 282.93636831 339.193826507 273.368164062 332.525390625 273.368164062 332.525390625 c 5
407.768554688 332.525390625 m 0
 312.21875 257.974609375 246.068359375 221.224609375 182.018554688 158.224609375 c 1
 180.96875 157.174804688 179.91796875 157.174804688 178.868164062 157.174804688 c 0
 175.220213278 157.174804688 172.364893914 160.343120429 172.364893914 165.303560298 c 0
 172.364893914 168.941453838 173.234522754 170.057912696 174.66796875 172.924804688 c 0
 222.96875 231.724609375 280.71875 289.474609375 353.16796875 343.025390625 c 1
 305.91796875 397.625 275.46875 453.275390625 253.41796875 512.075195312 c 1
 253.41796875 521.640772633 258.287701631 527.825195312 264.96875 527.825195312 c 0
 266.018554688 527.825195312 266.018554688 527.825195312 267.068359375 526.775390625 c 1
 302.768554688 463.775390625 352.118164062 427.025390625 413.018554688 352.474609375 c 0
 413.018554688 352.474609375 417.357544408 347.267983132 417.357544408 343.165654901 c 0
 417.357544408 339.196815009 407.884348399 332.6157363 407.768554688 332.525390625 c 0
EndSplineSet
Validated: 1
EndChar

StartChar: registered
Encoding: 174 174 182
GlifName: registered
Width: 675
VWidth: 0
Flags: W
HStem: 101.639 34.1084<205.239 371.419> 203.36 10.1504<149.985 170.935 225.425 246.375 422.254 453.838> 340.478 16.583<219.645 254.475> 493.166 14.374<149.985 161.946 220.791 295.949> 573.253 28.1084<217.433 356.408>
VStem: 24.957 38.1074<266.764 432.473> 175.831 43.0039<214.017 341.489 357.061 492.985> 342.765 42.9307<380.518 471.05> 494.936 38.1074<257.093 440.766>
LayerCount: 2
Fore
SplineSet
218.834960938 357.060546875 m 5
 224.504882812 357.060546875 230.985351562 357.060546875 236.655273438 357.060546875 c 4
 295.78515625 357.060546875 342.764648438 378.9296875 342.764648438 424.110351562 c 4
 342.764648438 475.860351562 291.735351562 492.780273438 261.764648438 492.780273438 c 4
 248.462890625 492.780273438 234.6640625 493.166015625 229.849609375 493.166015625 c 4
 228.2421875 493.166015625 220.78515625 492.985351562 220.78515625 492.985351562 c 6
 220.78515625 492.334960938 218.9140625 425.557617188 218.9140625 378.879882812 c 4
 218.9140625 370.782226562 218.834960938 363.540039062 218.834960938 357.060546875 c 5
234.224609375 215.129882812 m 4
 238.275390625 214.3203125 242.325195312 213.510742188 246.375 213.510742188 c 5
 246.375 203.360351562 l 5
 149.985351562 203.360351562 l 1
 149.985351562 213.510742188 l 5
 154.03515625 213.510742188 158.084960938 214.3203125 162.135742188 215.129882812 c 0
 171.044921875 216.75 175.905273438 221.610351562 175.905273438 227.280273438 c 4
 175.905273438 234.5703125 175.831054688 330.13671875 175.831054688 401.435546875 c 4
 175.831054688 439.487304688 175.905273438 466.860351562 175.905273438 475.76953125 c 4
 175.905273438 483.060546875 171.044921875 491.969726562 162.135742188 494.400390625 c 4
 158.084960938 495.209960938 154.03515625 495.209960938 149.985351562 495.209960938 c 5
 149.985351562 506.73046875 l 5
 154.03515625 506.73046875 158.89453125 506.73046875 162.9453125 506.73046875 c 4
 193.724609375 506.73046875 230.174804688 507.540039062 260.955078125 507.540039062 c 4
 332.235351562 507.540039062 385.6953125 481.620117188 385.6953125 424.919921875 c 4
 385.6953125 381.989257812 347.625 354.450195312 309.5546875 347.16015625 c 5
 350.0546875 296.129882812 388.935546875 246.719726562 409.185546875 224.040039062 c 4
 413.235351562 219.1796875 417.28515625 215.939453125 422.14453125 215.129882812 c 4
 424.291999628 214.700699764 438.13604787 214.499042461 451.275100164 214.404291124 c 5
 478.983579893 250.903210298 494.935546875 297.606662853 494.935546875 349.063476562 c 4
 494.935546875 468.533203125 407.200195312 573.252929688 287.73046875 573.252929688 c 4
 168.259765625 573.252929688 63.064453125 468.533203125 63.064453125 349.063476562 c 4
 63.064453125 229.59375 170.006835938 135.747070312 289.475585938 135.747070312 c 4
 348.122062011 135.747070312 398.700550879 158.361201931 434.999996735 195.519412914 c 5
 436.864837276 197.428371485 469.692382812 201.375976562 471.48046875 203.360351562 c 5
 375.974609375 203.360351562 l 6
 355.724609375 203.360351562 343.575195312 229.709960938 337.094726562 236.189453125 c 6
 254.474609375 340.6796875 l 6
 249.614257812 340.6796875 243.9453125 340.477539062 238.275390625 340.477539062 c 4
 232.60546875 340.477539062 226.125 340.6796875 219.64453125 341.489257812 c 5
 220.455078125 226.469726562 l 6
 220.455078125 221.610351562 225.314453125 216.75 234.224609375 215.129882812 c 4
24.95703125 349.063476562 m 4
 24.95703125 489.616210938 147.176757812 601.361328125 287.73046875 601.361328125 c 4
 428.283203125 601.361328125 533.04296875 489.616210938 533.04296875 349.063476562 c 4
 533.04296875 208.510742188 430.029296875 101.638671875 289.475585938 101.638671875 c 4
 148.923828125 101.638671875 24.95703125 208.510742188 24.95703125 349.063476562 c 4
EndSplineSet
Validated: 1
EndChar

StartChar: copyright
Encoding: 169 169 183
GlifName: copyright
Width: 627
VWidth: 0
Flags: W
HStem: 33.375 43.0498<179.142 363.188> 149.925 40.9502<244.161 366.259> 462.825 32.5498<292.89 382.204> 562.575 43.0498<280.912 463.384>
VStem: 35.8437 42.017<176.738 361.913> 160.667 52.2576<220.21 378.373> 548.663 41.0076<276.234 473.863>
LayerCount: 2
Fore
SplineSet
405.578125 221.325195312 m 5
 412.927734375 201.375 l 5
 367.778320312 164.625 329.977539062 149.924804688 278.528320312 149.924804688 c 4
 210.557872323 149.924804688 160.667391028 193.316724759 160.667391028 273.498540611 c 4
 160.667391028 410.917418465 252.780444703 495.375 355.177734375 495.375 c 7
 389.828125 495.375 430.778320312 477.525390625 457.028320312 436.575195312 c 4
 457.885519466 434.859999611 458.275239311 433.227296478 458.275239311 431.681576002 c 0
 458.275239311 420.162956597 436.633535036 413.474609375 425.528320312 413.474609375 c 7
 382.477539062 413.474609375 399.278320312 462.825195312 342.578125 462.825195312 c 4
 275.207740299 462.825195312 212.925017883 381.01693852 212.925017883 287.63511521 c 4
 212.925017883 232.074133236 240.807857105 190.875 307.927734375 190.875 c 7
 335.227539062 190.875 366.727539062 196.125 405.578125 221.325195312 c 5
77.8607375256 264.685612044 m 4
 77.8607375256 155.985928509 158.378726604 76.4248046875 266.977539062 76.4248046875 c 4
 405.276712471 76.4248046875 548.663015024 210.696037974 548.663015024 382.879245707 c 4
 548.663015024 486.903266474 483.674265016 562.575195312 378.278320312 562.575195312 c 4
 243.240209478 562.575195312 77.8607375256 434.334367024 77.8607375256 264.685612044 c 4
387.727539062 605.625 m 4
 512.005490795 605.625 589.670599621 516.100734074 589.670599621 392.947782712 c 4
 589.670599621 190.511558691 419.745859794 33.375 257.528320312 33.375 c 4
 129.912278635 33.375 35.8437274118 126.993068743 35.8437274118 255.05158467 c 4
 35.8437274118 454.895225377 228.93122934 605.625 387.727539062 605.625 c 4
EndSplineSet
Validated: 1
EndChar

StartChar: degree
Encoding: 176 176 185
GlifName: degree
Width: 260
VWidth: 0
Flags: W
HStem: 486.45 30.4502<149.369 208.008> 605.1 30.4502<162.367 221.567>
VStem: 113.649 30.2729<522.062 587.049> 226.224 28.0402<537.22 600.54>
LayerCount: 2
Fore
SplineSet
143.921950547 551.521466203 m 0
 143.921950547 533.221633355 155.318872015 516.900390625 175.618164062 516.900390625 c 0
 197.774777276 516.900390625 226.224384231 541.296201486 226.224384231 571.565658131 c 0
 226.224384231 589.58266556 215.116160918 605.099609376 196.618164062 605.099609375 c 0
 172.222216446 605.099609375 143.921950547 582.157796508 143.921950547 551.521466203 c 0
199.768554688 635.549804688 m 0
 231.255937336 635.549804688 254.264545637 608.571430102 254.264545637 576.40912474 c 0
 254.264545637 527.350066579 205.523566722 486.450195312 166.168945312 486.450195312 c 4
 134.999654916 486.450195312 113.649045558 510.620012853 113.649045558 541.663840789 c 0
 113.649045558 590.571922801 160.438238507 635.549804688 199.768554688 635.549804688 c 0
EndSplineSet
Validated: 1
EndChar

StartChar: thorn
Encoding: 254 254 188
GlifName: thorn
Width: 612
VWidth: 0
Flags: W
HStem: -10.0254 23.1006<162.964 259.755> 480.325 31.5<254.816 352.066> 732.9 13.6494<151.649 171.395> 753.851 20G<256.225 257.861>
VStem: 182.105 78.8506<666.433 770.721> 402.896 76.0146<198.215 435.147>
LayerCount: 2
Fore
SplineSet
124.829101562 451.483398438 m 2
 180 693 l 2
 181.236328125 698.951171875 182.10546875 704.374023438 182.10546875 709.06640625 c 0
 182.10546875 719.174804688 178.770507812 726.1640625 171.599609375 729.75 c 0
 167.399414062 731.850585938 152.700195312 732.900390625 148.5 732.900390625 c 1
 151.649414062 746.549804688 l 1
 251.599609375 772.850585938 l 2
 253.521484375 773.346679688 255.700195312 773.850585938 256.75 773.850585938 c 3
 258.97265625 773.850585938 260.956054688 772.352539062 260.956054688 769.08984375 c 0
 260.956054688 766.1875 260.041992188 761.991210938 258.799804688 756 c 2
 200.125 482.575195312 l 2
 200.125 482.575195312 195.9375 455.46484375 193.724609375 448.825195312 c 1
 230.474609375 487.674804688 270.525390625 511.825195312 315.674804688 511.825195312 c 0
 404.6640625 511.825195312 478.911132812 462.381835938 478.911132812 340.581054688 c 0
 478.911132812 113.129882812 348.232421875 -10.025390625 197.025390625 -10.025390625 c 3
 163.424804688 -10.025390625 125.625 -0.5751953125 94.125 27.775390625 c 1
 26.94921875 -232 l 1
 -35 -232 l 1
 110.075195312 377.424804688 l 2
 113.05573166 389.945296408 124.829101562 451.483398438 124.829101562 451.483398438 c 2
187.474609375 419.424804688 m 1
 116.174804688 121.224609375 l 1
 120.375 63.474609375 141.375 13.0751953125 210.674804688 13.0751953125 c 0
 321.342773438 13.0751953125 402.896484375 175.327148438 402.896484375 340.533203125 c 0
 402.896484375 421.509765625 372.6796875 480.325195312 294.625 480.325195312 c 3
 267.325195312 480.325195312 227.375 454.075195312 187.474609375 419.424804688 c 1
EndSplineSet
Validated: 1
EndChar

StartChar: multiply
Encoding: 215 215 189
GlifName: multiply
Width: 361
VWidth: 0
Flags: W
HStem: 161.1 249.448
VStem: 151.512 68.1188<269.693 308.166>
LayerCount: 2
Fore
SplineSet
67.4462890625 161.099609375 m 2
 66.4312359148 160.084792231 65.2322460822 159.621842177 63.9085883992 159.621842177 c 0
 59.7550739675 159.621842177 54.3740226555 164.180260916 49.5966796875 170.549804688 c 0
 45.2735971091 176.3134681 42.4340477224 183.559745254 42.4340477224 188.897491671 c 0
 42.4340477224 191.339372853 43.0283160814 193.381831706 44.3466796875 194.700195312 c 2
 146.196289062 282.900390625 l 2
 148.559100347 285.262469482 151.511886597 288.215621954 151.511886597 291.316539395 c 0
 151.511886597 292.350146493 151.183819581 293.400170902 150.396484375 294.450195312 c 2
 93.6962890625 375.299804688 l 1
 93.636457201 375.658851515 93.6073186631 376.03154158 93.6073186631 376.416708616 c 4
 93.6073186631 382.789649202 101.584496507 392.578375582 110.49609375 400.5 c 0
 117.414207953 406.649593714 124.332322155 410.547726916 128.778511699 410.547726916 c 0
 130.405850049 410.547726916 131.702045839 410.025527421 132.545898438 408.900390625 c 2
 188.196289062 330.150390625 l 2
 189.844379502 327.678063371 191.81573712 326.822523077 193.793249552 326.822523077 c 0
 196.85547174 326.822523077 199.932452689 328.874041502 201.846679688 330.150390625 c 2
 293.196289062 408.900390625 l 1
 300.545898438 404.700195312 305.795898438 399.450195312 309.99609375 393.150390625 c 0
 314.196289062 386.849609375 315.24609375 381.599609375 316.295898438 374.25 c 1
 224.946289062 294.450195312 l 2
 222.583477779 292.874743647 219.630691528 290.118792724 219.630691528 287.067311852 c 0
 219.630691528 286.050183099 219.958758544 285.000219722 220.74609375 283.950195312 c 2
 278.49609375 201 l 1
 278.679160436 200.725442525 278.766523478 200.387090039 278.766523478 199.991892072 c 0
 278.766523478 195.852418486 269.181601583 185.476217372 259.596679688 176.849609375 c 0
 253.063145019 171.133336193 246.529610351 166.052110121 242.466583511 166.052110121 c 0
 241.305636757 166.052110121 240.346392585 166.466962646 239.646484375 167.400390625 c 2
 181.896484375 250.349609375 l 2
 180.772303961 252.03561868 179.047050048 253.119995089 177.042252268 253.119995089 c 0
 175.300987609 253.119995089 173.348841491 252.301966491 171.396484375 250.349609375 c 2
 67.4462890625 161.099609375 l 2
EndSplineSet
Validated: 1
EndChar

StartChar: AE
Encoding: 198 198 191
GlifName: A_E_
Width: 989
VWidth: 0
Flags: W
HStem: 0 16<54 76.625 173.5 207 404 432.532 569.005 676.835> 342 29<397 534 621 777.739> 678 52<599.828 613.531> 709 21<516 554.751 707.716 849.323>
VStem: 797 15<283 306.438> 831 15<407.303 431> 916 14<591 642.314>
LayerCount: 2
Fore
SplineSet
393 379 m 0xee
 392 378 392 377 392 376 c 0
 391 373 393 371 397 371 c 2
 528 371 l 1
 536 371 l 2
 540 371 542 373 543 376 c 0
 543 377 543 378 543 379 c 0
 617 674 l 2
 618 677 617 678 616 678 c 0
 615 678 612 677 610 674 c 2
 393 379 l 0xee
554 683 m 0
 559 703 551 708 535 712 c 0
 528 714 521 714 513 714 c 1
 516 730 l 1
 762 730 l 1
 947 730 l 1
 930 590 l 1
 916 591 l 1
 918 651 897 678 847 700 c 0
 830 707 799 709 773 709 c 0xde
 754 709 745 708 726 706 c 0
 710 704 698 693 695 681 c 2
 621 377 l 1
 648 375 697 372 717 372 c 0
 742 372 762 375 791 378 c 0
 803 381 816 391 823 406 c 0
 827 415 830 430 831 431 c 2
 846 431 l 1
 812 283 l 1
 797 283 l 2
 796 284 799 295 800 307 c 0
 802 325 787 335 779 337 c 0
 752 340 732 343 710 343 c 0
 689 343 639 340 612 337 c 1
 550 55 l 2
 547 42 552 26 569 24 c 0
 586 22 595 21 612 21 c 0
 642 21 683 22 725 32 c 0
 785 47 817 79 843 139 c 1
 858 140 l 1
 810 0 l 1
 586 0 l 1
 512 0 l 1
 493 0 l 1
 480 0 l 1
 401 0 l 1
 404 16 l 1
 414 16 423 16 433 18 c 0
 452 22 466 49 466 49 c 1
 486 137 514 254 534 342 c 1
 374 342 l 2
 368 342 367 338 364 334 c 2
 186 74 l 6
 177 60 172 50 170 42 c 4
 166 24 177 20 189 17 c 4
 196 16 203 16 210 16 c 5
 207 0 l 5
 50 0 l 1
 54 16 l 1
 61 16 69 17 77 18 c 0
 92 22 101 38 113 55 c 2
 543 665 l 2
 546 669 552 676 554 683 c 0
EndSplineSet
EndChar

